  0
SECTION
  2
HEADER
  9
$ACADVER
  1
AC1015
  9
$ACADMAINTVER
 70
     6
  9
$DWGCODEPAGE
  3
ANSI_1252
  9
$INSBASE
 10
0.0
 20
0.0
 30
0.0
  9
$EXTMIN
 10
-199.0
 20
-25.0
 30
0.0
  9
$EXTMAX
 10
199.0
 20
25.0
 30
0.0
  9
$LIMMIN
 10
0.0
 20
0.0
  9
$LIMMAX
 10
420.0
 20
297.0
  9
$ORTHOMODE
 70
     0
  9
$REGENMODE
 70
     1
  9
$FILLMODE
 70
     1
  9
$QTEXTMODE
 70
     0
  9
$MIRRTEXT
 70
     1
  9
$LTSCALE
 40
1.0
  9
$ATTMODE
 70
     1
  9
$TEXTSIZE
 40
3.5
  9
$TRACEWID
 40
1.0
  9
$TEXTSTYLE
  7
Standard
  9
$CLAYER
  8
0
  9
$CELTYPE
  6
ByLayer
  9
$CECOLOR
 62
   256
  9
$CELTSCALE
 40
1.0
  9
$DISPSILH
 70
     0
  9
$DIMSCALE
 40
1.0
  9
$DIMASZ
 40
3.302
  9
$DIMEXO
 40
1.0
  9
$DIMDLI
 40
3.75
  9
$DIMRND
 40
0.0
  9
$DIMDLE
 40
0.0
  9
$DIMEXE
 40
1.0
  9
$DIMTP
 40
0.0
  9
$DIMTM
 40
0.0
  9
$DIMTXT
 40
3.5
  9
$DIMCEN
 40
2.5
  9
$DIMTSZ
 40
0.0
  9
$DIMTOL
 70
     0
  9
$DIMLIM
 70
     0
  9
$DIMTIH
 70
     1
  9
$DIMTOH
 70
     1
  9
$DIMSE1
 70
     0
  9
$DIMSE2
 70
     0
  9
$DIMTAD
 70
     1
  9
$DIMZIN
 70
     0
  9
$DIMBLK
  1

  9
$DIMASO
 70
     1
  9
$DIMSHO
 70
     1
  9
$DIMPOST
  1

  9
$DIMAPOST
  1

  9
$DIMALT
 70
     0
  9
$DIMALTD
 70
     3
  9
$DIMALTF
 40
0.0393700787
  9
$DIMLFAC
 40
1.0
  9
$DIMTOFL
 70
     1
  9
$DIMTVP
 40
0.0
  9
$DIMTIX
 70
     0
  9
$DIMSOXD
 70
     0
  9
$DIMSAH
 70
     0
  9
$DIMBLK1
  1

  9
$DIMBLK2
  1

  9
$DIMSTYLE
  2
ISO-25
  9
$DIMCLRD
 70
     0
  9
$DIMCLRE
 70
     0
  9
$DIMCLRT
 70
     0
  9
$DIMTFAC
 40
1.0
  9
$DIMGAP
 40
1.524
  9
$DIMJUST
 70
     0
  9
$DIMSD1
 70
     0
  9
$DIMSD2
 70
     0
  9
$DIMTOLJ
 70
     0
  9
$DIMTZIN
 70
     0
  9
$DIMALTZ
 70
     0
  9
$DIMALTTZ
 70
     0
  9
$DIMUPT
 70
     0
  9
$DIMDEC
 70
     2
  9
$DIMTDEC
 70
     2
  9
$DIMALTU
 70
     2
  9
$DIMALTTD
 70
     3
  9
$DIMTXSTY
  7
Standard
  9
$DIMAUNIT
 70
     0
  9
$DIMADEC
 70
     2
  9
$DIMALTRND
 40
0.0
  9
$DIMAZIN
 70
     0
  9
$DIMDSEP
 70
    44
  9
$DIMATFIT
 70
     3
  9
$DIMFRAC
 70
     0
  9
$DIMLDRBLK
  1

  9
$DIMLUNIT
 70
     2
  9
$DIMLWD
 70
    -2
  9
$DIMLWE
 70
    -2
  9
$DIMTMOVE
 70
     0
  9
$LUNITS
 70
     2
  9
$LUPREC
 70
     2
  9
$SKETCHINC
 40
1.0
  9
$FILLETRAD
 40
10.0
  9
$AUNITS
 70
     0
  9
$AUPREC
 70
     2
  9
$MENU
  1
.
  9
$ELEVATION
 40
0.0
  9
$PELEVATION
 40
0.0
  9
$THICKNESS
 40
0.0
  9
$LIMCHECK
 70
     0
  9
$CHAMFERA
 40
0.0
  9
$CHAMFERB
 40
0.0
  9
$CHAMFERC
 40
0.0
  9
$CHAMFERD
 40
0.0
  9
$SKPOLY
 70
     0
  9
$TDCREATE
 40
2458745.737909838
  9
$TDUCREATE
 40
2458745.612909838
  9
$TDUPDATE
 40
2458745.737971088
  9
$TDUUPDATE
 40
2458745.612971088
  9
$TDINDWG
 40
0.0000000116
  9
$TDUSRTIMER
 40
0.0000000116
  9
$USRTIMER
 70
     1
  9
$ANGBASE
 50
0.0
  9
$ANGDIR
 70
     0
  9
$PDMODE
 70
     0
  9
$PDSIZE
 40
-1.0
  9
$PLINEWID
 40
0.0
  9
$SPLFRAME
 70
     0
  9
$SPLINETYPE
 70
     6
  9
$SPLINESEGS
 70
     8
  9
$HANDSEED
  5
199
  9
$SURFTAB1
 70
     6
  9
$SURFTAB2
 70
     6
  9
$SURFTYPE
 70
     6
  9
$SURFU
 70
     6
  9
$SURFV
 70
     6
  9
$UCSBASE
  2

  9
$UCSNAME
  2

  9
$UCSORG
 10
0.0
 20
0.0
 30
0.0
  9
$UCSXDIR
 10
1.0
 20
0.0
 30
0.0
  9
$UCSYDIR
 10
0.0
 20
1.0
 30
0.0
  9
$UCSORTHOREF
  2

  9
$UCSORTHOVIEW
 70
     0
  9
$UCSORGTOP
 10
0.0
 20
0.0
 30
0.0
  9
$UCSORGBOTTOM
 10
0.0
 20
0.0
 30
0.0
  9
$UCSORGLEFT
 10
0.0
 20
0.0
 30
0.0
  9
$UCSORGRIGHT
 10
0.0
 20
0.0
 30
0.0
  9
$UCSORGFRONT
 10
0.0
 20
0.0
 30
0.0
  9
$UCSORGBACK
 10
0.0
 20
0.0
 30
0.0
  9
$PUCSBASE
  2

  9
$PUCSNAME
  2

  9
$PUCSORG
 10
0.0
 20
0.0
 30
0.0
  9
$PUCSXDIR
 10
1.0
 20
0.0
 30
0.0
  9
$PUCSYDIR
 10
0.0
 20
1.0
 30
0.0
  9
$PUCSORTHOREF
  2

  9
$PUCSORTHOVIEW
 70
     0
  9
$PUCSORGTOP
 10
0.0
 20
0.0
 30
0.0
  9
$PUCSORGBOTTOM
 10
0.0
 20
0.0
 30
0.0
  9
$PUCSORGLEFT
 10
0.0
 20
0.0
 30
0.0
  9
$PUCSORGRIGHT
 10
0.0
 20
0.0
 30
0.0
  9
$PUCSORGFRONT
 10
0.0
 20
0.0
 30
0.0
  9
$PUCSORGBACK
 10
0.0
 20
0.0
 30
0.0
  9
$USERI1
 70
     0
  9
$USERI2
 70
     0
  9
$USERI3
 70
     0
  9
$USERI4
 70
     0
  9
$USERI5
 70
     0
  9
$USERR1
 40
0.0
  9
$USERR2
 40
0.0
  9
$USERR3
 40
0.0
  9
$USERR4
 40
0.0
  9
$USERR5
 40
0.0
  9
$WORLDVIEW
 70
     1
  9
$SHADEDGE
 70
     3
  9
$SHADEDIF
 70
    70
  9
$TILEMODE
 70
     1
  9
$MAXACTVP
 70
    64
  9
$PINSBASE
 10
0.0
 20
0.0
 30
0.0
  9
$PLIMCHECK
 70
     0
  9
$PEXTMIN
 10
1.0000000000E+20
 20
1.0000000000E+20
 30
1.0000000000E+20
  9
$PEXTMAX
 10
-1.0000000000E+20
 20
-1.0000000000E+20
 30
-1.0000000000E+20
  9
$PLIMMIN
 10
0.0
 20
0.0
  9
$PLIMMAX
 10
420.0
 20
297.0
  9
$UNITMODE
 70
     0
  9
$VISRETAIN
 70
     1
  9
$PLINEGEN
 70
     0
  9
$PSLTSCALE
 70
     1
  9
$TREEDEPTH
 70
  3020
  9
$CMLSTYLE
  2
Standard
  9
$CMLJUST
 70
     0
  9
$CMLSCALE
 40
20.0
  9
$PROXYGRAPHICS
 70
     1
  9
$MEASUREMENT
 70
     1
  9
$CELWEIGHT
370
    -1
  9
$ENDCAPS
280
     0
  9
$JOINSTYLE
280
     0
  9
$LWDISPLAY
290
     1
  9
$INSUNITS
 70
     4
  9
$HYPERLINKBASE
  1

  9
$STYLESHEET
  1

  9
$XEDIT
290
     1
  9
$CEPSNTYPE
380
     0
  9
$PSTYLEMODE
290
     1
  9
$FINGERPRINTGUID
  2
{EEC57E69-2F0A-4B60-82A7-47803963207D}
  9
$VERSIONGUID
  2
{FAEB1C32-E019-11D5-929B-00C0DF256EC4}
  9
$EXTNAMES
290
     1
  9
$PSVPSCALE
 40
0.0
  9
$OLESTARTUP
290
     0
  0
ENDSEC
  0
SECTION
  2
CLASSES
  0
CLASS
  1
ACDBDICTIONARYWDFLT
  2
AcDbDictionaryWithDefault
  3
ObjectDBX Classes
 90
        0
280
     0
281
     0
  0
CLASS
  1
VISUALSTYLE
  2
AcDbVisualStyle
  3
ObjectDBX Classes
 90
     4095
280
     0
281
     0
  0
CLASS
  1
MATERIAL
  2
AcDbMaterial
  3
ObjectDBX Classes
 90
     1153
280
     0
281
     0
  0
CLASS
  1
SCALE
  2
AcDbScale
  3
ObjectDBX Classes
 90
     1153
280
     0
281
     0
  0
CLASS
  1
TABLESTYLE
  2
AcDbTableStyle
  3
ObjectDBX Classes
 90
     4095
280
     0
281
     0
  0
CLASS
  1
MLEADERSTYLE
  2
AcDbMLeaderStyle
  3
ACDB_MLEADERSTYLE_CLASS
 90
     4095
280
     0
281
     0
  0
CLASS
  1
SUN
  2
AcDbSun
  3
SCENEOE
 90
     1153
280
     0
281
     0
  0
CLASS
  1
ACDBPLACEHOLDER
  2
AcDbPlaceHolder
  3
ObjectDBX Classes
 90
        0
280
     0
281
     0
  0
CLASS
  1
LAYOUT
  2
AcDbLayout
  3
ObjectDBX Classes
 90
        0
280
     0
281
     0
  0
ENDSEC
  0
SECTION
  2
TABLES
  0
TABLE
  2
VPORT
  5
8
330
0
100
AcDbSymbolTable
 70
     1
  0
VPORT
  5
29
330
8
100
AcDbSymbolTableRecord
100
AcDbViewportTableRecord
  2
*Active
 70
     0
 10
0.0
 20
0.0
 11
1.0
 21
1.0
 12
0.0
 22
0.0
 13
0.0
 23
0.0
 14
10.0
 24
10.0
 15
10.0
 25
10.0
 16
0.0
 26
0.0
 36
1.0
 17
0.0
 27
0.0
 37
0.0
 40
51.0
 41
7.96
 42
50.0
 43
0.0
 44
0.0
 50
0.0
 51
0.0
 71
     0
 72
   100
 73
     1
 74
     3
 75
     0
 76
     0
 77
     0
 78
     0
281
     0
 65
     1
110
0.0
120
0.0
130
0.0
111
1.0
121
0.0
131
0.0
112
0.0
122
1.0
132
0.0
 79
     0
146
0.0
  0
ENDTAB
  0
TABLE
  2
LTYPE
  5
5
330
0
100
AcDbSymbolTable
 70
     6
  0
LTYPE
  5
14
330
5
100
AcDbSymbolTableRecord
100
AcDbLinetypeTableRecord
  2
ByBlock
 70
     0
  3

 72
    65
 73
     0
 40
0.0
  0
LTYPE
  5
15
330
5
100
AcDbSymbolTableRecord
100
AcDbLinetypeTableRecord
  2
ByLayer
 70
     0
  3

 72
    65
 73
     0
 40
0.0
  0
LTYPE
  5
16
330
5
100
AcDbSymbolTableRecord
100
AcDbLinetypeTableRecord
  2
Continuous
 70
     0
  3
Solid line
 72
    65
 73
     0
 40
0.0
  0
LTYPE
  5
6E
330
5
100
AcDbSymbolTableRecord
100
AcDbLinetypeTableRecord
  2
HIDDEN
 70
     0
  3
Hidden __ __ __ __ __ __ __ __ __ __ __ __ __ __
 72
    65
 73
     2
 40
1.905
 49
1.27
 74
     0
 49
-0.635
 74
     0
  0
LTYPE
  5
6F
330
5
100
AcDbSymbolTableRecord
100
AcDbLinetypeTableRecord
  2
PHANTOM
 70
     0
  3
Phantom ______  __  __  ______  __  __  ______
 72
    65
 73
     6
 40
12.7
 49
6.35
 74
     0
 49
-1.27
 74
     0
 49
1.27
 74
     0
 49
-1.27
 74
     0
 49
1.27
 74
     0
 49
-1.27
 74
     0
  0
LTYPE
  5
70
330
5
100
AcDbSymbolTableRecord
100
AcDbLinetypeTableRecord
  2
CENTER
 70
     0
  3
Center ____ _ ____ _ ____ _ ____ _ ____ _ ____
 72
    65
 73
     4
 40
10.16
 49
6.35
 74
     0
 49
-1.27
 74
     0
 49
1.27
 74
     0
 49
-1.27
 74
     0
  0
LTYPE
  5
71
330
5
100
AcDbSymbolTableRecord
100
AcDbLinetypeTableRecord
  2
CENTERX2
 70
     0
  3
Center (2x) ________  __  ________  __  _____
 72
    65
 73
     4
 40
20.32
 49
12.7
 74
     0
 49
-2.54
 74
     0
 49
2.54
 74
     0
 49
-2.54
 74
     0
  0
LTYPE
  5
72
330
5
100
AcDbSymbolTableRecord
100
AcDbLinetypeTableRecord
  2
DOT2
 70
     0
  3
Dot (.5x) ........................................
 72
    65
 73
     2
 40
0.635
 49
0.0
 74
     0
 49
-0.635
 74
     0
  0
ENDTAB
  0
TABLE
  2
LAYER
  5
2
330
0
100
AcDbSymbolTable
 70
     1
  0
LAYER
  5
10
330
2
100
AcDbSymbolTableRecord
100
AcDbLayerTableRecord
  2
0
 70
     0
 62
     7
  6
Continuous
370
    -3
390
F
  0
ENDTAB
  0
TABLE
  2
STYLE
  5
3
330
0
100
AcDbSymbolTable
 70
     1
  0
STYLE
  5
11
330
3
100
AcDbSymbolTableRecord
100
AcDbTextStyleTableRecord
  2
Standard
 70
     0
 40
0.0
 41
1.0
 50
0.0
 71
     0
 42
3.5
  3
txt
  4

  0
ENDTAB
  0
TABLE
  2
VIEW
  5
6
330
0
100
AcDbSymbolTable
 70
     0
  0
ENDTAB
  0
TABLE
  2
UCS
  5
7
330
0
100
AcDbSymbolTable
 70
     0
  0
ENDTAB
  0
TABLE
  2
APPID
  5
9
330
0
100
AcDbSymbolTable
 70
     1
  0
APPID
  5
12
330
9
100
AcDbSymbolTableRecord
100
AcDbRegAppTableRecord
  2
ACAD
 70
     0
  0
ENDTAB
  0
TABLE
  2
DIMSTYLE
  5
A
330
0
100
AcDbSymbolTable
 70
     1
100
AcDbDimStyleTable
  0
DIMSTYLE
105
27
330
A
100
AcDbSymbolTableRecord
100
AcDbDimStyleTableRecord
  2
ISO-25
 70
     0
 41
2.5
 42
0.625
 43
3.75
 44
1.25
 73
     0
 74
     0
 77
     1
 78
     8
140
2.5
141
2.5
143
0.0393700787
147
0.625
171
     3
172
     1
178
     0
271
     2
272
     2
274
     3
278
    44
283
     0
284
     8
340
11
  0
ENDTAB
  0
TABLE
  2
BLOCK_RECORD
  5
1
330
0
100
AcDbSymbolTable
 70
     1
  0
BLOCK_RECORD
  5
1F
330
1
100
AcDbSymbolTableRecord
100
AcDbBlockTableRecord
  2
*Model_Space
340
22
  0
BLOCK_RECORD
  5
1B
330
1
100
AcDbSymbolTableRecord
100
AcDbBlockTableRecord
  2
*Paper_Space
340
1E
  0
BLOCK_RECORD
  5
23
330
1
100
AcDbSymbolTableRecord
100
AcDbBlockTableRecord
  2
*Paper_Space0
340
26
  0
ENDTAB
  0
ENDSEC
  0
SECTION
  2
BLOCKS
  0
BLOCK
  5
20
330
1F
100
AcDbEntity
  8
0
100
AcDbBlockBegin
  2
*Model_Space
 70
     0
 10
0.0
 20
0.0
 30
0.0
  3
*Model_Space
  1

  0
ENDBLK
  5
21
330
1F
100
AcDbEntity
  8
0
100
AcDbBlockEnd
  0
BLOCK
  5
1C
330
1B
100
AcDbEntity
 67
     1
  8
0
100
AcDbBlockBegin
  2
*Paper_Space
 70
     0
 10
0.0
 20
0.0
 30
0.0
  3
*Paper_Space
  1

  0
ENDBLK
  5
1D
330
1B
100
AcDbEntity
 67
     1
  8
0
100
AcDbBlockEnd
  0
BLOCK
  5
24
330
23
100
AcDbEntity
  8
0
100
AcDbBlockBegin
  2
*Paper_Space0
 70
     0
 10
0.0
 20
0.0
 30
0.0
  3
*Paper_Space0
  1

  0
ENDBLK
  5
25
330
23
100
AcDbEntity
  8
0
100
AcDbBlockEnd
  0
ENDSEC
  0
SECTION
  2
ENTITIES
  0
LINE
  5
73
330
1F
100
AcDbEntity
  8
0
  6
Continuous
 62
     7
370
    25
100
AcDbLine
 10
193.8388218142
 20
25.0
 30
0.0
 11
196.0
 21
25.0
 31
0.0
  0
ARC
  5
74
330
1F
100
AcDbEntity
  8
0
  6
Continuous
 62
     7
370
    25
100
AcDbCircle
 10
193.8388218142
 20
22.0
 30
0.0
 40
3.0
100
AcDbArc
 50
90.0
 51
173.8493601721
  0
ARC
  5
75
330
1F
100
AcDbEntity
  8
0
  6
Continuous
 62
     7
370
    25
100
AcDbCircle
 10
166.0
 20
25.0
 30
0.0
 40
25.00000000000003
100
AcDbArc
 50
270.0
 51
353.8493601721
  0
LINE
  5
76
330
1F
100
AcDbEntity
  8
0
  6
Continuous
 62
     7
370
    25
100
AcDbLine
 10
-166.0
 20
0.0
 30
0.0
 11
166.0
 21
0.0
 31
0.0
  0
ARC
  5
77
330
1F
100
AcDbEntity
  8
0
  6
Continuous
 62
     7
370
    25
100
AcDbCircle
 10
-166.0
 20
25.0
 30
0.0
 40
25.00000000000005
100
AcDbArc
 50
186.1506398279
 51
270.0
  0
ARC
  5
78
330
1F
100
AcDbEntity
  8
0
  6
Continuous
 62
     7
370
    25
100
AcDbCircle
 10
-193.8388218142
 20
22.0
 30
0.0
 40
3.0
100
AcDbArc
 50
6.1506398279
 51
90.0
  0
LINE
  5
79
330
1F
100
AcDbEntity
  8
0
  6
Continuous
 62
     7
370
    25
100
AcDbLine
 10
-196.0
 20
25.0
 30
0.0
 11
-193.8388218142
 21
25.0
 31
0.0
  0
LINE
  5
7A
330
1F
100
AcDbEntity
  8
0
  6
Continuous
 62
     7
370
    25
100
AcDbLine
 10
-196.0
 20
23.0
 30
0.0
 11
-196.0
 21
25.0
 31
0.0
  0
LINE
  5
7B
330
1F
100
AcDbEntity
  8
0
  6
Continuous
 62
     7
370
    25
100
AcDbLine
 10
-199.0
 20
23.0
 30
0.0
 11
-196.0
 21
23.0
 31
0.0
  0
LINE
  5
7C
330
1F
100
AcDbEntity
  8
0
  6
Continuous
 62
     7
370
    25
100
AcDbLine
 10
-199.0
 20
23.0
 30
0.0
 11
-199.0
 21
17.0
 31
0.0
  0
LINE
  5
7D
330
1F
100
AcDbEntity
  8
0
  6
Continuous
 62
     7
370
    25
100
AcDbLine
 10
-199.0
 20
17.0
 30
0.0
 11
-196.0
 21
17.0
 31
0.0
  0
LINE
  5
7E
330
1F
100
AcDbEntity
  8
0
  6
Continuous
 62
     7
370
    25
100
AcDbLine
 10
-196.0
 20
-17.0
 30
0.0
 11
-196.0
 21
17.0
 31
0.0
  0
LINE
  5
7F
330
1F
100
AcDbEntity
  8
0
  6
Continuous
 62
     7
370
    25
100
AcDbLine
 10
-199.0
 20
-17.0
 30
0.0
 11
-196.0
 21
-17.0
 31
0.0
  0
LINE
  5
80
330
1F
100
AcDbEntity
  8
0
  6
Continuous
 62
     7
370
    25
100
AcDbLine
 10
-199.0
 20
-17.0
 30
0.0
 11
-199.0
 21
-23.0
 31
0.0
  0
LINE
  5
81
330
1F
100
AcDbEntity
  8
0
  6
Continuous
 62
     7
370
    25
100
AcDbLine
 10
-199.0
 20
-23.0
 30
0.0
 11
-196.0
 21
-23.0
 31
0.0
  0
LINE
  5
82
330
1F
100
AcDbEntity
  8
0
  6
Continuous
 62
     7
370
    25
100
AcDbLine
 10
-196.0
 20
-25.0
 30
0.0
 11
-196.0
 21
-23.0
 31
0.0
  0
LINE
  5
83
330
1F
100
AcDbEntity
  8
0
  6
Continuous
 62
     7
370
    25
100
AcDbLine
 10
-196.0
 20
-25.0
 30
0.0
 11
196.0
 21
-25.0
 31
0.0
  0
LINE
  5
84
330
1F
100
AcDbEntity
  8
0
  6
Continuous
 62
     7
370
    25
100
AcDbLine
 10
196.0
 20
-25.0
 30
0.0
 11
196.0
 21
-23.0
 31
0.0
  0
LINE
  5
85
330
1F
100
AcDbEntity
  8
0
  6
Continuous
 62
     7
370
    25
100
AcDbLine
 10
199.0
 20
-23.0
 30
0.0
 11
196.0
 21
-23.0
 31
0.0
  0
LINE
  5
86
330
1F
100
AcDbEntity
  8
0
  6
Continuous
 62
     7
370
    25
100
AcDbLine
 10
199.0
 20
-17.0
 30
0.0
 11
199.0
 21
-23.0
 31
0.0
  0
LINE
  5
87
330
1F
100
AcDbEntity
  8
0
  6
Continuous
 62
     7
370
    25
100
AcDbLine
 10
199.0
 20
-17.0
 30
0.0
 11
196.0
 21
-17.0
 31
0.0
  0
LINE
  5
88
330
1F
100
AcDbEntity
  8
0
  6
Continuous
 62
     7
370
    25
100
AcDbLine
 10
196.0
 20
-17.0
 30
0.0
 11
196.0
 21
17.0
 31
0.0
  0
LINE
  5
89
330
1F
100
AcDbEntity
  8
0
  6
Continuous
 62
     7
370
    25
100
AcDbLine
 10
199.0
 20
17.0
 30
0.0
 11
196.0
 21
17.0
 31
0.0
  0
LINE
  5
8A
330
1F
100
AcDbEntity
  8
0
  6
Continuous
 62
     7
370
    25
100
AcDbLine
 10
199.0
 20
23.0
 30
0.0
 11
199.0
 21
17.0
 31
0.0
  0
LINE
  5
8B
330
1F
100
AcDbEntity
  8
0
  6
Continuous
 62
     7
370
    25
100
AcDbLine
 10
199.0
 20
23.0
 30
0.0
 11
196.0
 21
23.0
 31
0.0
  0
LINE
  5
8C
330
1F
100
AcDbEntity
  8
0
  6
Continuous
 62
     7
370
    25
100
AcDbLine
 10
196.0
 20
23.0
 30
0.0
 11
196.0
 21
25.0
 31
0.0
  0
LINE
  5
8D
330
1F
100
AcDbEntity
  8
0
  6
Continuous
 62
     7
370
    25
100
AcDbLine
 10
4.5587939698
 20
-19.0544723618
 30
0.0
 11
4.5587939698
 21
-10.8172864322
 31
0.0
  0
LINE
  5
8E
330
1F
100
AcDbEntity
  8
0
  6
Continuous
 62
     7
370
    25
100
AcDbLine
 10
4.5587939698
 20
-10.8172864322
 30
0.0
 11
6.5463316583
 21
-10.8172864322
 31
0.0
  0
LINE
  5
8F
330
1F
100
AcDbEntity
  8
0
  6
Continuous
 62
     7
370
    25
100
AcDbLine
 10
6.5463316583
 20
-10.8172864322
 30
0.0
 11
6.5463316583
 21
-20.0
 31
0.0
  0
LINE
  5
90
330
1F
100
AcDbEntity
  8
0
  6
Continuous
 62
     7
370
    25
100
AcDbLine
 10
6.5463316583
 20
-20.0
 30
0.0
 11
4.7710552764
 21
-20.0
 31
0.0
  0
LINE
  5
91
330
1F
100
AcDbEntity
  8
0
  6
Continuous
 62
     7
370
    25
100
AcDbLine
 10
4.7710552764
 20
-20.0
 30
0.0
 11
4.5587939698
 21
-19.0544723618
 31
0.0
  0
LINE
  5
92
330
1F
100
AcDbEntity
  8
0
  6
Continuous
 62
     7
370
    25
100
AcDbLine
 10
11.2233165829
 20
-20.0
 30
0.0
 11
9.3515577889
 21
-20.0
 31
0.0
  0
LINE
  5
93
330
1F
100
AcDbEntity
  8
0
  6
Continuous
 62
     7
370
    25
100
AcDbLine
 10
9.3515577889
 20
-20.0
 30
0.0
 11
9.3515577889
 21
-7.3487437186
 31
0.0
  0
LINE
  5
94
330
1F
100
AcDbEntity
  8
0
  6
Continuous
 62
     7
370
    25
100
AcDbLine
 10
9.3515577889
 20
-7.3487437186
 30
0.0
 11
11.319798995
 21
-7.3487437186
 31
0.0
  0
LINE
  5
95
330
1F
100
AcDbEntity
  8
0
  6
Continuous
 62
     7
370
    25
100
AcDbLine
 10
11.319798995
 20
-7.3487437186
 30
0.0
 11
11.319798995
 21
-18.9097487437
 31
0.0
  0
SPLINE
  5
96
330
1F
100
AcDbEntity
  8
0
  6
Continuous
 62
     7
370
    25
100
AcDbSpline
210
0.0
220
0.0
230
1.0
 70
     8
 71
     3
 72
    11
 73
     7
 74
     0
 42
0.000000001
 43
0.00000001
 40
0.0
 40
0.0
 40
0.0
 40
0.0
 40
0.2232651924450392
 40
0.478060253646878
 40
0.741411912521512
 40
1.0
 40
1.0
 40
1.0
 40
1.0
 10
11.31979899497485
 20
-18.90974874371854
 30
0.0
 10
11.31391685423125
 20
-18.99100581108146
 30
0.0
 10
11.301321887389
 20
-19.1649951992557
 30
0.0
 10
11.27005590916034
 20
-19.43374237016038
 30
0.0
 10
11.24437400160579
 20
-19.71599389198838
 30
0.0
 10
11.23029288457937
 20
-19.90590906163789
 30
0.0
 10
11.22331658291455
 20
-19.99999999999995
 30
0.0
  0
SPLINE
  5
97
330
1F
100
AcDbEntity
  8
0
  6
Continuous
 62
     7
370
    25
100
AcDbSpline
210
0.0
220
0.0
230
1.0
 70
     8
 71
     3
 72
    11
 73
     7
 74
     0
 42
0.000000001
 43
0.00000001
 40
0.0
 40
0.0
 40
0.0
 40
0.0
 40
0.2366230743583187
 40
0.4832147440336034
 40
0.7396269826474534
 40
1.0
 40
1.0
 40
1.0
 40
1.0
 10
11.98793969849244
 20
-11.17427135678387
 30
0.0
 10
12.11821832810572
 20
-11.10853660984316
 30
0.0
 10
12.38426404166237
 20
-10.9742978040834
 30
0.0
 10
12.82175295216748
 20
-10.84207783279875
 30
0.0
 10
13.28430501212322
 20
-10.75121616915458
 30
0.0
 10
13.60276546928162
 20
-10.74061672330898
 30
0.0
 10
13.76321608040199
 20
-10.7352763819095
 30
0.0
  0
SPLINE
  5
98
330
1F
100
AcDbEntity
  8
0
  6
Continuous
 62
     7
370
    25
100
AcDbSpline
210
0.0
220
0.0
230
1.0
 70
     8
 71
     3
 72
    21
 73
    17
 74
     0
 42
0.000000001
 43
0.00000001
 40
0.0
 40
0.0
 40
0.0
 40
0.0
 40
0.1090689950435391
 40
0.2210954150989361
 40
0.2784576021319399
 40
0.335494637698511
 40
0.393479474239085
 40
0.4518363151764419
 40
0.5114386442684605
 40
0.5733890207964649
 40
0.6374557450868662
 40
0.7043117959648905
 40
0.773536836151895
 40
0.8457863311202122
 40
0.9210553064523476
 40
1.0
 40
1.0
 40
1.0
 40
1.0
 10
13.76321608040199
 20
-10.7352763819095
 30
0.0
 10
13.9446186168428
 20
-10.74237049365731
 30
0.0
 10
14.312342451452
 20
-10.75675107524253
 30
0.0
 10
14.76773841644889
 20
-10.85196731570063
 30
0.0
 10
15.12682351472995
 20
-10.96530941095257
 30
0.0
 10
15.39235947929044
 20
-11.07421907065926
 30
0.0
 10
15.64744468513939
 20
-11.209311257491
 30
0.0
 10
15.89245824501463
 20
-11.36979829133383
 30
0.0
 10
16.12752331516125
 20
-11.55507809858169
 30
0.0
 10
16.35579417917661
 20
-11.76349417382242
 30
0.0
 10
16.56609019395419
 20
-12.00607242747485
 30
0.0
 10
16.77255292537747
 20
-12.26709430482384
 30
0.0
 10
16.96285965863303
 20
-12.55737082123933
 30
0.0
 10
17.12421834071489
 20
-12.88000682614934
 30
0.0
 10
17.26991106457553
 20
-13.22782321707806
 30
0.0
 10
17.34039860069468
 20
-13.47451708410036
 30
0.0
 10
17.37648241206028
 20
-13.60080402010045
 30
0.0
  0
SPLINE
  5
99
330
1F
100
AcDbEntity
  8
0
  6
Continuous
 62
     7
370
    25
100
AcDbSpline
210
0.0
220
0.0
230
1.0
 70
     8
 71
     3
 72
    11
 73
     7
 74
     0
 42
0.000000001
 43
0.00000001
 40
0.0
 40
0.0
 40
0.0
 40
0.0
 40
0.2364545404980415
 40
0.4819212920610054
 40
0.7355699683734539
 40
1.0
 40
1.0
 40
1.0
 40
1.0
 10
17.37648241206028
 20
-13.60080402010045
 30
0.0
 10
17.40624308938919
 20
-13.72831498830879
 30
0.0
 10
17.46689874032636
 20
-13.98819686844305
 30
0.0
 10
17.52866615577544
 20
-14.39110497775891
 30
0.0
 10
17.56519997244204
 20
-14.81257716408361
 30
0.0
 10
17.56960893788885
 20
-15.09942204582546
 30
0.0
 10
17.57185929648239
 20
-15.24582914572859
 30
0.0
  0
SPLINE
  5
9A
330
1F
100
AcDbEntity
  8
0
  6
Continuous
 62
     7
370
    25
100
AcDbSpline
210
0.0
220
0.0
230
1.0
 70
     8
 71
     3
 72
    23
 73
    19
 74
     0
 42
0.000000001
 43
0.00000001
 40
0.0
 40
0.0
 40
0.0
 40
0.0
 40
0.0683131340211207
 40
0.1361503825975107
 40
0.2033916016774784
 40
0.2707050026569562
 40
0.3365539132105209
 40
0.400153931833669
 40
0.4620317250186755
 40
0.522481420957877
 40
0.5815399059407461
 40
0.6394534246826284
 40
0.6969950321144444
 40
0.754699645688663
 40
0.8128938321510331
 40
0.8723566584761901
 40
0.9344828192025375
 40
1.0
 40
1.0
 40
1.0
 40
1.0
 10
17.57185929648239
 20
-15.24582914572859
 30
0.0
 10
17.56893252682724
 20
-15.39949002812167
 30
0.0
 10
17.56309937608643
 20
-15.70574135486684
 30
0.0
 10
17.52060905592684
 20
-16.16158610117338
 30
0.0
 10
17.45395480490672
 20
-16.61216119398894
 30
0.0
 10
17.35733442046704
 20
-17.05267250229901
 30
0.0
 10
17.23779804972867
 20
-17.47929765140956
 30
0.0
 10
17.08109499312543
 20
-17.88063029460472
 30
0.0
 10
16.9016511695333
 20
-18.25891857064934
 30
0.0
 10
16.6906465077105
 20
-18.60865913383081
 30
0.0
 10
16.45636065932109
 20
-18.93276584119894
 30
0.0
 10
16.18489117050877
 20
-19.21754390629326
 30
0.0
 10
15.89042031246604
 20
-19.47339386632563
 30
0.0
 10
15.56608235803588
 20
-19.69211907947135
 30
0.0
 10
15.2113881789423
 20
-19.86760189557368
 30
0.0
 10
14.82587747535331
 20
-19.9935185796387
 30
0.0
 10
14.41024022425184
 20
-20.06963159689154
 30
0.0
 10
14.12294248525921
 20
-20.0778114626878
 30
0.0
 10
13.97547738693465
 20
-20.0820100502512
 30
0.0
  0
SPLINE
  5
9B
330
1F
100
AcDbEntity
  8
0
  6
Continuous
 62
     7
370
    25
100
AcDbSpline
210
0.0
220
0.0
230
1.0
 70
     8
 71
     3
 72
    15
 73
    11
 74
     0
 42
0.000000001
 43
0.00000001
 40
0.0
 40
0.0
 40
0.0
 40
0.0
 40
0.136317212007339
 40
0.2708715409174878
 40
0.4026447429101419
 40
0.5326404008729769
 40
0.6587104133412335
 40
0.7784276999432552
 40
0.8920761185160009
 40
1.0
 40
1.0
 40
1.0
 40
1.0
 10
13.97547738693465
 20
-20.0820100502512
 30
0.0
 10
13.88131955497273
 20
-20.08115726675347
 30
0.0
 10
13.69422156010176
 20
-20.07946272813506
 30
0.0
 10
13.41764473333236
 20
-20.04948838734711
 30
0.0
 10
13.14625565882814
 20
-20.01392058300711
 30
0.0
 10
12.88471172734875
 20
-19.95506755263139
 30
0.0
 10
12.63556649176176
 20
-19.88259533932365
 30
0.0
 10
12.40062343457659
 20
-19.80230783843683
 30
0.0
 10
12.18495126905315
 20
-19.70626104133098
 30
0.0
 10
12.05246928816097
 20
-19.62966860631624
 30
0.0
 10
11.98793969849244
 20
-19.59236180904517
 30
0.0
  0
LINE
  5
9C
330
1F
100
AcDbEntity
  8
0
  6
Continuous
 62
     7
370
    25
100
AcDbLine
 10
11.9879396985
 20
-19.592361809
 30
0.0
 11
11.9879396985
 21
-17.8990954774
 31
0.0
  0
SPLINE
  5
9D
330
1F
100
AcDbEntity
  8
0
  6
Continuous
 62
     7
370
    25
100
AcDbSpline
210
0.0
220
0.0
230
1.0
 70
     8
 71
     3
 72
    13
 73
     9
 74
     0
 42
0.000000001
 43
0.00000001
 40
0.0
 40
0.0
 40
0.0
 40
0.0
 40
0.2430435733972821
 40
0.4890746434252326
 40
0.613542919296612
 40
0.7404499890857629
 40
0.8671052089148752
 40
0.9999999999999999
 40
0.9999999999999999
 40
0.9999999999999999
 40
0.9999999999999999
 10
11.98793969849244
 20
-17.89909547738688
 30
0.0
 10
12.0732977795431
 20
-17.98708194550399
 30
0.0
 10
12.24506316494199
 20
-18.16413641322397
 30
0.0
 10
12.50754326547041
 20
-18.33193148020681
 30
0.0
 10
12.73517491747384
 20
-18.43690390408023
 30
0.0
 10
12.91810984632768
 20
-18.49074687430089
 30
0.0
 10
13.10976640633081
 20
-18.52665746039133
 30
0.0
 10
13.24043285244709
 20
-18.53116128731659
 30
0.0
 10
13.30733668341707
 20
-18.53346733668337
 30
0.0
  0
SPLINE
  5
9E
330
1F
100
AcDbEntity
  8
0
  6
Continuous
 62
     7
370
    25
100
AcDbSpline
210
0.0
220
0.0
230
1.0
 70
     8
 71
     3
 72
    23
 73
    19
 74
     0
 42
0.000000001
 43
0.00000001
 40
0.0
 40
0.0
 40
0.0
 40
0.0
 40
0.0567682601009841
 40
0.1116587796171905
 40
0.1657920693545947
 40
0.2205750540100876
 40
0.2761417951813517
 40
0.3321401918976031
 40
0.3888247123084041
 40
0.4476644394745503
 40
0.5083352941935905
 40
0.5713060209331482
 40
0.6372177015619217
 40
0.7059970163076859
 40
0.777490158436556
 40
0.8495719943403148
 40
0.9238408280425005
 40
1.0
 40
1.0
 40
1.0
 40
1.0
 10
13.30733668341707
 20
-18.53346733668337
 30
0.0
 10
13.3871580485394
 20
-18.53096329560136
 30
0.0
 10
13.5441605038037
 20
-18.52603804034726
 30
0.0
 10
13.77342983888146
 20
-18.47874250526068
 30
0.0
 10
13.99039497674539
 20
-18.40023894168652
 30
0.0
 10
14.19604875733495
 20
-18.29347044711966
 30
0.0
 10
14.38870666616293
 20
-18.16023074874234
 30
0.0
 10
14.56727982618495
 20
-18.00485577133011
 30
0.0
 10
14.73372384581212
 20
-17.82996887993715
 30
0.0
 10
14.88194551199804
 20
-17.63118257050804
 30
0.0
 10
15.01770957513533
 20
-17.41338793944955
 30
0.0
 10
15.13749996990132
 20
-17.17530048961927
 30
0.0
 10
15.24715599396002
 20
-16.919929299734
 30
0.0
 10
15.33752930143174
 20
-16.64445025494664
 30
0.0
 10
15.41251987142561
 20
-16.35543826531668
 30
0.0
 10
15.46453908717647
 20
-16.05367674795685
 30
0.0
 10
15.50068567149314
 20
-15.74278925109136
 30
0.0
 10
15.50336640682855
 20
-15.53136311076372
 30
0.0
 10
15.50472361809043
 20
-15.42432160804015
 30
0.0
  0
SPLINE
  5
9F
330
1F
100
AcDbEntity
  8
0
  6
Continuous
 62
     7
370
    25
100
AcDbSpline
210
0.0
220
0.0
230
1.0
 70
     8
 71
     3
 72
    23
 73
    19
 74
     0
 42
0.000000001
 43
0.00000001
 40
0.0
 40
0.0
 40
0.0
 40
0.0
 40
0.0744613884168535
 40
0.1469239274813413
 40
0.2182673659244665
 40
0.2888138524512213
 40
0.357634097578509
 40
0.4237706543416651
 40
0.4880677697639473
 40
0.5498483578581457
 40
0.6095569534024304
 40
0.6676856468458943
 40
0.7235749560775077
 40
0.779566801148073
 40
0.8341746737671172
 40
0.8887194870417652
 40
0.9431801076106756
 40
1.0
 40
1.0
 40
1.0
 40
1.0
 10
15.50472361809043
 20
-15.42432160804015
 30
0.0
 10
15.50293230611735
 20
-15.3197292052868
 30
0.0
 10
15.49939776833842
 20
-15.11335208925447
 30
0.0
 10
15.46942486923528
 20
-14.80797317283246
 30
0.0
 10
15.42155290131051
 20
-14.51057679292103
 30
0.0
 10
15.35402096970258
 20
-14.22222610795477
 30
0.0
 10
15.27022625170464
 20
-13.94583327563038
 30
0.0
 10
15.17079806205476
 20
-13.68404982829459
 30
0.0
 10
15.05857566202899
 20
-13.43828410538163
 30
0.0
 10
14.9306263952152
 20
-13.21046811460941
 30
0.0
 10
14.78765666555747
 20
-13.00235285492197
 30
0.0
 10
14.63282998988196
 20
-12.81306911215752
 30
0.0
 10
14.45779178762109
 20
-12.64988228096076
 30
0.0
 10
14.27194759133908
 20
-12.50727079681154
 30
0.0
 10
14.06974151043984
 20
-12.39183825388942
 30
0.0
 10
13.85426678936499
 20
-12.30976633684536
 30
0.0
 10
13.62558919883406
 20
-12.25970785264786
 30
0.0
 10
13.46919943492001
 20
-12.253314632866
 30
0.0
 10
13.38934673366832
 20
-12.25005025125623
 30
0.0
  0
SPLINE
  5
A0
330
1F
100
AcDbEntity
  8
0
  6
Continuous
 62
     7
370
    25
100
AcDbSpline
210
0.0
220
0.0
230
1.0
 70
     8
 71
     3
 72
    15
 73
    11
 74
     0
 42
0.000000001
 43
0.00000001
 40
0.0
 40
0.0
 40
0.0
 40
0.0
 40
0.1293535066786917
 40
0.2543401338399444
 40
0.3775531660952998
 40
0.4980990139380935
 40
0.6198096730527736
 40
0.7424258061689476
 40
0.869214636158081
 40
1.0
 40
1.0
 40
1.0
 40
1.0
 10
13.38934673366832
 20
-12.25005025125623
 30
0.0
 10
13.32002094119422
 20
-12.2513411041883
 30
0.0
 10
13.18370974415629
 20
-12.25387923180418
 30
0.0
 10
12.98446384567104
 20
-12.29079360482824
 30
0.0
 10
12.79333866340959
 20
-12.34149545602845
 30
0.0
 10
12.61336855640824
 20
-12.41915372960803
 30
0.0
 10
12.44058571049829
 20
-12.51128608321819
 30
0.0
 10
12.28201355558459
 20
-12.63143415050849
 30
0.0
 10
12.12477732138613
 20
-12.76128441275457
 30
0.0
 10
12.0340216293831
 20
-12.86535054237319
 30
0.0
 10
11.98793969849244
 20
-12.91819095477382
 30
0.0
  0
LINE
  5
A1
330
1F
100
AcDbEntity
  8
0
  6
Continuous
 62
     7
370
    25
100
AcDbLine
 10
11.9879396985
 20
-12.9181909548
 30
0.0
 11
11.9879396985
 21
-11.1742713568
 31
0.0
  0
LINE
  5
A2
330
1F
100
AcDbEntity
  8
0
  6
Continuous
 62
     7
370
    25
100
AcDbLine
 10
23.9348743719
 20
-12.1511557789
 30
0.0
 11
22.4683417085
 21
-12.1511557789
 31
0.0
  0
LINE
  5
A3
330
1F
100
AcDbEntity
  8
0
  6
Continuous
 62
     7
370
    25
100
AcDbLine
 10
22.4683417085
 20
-12.1511557789
 30
0.0
 11
22.4683417085
 21
-17.2164824121
 31
0.0
  0
SPLINE
  5
A4
330
1F
100
AcDbEntity
  8
0
  6
Continuous
 62
     7
370
    25
100
AcDbSpline
210
0.0
220
0.0
230
1.0
 70
     8
 71
     3
 72
    19
 73
    15
 74
     0
 42
0.000000001
 43
0.00000001
 40
0.0
 40
0.0
 40
0.0
 40
0.0
 40
0.0908524964108786
 40
0.1720829958009101
 40
0.2436618013726397
 40
0.3075180424996645
 40
0.3654924563996039
 40
0.4213118987173265
 40
0.475408260645738
 40
0.5295503258631536
 40
0.6394056811556093
 40
0.7523817191259454
 40
0.873017253839285
 40
1.0
 40
1.0
 40
1.0
 40
1.0
 10
22.46834170854261
 20
-17.21648241206025
 30
0.0
 10
22.47023525806605
 20
-17.30337982634567
 30
0.0
 10
22.47382181526111
 20
-17.46797153233426
 30
0.0
 10
22.49905503144164
 20
-17.70006220025299
 30
0.0
 10
22.54391181538131
 20
-17.90286185418277
 30
0.0
 10
22.60870444925179
 20
-18.077009748766
 30
0.0
 10
22.69370847443815
 20
-18.22472896237359
 30
0.0
 10
22.78966176045861
 20
-18.35411673308107
 30
0.0
 10
22.90265819494473
 20
-18.46387254624745
 30
0.0
 10
23.07140859810692
 20
-18.58770505318881
 30
0.0
 10
23.31750479148751
 20
-18.69371746390845
 30
0.0
 10
23.63951897292483
 20
-18.76488213175079
 30
0.0
 10
23.98438179690511
 20
-18.78733555365543
 30
0.0
 10
24.2211129273145
 20
-18.7917209470485
 30
0.0
 10
24.34251256281397
 20
-18.79396984924618
 30
0.0
  0
LINE
  5
A5
330
1F
100
AcDbEntity
  8
0
  6
Continuous
 62
     7
370
    25
100
AcDbLine
 10
24.3425125628
 20
-18.7939698492
 30
0.0
 11
24.3425125628
 21
-20.0
 31
0.0
  0
SPLINE
  5
A6
330
1F
100
AcDbEntity
  8
0
  6
Continuous
 62
     7
370
    25
100
AcDbSpline
210
0.0
220
0.0
230
1.0
 70
     8
 71
     3
 72
     9
 73
     5
 74
     0
 42
0.000000001
 43
0.00000001
 40
0.0
 40
0.0
 40
0.0
 40
0.0
 40
0.5006373496653053
 40
1.0
 40
1.0
 40
1.0
 40
1.0
 10
24.34251256281397
 20
-19.99999999999995
 30
0.0
 10
24.27180400397222
 20
-20.00924211984742
 30
0.0
 10
24.13056692110373
 20
-20.02770282769042
 30
0.0
 10
23.98878869866525
 20
-20.04140090022484
 30
0.0
 10
23.91798994974864
 20
-20.0482412060301
 30
0.0
  0
SPLINE
  5
A7
330
1F
100
AcDbEntity
  8
0
  6
Continuous
 62
     7
370
    25
100
AcDbSpline
210
0.0
220
0.0
230
1.0
 70
     8
 71
     3
 72
    11
 73
     7
 74
     0
 42
0.000000001
 43
0.00000001
 40
0.0
 40
0.0
 40
0.0
 40
0.0
 40
0.2133501179490775
 40
0.4653889597792182
 40
0.7327133725194055
 40
0.9999999999999999
 40
0.9999999999999999
 40
0.9999999999999999
 40
0.9999999999999999
 10
23.91798994974864
 20
-20.04824120603011
 30
0.0
 10
23.85207748839877
 20
-20.05329041590938
 30
0.0
 10
23.70830005757761
 20
-20.06430445497347
 30
0.0
 10
23.48154906466198
 20
-20.07658635816664
 30
0.0
 10
23.23779584982404
 20
-20.07976308860575
 30
0.0
 10
23.07215920342909
 20
-20.08126109832818
 30
0.0
 10
22.98934673366824
 20
-20.0820100502512
 30
0.0
  0
SPLINE
  5
A8
330
1F
100
AcDbEntity
  8
0
  6
Continuous
 62
     7
370
    25
100
AcDbSpline
210
0.0
220
0.0
230
1.0
 70
     8
 71
     3
 72
    11
 73
     7
 74
     0
 42
0.000000001
 43
0.00000001
 40
0.0
 40
0.0
 40
0.0
 40
0.0
 40
0.2647829689562174
 40
0.5350176461018501
 40
0.7852697983362453
 40
1.0
 40
1.0
 40
1.0
 40
1.0
 10
22.98934673366824
 20
-20.0820100502512
 30
0.0
 10
22.90732779947038
 20
-20.0808123160317
 30
0.0
 10
22.74160121485166
 20
-20.07839218702831
 30
0.0
 10
22.49851645947917
 20
-20.06746379684611
 30
0.0
 10
22.27161520136383
 20
-20.04643687812576
 30
0.0
 10
22.12898337131046
 20
-20.02622043449969
 30
0.0
 10
22.06311557788934
 20
-20.0168844221105
 30
0.0
  0
SPLINE
  5
A9
330
1F
100
AcDbEntity
  8
0
  6
Continuous
 62
     7
370
    25
100
AcDbSpline
210
0.0
220
0.0
230
1.0
 70
     8
 71
     3
 72
    21
 73
    17
 74
     0
 42
0.000000001
 43
0.00000001
 40
0.0
 40
0.0
 40
0.0
 40
0.0
 40
0.0755473856582493
 40
0.145275422738854
 40
0.2134214968187232
 40
0.2808328835958402
 40
0.3490417514234837
 40
0.4159330455676811
 40
0.4834813355176337
 40
0.551052971459329
 40
0.6832906117638404
 40
0.8089977550823082
 40
0.866920507926468
 40
0.9180496229462698
 40
0.9624011897777083
 40
1.0
 40
1.0
 40
1.0
 40
1.0
 10
22.06311557788934
 20
-20.0168844221105
 30
0.0
 10
21.97451945060879
 20
-19.9974609225144
 30
0.0
 10
21.80415167769961
 20
-19.96011009838853
 30
0.0
 10
21.56947913164027
 20
-19.85489563301109
 30
0.0
 10
21.36305425390213
 20
-19.7183240765245
 30
0.0
 10
21.19459898925366
 20
-19.53944630345966
 30
0.0
 10
21.05340930471355
 20
-19.34195554119297
 30
0.0
 10
20.92615113749507
 20
-19.135062094485
 30
0.0
 10
20.81679509583651
 20
-18.9187284334024
 30
0.0
 10
20.70450065148137
 20
-18.61841340076125
 30
0.0
 10
20.60209378416848
 20
-18.2413799844946
 30
0.0
 10
20.54281073729856
 20
-17.86687409799793
 30
0.0
 10
20.52222416662059
 20
-17.5864130955712
 30
0.0
 10
20.50967250917891
 20
-17.40311853438933
 30
0.0
 10
20.50184976147745
 20
-17.24388700897313
 30
0.0
 10
20.50065065310196
 20
-17.14573543325561
 30
0.0
 10
20.50010050251246
 20
-17.10070351758789
 30
0.0
  0
LINE
  5
AA
330
1F
100
AcDbEntity
  8
0
  6
Continuous
 62
     7
370
    25
100
AcDbLine
 10
20.5001005025
 20
-17.1007035176
 30
0.0
 11
20.5001005025
 21
-12.1511557789
 31
0.0
  0
LINE
  5
AB
330
1F
100
AcDbEntity
  8
0
  6
Continuous
 62
     7
370
    25
100
AcDbLine
 10
20.5001005025
 20
-12.1511557789
 30
0.0
 11
19.2940703518
 21
-12.1511557789
 31
0.0
  0
LINE
  5
AC
330
1F
100
AcDbEntity
  8
0
  6
Continuous
 62
     7
370
    25
100
AcDbLine
 10
19.2940703518
 20
-12.1511557789
 30
0.0
 11
19.2940703518
 21
-10.8172864322
 31
0.0
  0
LINE
  5
AD
330
1F
100
AcDbEntity
  8
0
  6
Continuous
 62
     7
370
    25
100
AcDbLine
 10
19.2940703518
 20
-10.8172864322
 30
0.0
 11
20.5001005025
 21
-10.8172864322
 31
0.0
  0
LINE
  5
AE
330
1F
100
AcDbEntity
  8
0
  6
Continuous
 62
     7
370
    25
100
AcDbLine
 10
20.5001005025
 20
-10.8172864322
 30
0.0
 11
20.5001005025
 21
-8.2122613065
 31
0.0
  0
LINE
  5
AF
330
1F
100
AcDbEntity
  8
0
  6
Continuous
 62
     7
370
    25
100
AcDbLine
 10
20.5001005025
 20
-8.2122613065
 30
0.0
 11
22.4683417085
 21
-8.2122613065
 31
0.0
  0
LINE
  5
B0
330
1F
100
AcDbEntity
  8
0
  6
Continuous
 62
     7
370
    25
100
AcDbLine
 10
22.4683417085
 20
-8.2122613065
 30
0.0
 11
22.4683417085
 21
-10.8172864322
 31
0.0
  0
LINE
  5
B1
330
1F
100
AcDbEntity
  8
0
  6
Continuous
 62
     7
370
    25
100
AcDbLine
 10
22.4683417085
 20
-10.8172864322
 30
0.0
 11
23.9348743719
 21
-10.8172864322
 31
0.0
  0
LINE
  5
B2
330
1F
100
AcDbEntity
  8
0
  6
Continuous
 62
     7
370
    25
100
AcDbLine
 10
23.9348743719
 20
-10.8172864322
 30
0.0
 11
23.9348743719
 21
-12.1511557789
 31
0.0
  0
SPLINE
  5
B3
330
1F
100
AcDbEntity
  8
0
  6
Continuous
 62
     7
370
    25
100
AcDbSpline
210
0.0
220
0.0
230
1.0
 70
     8
 71
     3
 72
    15
 73
    11
 74
     0
 42
0.000000001
 43
0.00000001
 40
0.0
 40
0.0
 40
0.0
 40
0.0
 40
0.1283501445254946
 40
0.2508882917599991
 40
0.3734972498338326
 40
0.4996855100177324
 40
0.6262309334202708
 40
0.7482224604664576
 40
0.8716498554745054
 40
1.0
 40
1.0
 40
1.0
 40
1.0
 10
27.45407035175869
 20
-20.06512562814065
 30
0.0
 10
27.37554547556214
 20
-20.06130506303893
 30
0.0
 10
27.22205151478436
 20
-20.05383693703507
 30
0.0
 10
27.00267345771301
 20
-19.98443299526488
 30
0.0
 10
26.80100718402622
 20
-19.8781180439105
 30
0.0
 10
26.62628100791025
 20
-19.72728378860401
 30
0.0
 10
26.48223731394244
 20
-19.54806464597442
 30
0.0
 10
26.37589805528227
 20
-19.34604577336645
 30
0.0
 10
26.31100035636706
 20
-19.12513449337435
 30
0.0
 10
26.30284888945384
 20
-18.97129036465973
 30
0.0
 10
26.29869346733658
 20
-18.89286432160799
 30
0.0
  0
SPLINE
  5
B4
330
1F
100
AcDbEntity
  8
0
  6
Continuous
 62
     7
370
    25
100
AcDbSpline
210
0.0
220
0.0
230
1.0
 70
     8
 71
     3
 72
    15
 73
    11
 74
     0
 42
0.000000001
 43
0.00000001
 40
0.0
 40
0.0
 40
0.0
 40
0.0
 40
0.1290782142375321
 40
0.2532057545260764
 40
0.3747173826869859
 40
0.4999222619310171
 40
0.6251271411750511
 40
0.7484316019234449
 40
0.8709217857624698
 40
1.0
 40
1.0
 40
1.0
 40
1.0
 10
26.29869346733658
 20
-18.89286432160799
 30
0.0
 10
26.30286976913004
 20
-18.81444756271798
 30
0.0
 10
26.31106219457525
 20
-18.66062164624152
 30
0.0
 10
26.3754614670237
 20
-18.44026743534187
 30
0.0
 10
26.48179007778343
 20
-18.24040013893717
 30
0.0
 10
26.62635548078509
 20
-18.06506876205224
 30
0.0
 10
26.80267367849374
 20
-17.92042981191592
 30
0.0
 10
27.00163561276299
 20
-17.81174029995091
 30
0.0
 10
27.22300630519521
 20
-17.75037315736858
 30
0.0
 10
27.37571595810314
 20
-17.74185701699177
 30
0.0
 10
27.45407035175869
 20
-17.73748743718588
 30
0.0
  0
SPLINE
  5
B5
330
1F
100
AcDbEntity
  8
0
  6
Continuous
 62
     7
370
    25
100
AcDbSpline
210
0.0
220
0.0
230
1.0
 70
     8
 71
     3
 72
    15
 73
    11
 74
     0
 42
0.000000001
 43
0.00000001
 40
0.0
 40
0.0
 40
0.0
 40
0.0
 40
0.1299007042959412
 40
0.2535552255893044
 40
0.3770193843057908
 40
0.5044487875765395
 40
0.6318781908472868
 40
0.7541868303354099
 40
0.8740420695955358
 40
0.9999999999999999
 40
0.9999999999999999
 40
0.9999999999999999
 40
0.9999999999999999
 10
27.45407035175869
 20
-17.73748743718588
 30
0.0
 10
27.53326794184812
 20
-17.74166487881585
 30
0.0
 10
27.68785496221953
 20
-17.74981889276531
 30
0.0
 10
27.91085561665018
 20
-17.81392822551956
 30
0.0
 10
28.11162849833848
 20
-17.92573483190858
 30
0.0
 10
28.28841934215176
 20
-18.07541369903999
 30
0.0
 10
28.43743845296717
 20
-18.25178460288213
 30
0.0
 10
28.5488207298761
 20
-18.44913128736637
 30
0.0
 10
28.61416853965343
 20
-18.66612064722651
 30
0.0
 10
28.6222107321338
 20
-18.81604241707563
 30
0.0
 10
28.62633165829136
 20
-18.89286432160799
 30
0.0
  0
SPLINE
  5
B6
330
1F
100
AcDbEntity
  8
0
  6
Continuous
 62
     7
370
    25
100
AcDbSpline
210
0.0
220
0.0
230
1.0
 70
     8
 71
     3
 72
    23
 73
    19
 74
     0
 42
0.000000001
 43
0.00000001
 40
0.0
 40
0.0
 40
0.0
 40
0.0
 40
0.0156788237286121
 40
0.0388962799927673
 40
0.0696025217588679
 40
0.108512517340863
 40
0.1530106112886672
 40
0.2035567528415719
 40
0.2589457371662721
 40
0.3201915239520543
 40
0.3861780761367002
 40
0.4576090895381665
 40
0.5335247727756363
 40
0.6147830103572309
 40
0.701010478208897
 40
0.793531888232226
 40
0.8928339650046229
 40
1.0
 40
1.0
 40
1.0
 40
1.0
 10
28.62633165829136
 20
-18.89286432160799
 30
0.0
 10
28.62658056581665
 20
-18.91136442779893
 30
0.0
 10
28.62719805963911
 20
-18.95725979104518
 30
0.0
 10
28.62007936297354
 20
-19.03913419919983
 30
0.0
 10
28.61673469254709
 20
-19.14858390697327
 30
0.0
 10
28.60970095213629
 20
-19.28297730761623
 30
0.0
 10
28.59703009909098
 20
-19.44063117725969
 30
0.0
 10
28.56382910569589
 20
-19.61517205612092
 30
0.0
 10
28.518060144025
 20
-19.80701718415812
 30
0.0
 10
28.45504908688171
 20
-20.0131277859458
 30
0.0
 10
28.37565768566667
 20
-20.23369779986439
 30
0.0
 10
28.27454113761269
 20
-20.46436592864582
 30
0.0
 10
28.14970870318512
 20
-20.70345708840119
 30
0.0
 10
28.00703663445842
 20
-20.95281891866077
 30
0.0
 10
27.83143407379032
 20
-21.20468127679528
 30
0.0
 10
27.62411916054141
 20
-21.45929882308839
 30
0.0
 10
27.37540962421394
 20
-21.71003317792637
 30
0.0
 10
27.19218636226011
 20
-21.87048650646118
 30
0.0
 10
27.09708542713558
 20
-21.95376884422105
 30
0.0
  0
LINE
  5
B7
330
1F
100
AcDbEntity
  8
0
  6
Continuous
 62
     7
370
    25
100
AcDbLine
 10
27.0970854271
 20
-21.9537688442
 30
0.0
 11
26.3300502513
 21
-21.9537688442
 31
0.0
  0
SPLINE
  5
B8
330
1F
100
AcDbEntity
  8
0
  6
Continuous
 62
     7
370
    25
100
AcDbSpline
210
0.0
220
0.0
230
1.0
 70
     8
 71
     3
 72
    11
 73
     7
 74
     0
 42
0.000000001
 43
0.00000001
 40
0.0
 40
0.0
 40
0.0
 40
0.0
 40
0.2798922249797839
 40
0.5442691454308052
 40
0.7877043840521474
 40
1.0
 40
1.0
 40
1.0
 40
1.0
 10
26.33005025125618
 20
-21.95376884422105
 30
0.0
 10
26.43205523053387
 20
-21.85029443084247
 30
0.0
 10
26.6304107329247
 20
-21.64908151559417
 30
0.0
 10
26.8664168239757
 20
-21.31426233177107
 30
0.0
 10
27.0573110102032
 20
-20.99327340787639
 30
0.0
 10
27.16178470445824
 20
-20.78133943573692
 30
0.0
 10
27.21045226130644
 20
-20.68261306532658
 30
0.0
  0
SPLINE
  5
B9
330
1F
100
AcDbEntity
  8
0
  6
Continuous
 62
     7
370
    25
100
AcDbSpline
210
0.0
220
0.0
230
1.0
 70
     8
 71
     3
 72
     9
 73
     5
 74
     0
 42
0.000000001
 43
0.00000001
 40
0.0
 40
0.0
 40
0.0
 40
0.0
 40
0.5073244642009767
 40
1.0
 40
1.0
 40
1.0
 40
1.0
 10
27.21045226130643
 20
-20.68261306532658
 30
0.0
 10
27.2574479465346
 20
-20.58047469944333
 30
0.0
 10
27.35008232264772
 20
-20.37914719980436
 30
0.0
 10
27.41974785049823
 20
-20.16877222940223
 30
0.0
 10
27.45407035175869
 20
-20.06512562814065
 30
0.0
  0
LINE
  5
BA
330
1F
100
AcDbEntity
  8
0
  6
Continuous
 62
     7
370
    25
100
AcDbLine
 10
40.9905527638
 20
-7.7394974874
 30
0.0
 11
40.3561809045
 21
-8.911758794
 31
0.0
  0
SPLINE
  5
BB
330
1F
100
AcDbEntity
  8
0
  6
Continuous
 62
     7
370
    25
100
AcDbSpline
210
0.0
220
0.0
230
1.0
 70
     8
 71
     3
 72
    13
 73
     9
 74
     0
 42
0.000000001
 43
0.00000001
 40
0.0
 40
0.0
 40
0.0
 40
0.0
 40
0.2643244983930312
 40
0.5596291093939366
 40
0.7042805227602448
 40
0.8252148087357294
 40
0.9244448596604753
 40
1.0
 40
1.0
 40
1.0
 40
1.0
 10
40.35618090452254
 20
-8.911758793969799
 30
0.0
 10
40.27474891115617
 20
-8.87222197360977
 30
0.0
 10
40.10234070003368
 20
-8.788514425876336
 30
0.0
 10
39.86197918353428
 20
-8.753571412467421
 30
0.0
 10
39.6719470966941
 20
-8.737214584692381
 30
0.0
 10
39.54838282175213
 20
-8.7226650102456
 30
0.0
 10
39.44765628931889
 20
-8.718967425240606
 30
0.0
 10
39.38813959547439
 20
-8.717162243262901
 30
0.0
 10
39.36241206030143
 20
-8.716381909547687
 30
0.0
  0
SPLINE
  5
BC
330
1F
100
AcDbEntity
  8
0
  6
Continuous
 62
     7
370
    25
100
AcDbSpline
210
0.0
220
0.0
230
1.0
 70
     8
 71
     3
 72
    19
 73
    15
 74
     0
 42
0.000000001
 43
0.00000001
 40
0.0
 40
0.0
 40
0.0
 40
0.0
 40
0.0584188717867618
 40
0.1126146505718135
 40
0.1645896747233361
 40
0.2153664694765073
 40
0.2669373754667286
 40
0.319680847928075
 40
0.3754788172854382
 40
0.4349015114845419
 40
0.560502013748687
 40
0.6986746805383535
 40
0.8453314994122069
 40
1.0
 40
1.0
 40
1.0
 40
1.0
 10
39.36241206030143
 20
-8.716381909547687
 30
0.0
 10
39.30994117810918
 20
-8.717793123433163
 30
0.0
 10
39.2087925272957
 20
-8.720513534727221
 30
0.0
 10
39.0643754590559
 20
-8.753896955551362
 30
0.0
 10
38.93171126464856
 20
-8.802974339166388
 30
0.0
 10
38.81515924543748
 20
-8.878767619742197
 30
0.0
 10
38.70743052802258
 20
-8.96740158884832
 30
0.0
 10
38.61449364237312
 20
-9.077222442769102
 30
0.0
 10
38.5223652796356
 20
-9.19669862549789
 30
0.0
 10
38.42134079541429
 20
-9.388155622243707
 30
0.0
 10
38.31202438667158
 20
-9.65760489906681
 30
0.0
 10
38.234618098965
 20
-10.01848747189213
 30
0.0
 10
38.18179838189923
 20
-10.40906474315223
 30
0.0
 10
38.16659683419127
 20
-10.67882175617124
 30
0.0
 10
38.15879396984917
 20
-10.81728643216075
 30
0.0
  0
LINE
  5
BD
330
1F
100
AcDbEntity
  8
0
  6
Continuous
 62
     7
370
    25
100
AcDbLine
 10
38.1587939698
 20
-10.8172864322
 30
0.0
 11
39.5746733668
 21
-10.8172864322
 31
0.0
  0
LINE
  5
BE
330
1F
100
AcDbEntity
  8
0
  6
Continuous
 62
     7
370
    25
100
AcDbLine
 10
39.5746733668
 20
-10.8172864322
 30
0.0
 11
39.5746733668
 21
-12.1511557789
 31
0.0
  0
LINE
  5
BF
330
1F
100
AcDbEntity
  8
0
  6
Continuous
 62
     7
370
    25
100
AcDbLine
 10
39.5746733668
 20
-12.1511557789
 30
0.0
 11
38.1250251256
 21
-12.1511557789
 31
0.0
  0
LINE
  5
C0
330
1F
100
AcDbEntity
  8
0
  6
Continuous
 62
     7
370
    25
100
AcDbLine
 10
38.1250251256
 20
-12.1511557789
 30
0.0
 11
38.1250251256
 21
-20.0
 31
0.0
  0
LINE
  5
C1
330
1F
100
AcDbEntity
  8
0
  6
Continuous
 62
     7
370
    25
100
AcDbLine
 10
38.1250251256
 20
-20.0
 30
0.0
 11
36.1398994975
 21
-20.0
 31
0.0
  0
LINE
  5
C2
330
1F
100
AcDbEntity
  8
0
  6
Continuous
 62
     7
370
    25
100
AcDbLine
 10
36.1398994975
 20
-20.0
 30
0.0
 11
36.1398994975
 21
-12.1511557789
 31
0.0
  0
LINE
  5
C3
330
1F
100
AcDbEntity
  8
0
  6
Continuous
 62
     7
370
    25
100
AcDbLine
 10
36.1398994975
 20
-12.1511557789
 30
0.0
 11
34.9338693467
 21
-12.1511557789
 31
0.0
  0
LINE
  5
C4
330
1F
100
AcDbEntity
  8
0
  6
Continuous
 62
     7
370
    25
100
AcDbLine
 10
34.9338693467
 20
-12.1511557789
 30
0.0
 11
34.9338693467
 21
-10.8172864322
 31
0.0
  0
LINE
  5
C5
330
1F
100
AcDbEntity
  8
0
  6
Continuous
 62
     7
370
    25
100
AcDbLine
 10
34.9338693467
 20
-10.8172864322
 30
0.0
 11
36.1712562814
 21
-10.8172864322
 31
0.0
  0
SPLINE
  5
C6
330
1F
100
AcDbEntity
  8
0
  6
Continuous
 62
     7
370
    25
100
AcDbSpline
210
0.0
220
0.0
230
1.0
 70
     8
 71
     3
 72
    21
 73
    17
 74
     0
 42
0.000000001
 43
0.00000001
 40
0.0
 40
0.0
 40
0.0
 40
0.0
 40
0.133246327515162
 40
0.2626933496773451
 40
0.3250350436840352
 40
0.3850857200128098
 40
0.4426789420871679
 40
0.4989133762460167
 40
0.554509778879671
 40
0.6102468628723319
 40
0.6666994366071745
 40
0.7250916389456044
 40
0.7867032620392784
 40
0.8522429698184215
 40
0.9229524656737693
 40
1.0
 40
1.0
 40
1.0
 40
1.0
 10
36.17125628140696
 20
-10.81728643216075
 30
0.0
 10
36.19306321223149
 20
-10.5885800698847
 30
0.0
 10
36.23605528421805
 20
-10.13768854049543
 30
0.0
 10
36.33423051737669
 20
-9.585053649574338
 30
0.0
 10
36.44527254396554
 20
-9.164967455409624
 30
0.0
 10
36.55168373587077
 20
-8.873054701054492
 30
0.0
 10
36.67745406377605
 20
-8.600603858029345
 30
0.0
 10
36.8242829771084
 20
-8.347506222446667
 30
0.0
 10
36.99861577241754
 20
-8.11611828169911
 30
0.0
 10
37.20307676514304
 20
-7.91035857503491
 30
0.0
 10
37.43450921334458
 20
-7.727917397826484
 30
0.0
 10
37.69488471048408
 20
-7.568962350812286
 30
0.0
 10
37.98912267872015
 20
-7.441179299302806
 30
0.0
 10
38.31768751518257
 20
-7.345777069018487
 30
0.0
 10
38.68305595686022
 20
-7.295096078165567
 30
0.0
 10
38.93774552478083
 20
-7.28755195475909
 30
0.0
 10
39.07055276381902
 20
-7.283618090452211
 30
0.0
  0
SPLINE
  5
C7
330
1F
100
AcDbEntity
  8
0
  6
Continuous
 62
     7
370
    25
100
AcDbSpline
210
0.0
220
0.0
230
1.0
 70
     8
 71
     3
 72
    15
 73
    11
 74
     0
 42
0.000000001
 43
0.00000001
 40
0.0
 40
0.0
 40
0.0
 40
0.0
 40
0.1271619140661248
 40
0.2624109165288414
 40
0.4022753576922147
 40
0.5404065391396025
 40
0.6736646723668182
 40
0.7980552836750223
 40
0.9093004644029474
 40
1.0
 40
1.0
 40
1.0
 40
1.0
 10
39.07055276381902
 20
-7.283618090452211
 30
0.0
 10
39.15507437309557
 20
-7.285361876270697
 30
0.0
 10
39.32949289392108
 20
-7.288960347072424
 30
0.0
 10
39.59492746992471
 20
-7.323310946932946
 30
0.0
 10
39.86558459756815
 20
-7.369203017078067
 30
0.0
 10
40.13384406887828
 20
-7.421050030417979
 30
0.0
 10
40.39009981098535
 20
-7.481378727923847
 30
0.0
 10
40.62323460746806
 20
-7.556346341997524
 30
0.0
 10
40.82755218793017
 20
-7.632541036911948
 30
0.0
 10
40.94003382678858
 20
-7.706348364131176
 30
0.0
 10
40.99055276381903
 20
-7.739497487437135
 30
0.0
  0
LINE
  5
C8
330
1F
100
AcDbEntity
  8
0
  6
Continuous
 62
     7
370
    25
100
AcDbLine
 10
43.1252261307
 20
-7.3487437186
 30
0.0
 11
45.1127638191
 21
-7.3487437186
 31
0.0
  0
LINE
  5
C9
330
1F
100
AcDbEntity
  8
0
  6
Continuous
 62
     7
370
    25
100
AcDbLine
 10
45.1127638191
 20
-7.3487437186
 30
0.0
 11
45.1127638191
 21
-17.1995979899
 31
0.0
  0
SPLINE
  5
CA
330
1F
100
AcDbEntity
  8
0
  6
Continuous
 62
     7
370
    25
100
AcDbSpline
210
0.0
220
0.0
230
1.0
 70
     8
 71
     3
 72
    19
 73
    15
 74
     0
 42
0.000000001
 43
0.00000001
 40
0.0
 40
0.0
 40
0.0
 40
0.0
 40
0.0905064814548572
 40
0.1722596719566072
 40
0.2443824421944838
 40
0.3084896804927683
 40
0.3673081632932013
 40
0.4229150152843861
 40
0.4762099300201936
 40
0.5284884715409052
 40
0.635291924565004
 40
0.7472128120752114
 40
0.8692909024996663
 40
1.0
 40
1.0
 40
1.0
 40
1.0
 10
45.11276381909541
 20
-17.19959798994969
 30
0.0
 10
45.11469938617137
 20
-17.28649111293014
 30
0.0
 10
45.11838332288172
 20
-17.45187353217005
 30
0.0
 10
45.1433520582497
 20
-17.68559041228114
 30
0.0
 10
45.18875297212006
 20
-17.8903956867478
 30
0.0
 10
45.25160530135903
 20
-18.06730202900847
 30
0.0
 10
45.33144572962085
 20
-18.21989903965249
 30
0.0
 10
45.42976852760578
 20
-18.34802928370186
 30
0.0
 10
45.53813098431132
 20
-18.45948764302571
 30
0.0
 10
45.70693345153647
 20
-18.57549140152703
 30
0.0
 10
45.94646687268278
 20
-18.68260842868728
 30
0.0
 10
46.26717425140424
 20
-18.75437878473146
 30
0.0
 10
46.61634931507409
 20
-18.78682340759264
 30
0.0
 10
46.85903613162306
 20
-18.79153408917659
 30
0.0
 10
46.98452261306525
 20
-18.79396984924618
 30
0.0
  0
LINE
  5
CB
330
1F
100
AcDbEntity
  8
0
  6
Continuous
 62
     7
370
    25
100
AcDbLine
 10
46.9845226131
 20
-18.7939698492
 30
0.0
 11
46.9845226131
 21
-20.0
 31
0.0
  0
SPLINE
  5
CC
330
1F
100
AcDbEntity
  8
0
  6
Continuous
 62
     7
370
    25
100
AcDbSpline
210
0.0
220
0.0
230
1.0
 70
     8
 71
     3
 72
     9
 73
     5
 74
     0
 42
0.000000001
 43
0.00000001
 40
0.0
 40
0.0
 40
0.0
 40
0.0
 40
0.4897404950441114
 40
1.0
 40
1.0
 40
1.0
 40
1.0
 10
46.98452261306525
 20
-19.99999999999995
 30
0.0
 10
46.91301605267471
 20
-20.00930923655106
 30
0.0
 10
46.76700697008068
 20
-20.02831774543549
 30
0.0
 10
46.62035711873857
 20
-20.04150982304151
 30
0.0
 10
46.54552763819088
 20
-20.0482412060301
 30
0.0
  0
SPLINE
  5
CD
330
1F
100
AcDbEntity
  8
0
  6
Continuous
 62
     7
370
    25
100
AcDbSpline
210
0.0
220
0.0
230
1.0
 70
     8
 71
     3
 72
    11
 73
     7
 74
     0
 42
0.000000001
 43
0.00000001
 40
0.0
 40
0.0
 40
0.0
 40
0.0
 40
0.2146580525583009
 40
0.4660771323743427
 40
0.7330581889711612
 40
1.0
 40
1.0
 40
1.0
 40
1.0
 10
46.54552763819088
 20
-20.0482412060301
 30
0.0
 10
46.48041902212457
 20
-20.05328300852588
 30
0.0
 10
46.3390516859944
 20
-20.06423004182475
 30
0.0
 10
46.116327051662
 20
-20.07660558918541
 30
0.0
 10
45.87739367327718
 20
-20.07975845961898
 30
0.0
 10
45.71497314104319
 20
-20.08125955681944
 30
0.0
 10
45.63376884422103
 20
-20.0820100502512
 30
0.0
  0
SPLINE
  5
CE
330
1F
100
AcDbEntity
  8
0
  6
Continuous
 62
     7
370
    25
100
AcDbSpline
210
0.0
220
0.0
230
1.0
 70
     8
 71
     3
 72
    11
 73
     7
 74
     0
 42
0.000000001
 43
0.00000001
 40
0.0
 40
0.0
 40
0.0
 40
0.0
 40
0.2641182553534095
 40
0.5259170678431564
 40
0.7755409847708171
 40
1.0
 40
1.0
 40
1.0
 40
1.0
 10
45.63376884422103
 20
-20.0820100502512
 30
0.0
 10
45.55174909378535
 20
-20.08084952873827
 30
0.0
 10
45.38842987680567
 20
-20.0785386772205
 30
0.0
 10
45.1477621547304
 20
-20.06728120928325
 30
0.0
 10
44.92015160470442
 20
-20.0457334967217
 30
0.0
 10
44.77421885744319
 20
-20.02615435200051
 30
0.0
 10
44.70512562814064
 20
-20.0168844221105
 30
0.0
  0
SPLINE
  5
CF
330
1F
100
AcDbEntity
  8
0
  6
Continuous
 62
     7
370
    25
100
AcDbSpline
210
0.0
220
0.0
230
1.0
 70
     8
 71
     3
 72
    21
 73
    17
 74
     0
 42
0.000000001
 43
0.00000001
 40
0.0
 40
0.0
 40
0.0
 40
0.0
 40
0.0760953685781666
 40
0.1463972553814902
 40
0.214562954020451
 40
0.2815139325771752
 40
0.3486632948012576
 40
0.4153578586701748
 40
0.4823256721937375
 40
0.5504086353990778
 40
0.6830451995985807
 40
0.8088942835262839
 40
0.8668337168395865
 40
0.9180260230538516
 40
0.9623903621536241
 40
1.0
 40
1.0
 40
1.0
 40
1.0
 10
44.70512562814064
 20
-20.0168844221105
 30
0.0
 10
44.61646937723177
 20
-19.99494489779686
 30
0.0
 10
44.44590667350906
 20
-19.95273620357662
 30
0.0
 10
44.21249415845126
 20
-19.84229494407138
 30
0.0
 10
44.00569055823743
 20
-19.7065448018593
 30
0.0
 10
43.83726021855411
 20
-19.53023831296198
 30
0.0
 10
43.69518058228043
 20
-19.33614110944441
 30
0.0
 10
43.56516350488334
 20
-19.13350295738298
 30
0.0
 10
43.45700130214493
 20
-18.91706837302013
 30
0.0
 10
43.33688950739963
 20
-18.61957399616201
 30
0.0
 10
43.23263131462365
 20
-18.2415900328957
 30
0.0
 10
43.16940308669384
 20
-17.86709829973787
 30
0.0
 10
43.15080167603057
 20
-17.58627515289263
 30
0.0
 10
43.13405577541022
 20
-17.40323141255943
 30
0.0
 10
43.12711958900492
 20
-17.24387638510691
 30
0.0
 10
43.12582163266249
 20
-17.14573209199719
 30
0.0
 10
43.1252261306532
 20
-17.10070351758789
 30
0.0
  0
LINE
  5
D0
330
1F
100
AcDbEntity
  8
0
  6
Continuous
 62
     7
370
    25
100
AcDbLine
 10
43.1252261307
 20
-17.1007035176
 30
0.0
 11
43.1252261307
 21
-7.3487437186
 31
0.0
  0
LINE
  5
D1
330
1F
100
AcDbEntity
  8
0
  6
Continuous
 62
     7
370
    25
100
AcDbLine
 10
53.0460301508
 20
-15.5545728643
 30
0.0
 11
52.6866331658
 21
-15.5545728643
 31
0.0
  0
SPLINE
  5
D2
330
1F
100
AcDbEntity
  8
0
  6
Continuous
 62
     7
370
    25
100
AcDbSpline
210
0.0
220
0.0
230
1.0
 70
     8
 71
     3
 72
    19
 73
    15
 74
     0
 42
0.000000001
 43
0.00000001
 40
0.0
 40
0.0
 40
0.0
 40
0.0
 40
0.1103154256628765
 40
0.227964651922348
 40
0.3462999168135502
 40
0.4637919267937018
 40
0.5224700816248611
 40
0.5818769173574396
 40
0.6429397703802496
 40
0.7060557267797836
 40
0.7721077135211356
 40
0.8415467402408167
 40
0.9176720148595972
 40
0.9999999999999999
 40
0.9999999999999999
 40
0.9999999999999999
 40
0.9999999999999999
 10
52.68663316582906
 20
-15.55457286432156
 30
0.0
 10
52.57556241184918
 20
-15.55845928140796
 30
0.0
 10
52.3460368888534
 20
-15.56649048568429
 30
0.0
 10
51.99962296808442
 20
-15.61258660357011
 30
0.0
 10
51.65385737723096
 20
-15.70304820078485
 30
0.0
 10
51.38388394880294
 20
-15.83051921073207
 30
0.0
 10
51.18569867904599
 20
-15.96180568560494
 30
0.0
 10
51.04992829551577
 20
-16.0814497507413
 30
0.0
 10
50.92636759037426
 20
-16.21953835721493
 30
0.0
 10
50.81673149754527
 20
-16.37724386782245
 30
0.0
 10
50.72601093927937
 20
-16.55654772412056
 30
0.0
 10
50.66421972491879
 20
-16.76131858617298
 30
0.0
 10
50.62504850643218
 20
-16.98823902131612
 30
0.0
 10
50.62139549327859
 20
-17.14796534137479
 30
0.0
 10
50.61949748743711
 20
-17.2309547738693
 30
0.0
  0
SPLINE
  5
D3
330
1F
100
AcDbEntity
  8
0
  6
Continuous
 62
     7
370
    25
100
AcDbSpline
210
0.0
220
0.0
230
1.0
 70
     8
 71
     3
 72
    15
 73
    11
 74
     0
 42
0.000000001
 43
0.00000001
 40
0.0
 40
0.0
 40
0.0
 40
0.0
 40
0.1598856602617489
 40
0.3005555628153357
 40
0.4254197299259236
 40
0.538291373648382
 40
0.6456307381275419
 40
0.7566908102271573
 40
0.8730033069022769
 40
1.0
 40
1.0
 40
1.0
 40
1.0
 10
50.6194974874371
 20
-17.2309547738693
 30
0.0
 10
50.62291378079596
 20
-17.34537769775213
 30
0.0
 10
50.62933578244095
 20
-17.5604716982415
 30
0.0
 10
50.6836797591859
 20
-17.86114294689063
 30
0.0
 10
50.77554771619067
 20
-18.11760253197213
 30
0.0
 10
50.91132330065497
 20
-18.32660936757186
 30
0.0
 10
51.08464096596604
 20
-18.49094030699831
 30
0.0
 10
51.28985040673001
 20
-18.61713059718396
 30
0.0
 10
51.52945314186295
 20
-18.70559792730842
 30
0.0
 10
51.70180086475682
 20
-18.73196578270622
 30
0.0
 10
51.79175879396976
 20
-18.74572864321603
 30
0.0
  0
LINE
  5
D4
330
1F
100
AcDbEntity
  8
0
  6
Continuous
 62
     7
370
    25
100
AcDbLine
 10
51.791758794
 20
-18.7457286432
 30
0.0
 11
51.791758794
 21
-20.0651256281
 31
0.0
  0
SPLINE
  5
D5
330
1F
100
AcDbEntity
  8
0
  6
Continuous
 62
     7
370
    25
100
AcDbSpline
210
0.0
220
0.0
230
1.0
 70
     8
 71
     3
 72
     9
 73
     5
 74
     0
 42
0.000000001
 43
0.00000001
 40
0.0
 40
0.0
 40
0.0
 40
0.0
 40
0.3999786687523476
 40
0.9999999999999999
 40
0.9999999999999999
 40
0.9999999999999999
 40
0.9999999999999999
 10
51.79175879396976
 20
-20.06512562814065
 30
0.0
 10
51.76367118398426
 20
-20.06973533099518
 30
0.0
 10
51.6934484141723
 20
-20.08126020273125
 30
0.0
 10
51.62223003444836
 20
-20.08172885118319
 30
0.0
 10
51.57949748743711
 20
-20.0820100502512
 30
0.0
  0
SPLINE
  5
D6
330
1F
100
AcDbEntity
  8
0
  6
Continuous
 62
     7
370
    25
100
AcDbSpline
210
0.0
220
0.0
230
1.0
 70
     8
 71
     3
 72
    23
 73
    19
 74
     0
 42
0.000000001
 43
0.00000001
 40
0.0
 40
0.0
 40
0.0
 40
0.0
 40
0.060379714144464
 40
0.1204753982663985
 40
0.1795589880273324
 40
0.2390058468332748
 40
0.2970965279857096
 40
0.3537130465389566
 40
0.4099480154660832
 40
0.4660179417986499
 40
0.5226772553521338
 40
0.5800542313033129
 40
0.6396041322072914
 40
0.7021892144839839
 40
0.768723041307844
 40
0.8397349097055559
 40
0.9166345169149813
 40
1.0
 40
1.0
 40
1.0
 40
1.0
 10
51.57949748743711
 20
-20.0820100502512
 30
0.0
 10
51.48858822509983
 20
-20.07992779470525
 30
0.0
 10
51.30719734338773
 20
-20.07577307867613
 30
0.0
 10
51.03782757284916
 20
-20.04939757649454
 30
0.0
 10
50.7726552371933
 20
-20.00300073848442
 30
0.0
 10
50.51450636663473
 20
-19.93856319614298
 30
0.0
 10
50.26484426974805
 20
-19.85652481311175
 30
0.0
 10
50.03253335234003
 20
-19.74474890791201
 30
0.0
 10
49.81100918698963
 20
-19.61889209375
 30
0.0
 10
49.60788972613128
 20
-19.46480884587707
 30
0.0
 10
49.4196101350127
 20
-19.2899474619194
 30
0.0
 10
49.2590691256772
 20
-19.08280507635756
 30
0.0
 10
49.11116023999796
 20
-18.85596121877363
 30
0.0
 10
48.99167222747376
 20
-18.59731617731914
 30
0.0
 10
48.89408431453917
 20
-18.31158128626653
 30
0.0
 10
48.82844671720964
 20
-17.99479552556621
 30
0.0
 10
48.78699053461568
 20
-17.64853915449292
 30
0.0
 10
48.7817970072102
 20
-17.40716448895679
 30
0.0
 10
48.77909547738685
 20
-17.28160804020095
 30
0.0
  0
SPLINE
  5
D7
330
1F
100
AcDbEntity
  8
0
  6
Continuous
 62
     7
370
    25
100
AcDbSpline
210
0.0
220
0.0
230
1.0
 70
     8
 71
     3
 72
    23
 73
    19
 74
     0
 42
0.000000001
 43
0.00000001
 40
0.0
 40
0.0
 40
0.0
 40
0.0
 40
0.0707488394034038
 40
0.1377304428142148
 40
0.2014830153071206
 40
0.2634105300385902
 40
0.324284904901777
 40
0.3835716211040053
 40
0.4421904291481469
 40
0.5011826932684869
 40
0.5608944360193784
 40
0.620934059082259
 40
0.6824193956727439
 40
0.7455811844982865
 40
0.8094432692003608
 40
0.8734008064907579
 40
0.9363885059477035
 40
1.0
 40
1.0
 40
1.0
 40
1.0
 10
48.77909547738685
 20
-17.28160804020095
 30
0.0
 10
48.78233344821049
 20
-17.16071748191561
 30
0.0
 10
48.78863697430532
 20
-16.92537354885463
 30
0.0
 10
48.85098483804694
 20
-16.58587626868878
 30
0.0
 10
48.94826977535046
 20
-16.270647307825
 30
0.0
 10
49.09090816498117
 20
-15.98441052282053
 30
0.0
 10
49.26379871604836
 20
-15.72564904845259
 30
0.0
 10
49.45347560362889
 20
-15.4857129317413
 30
0.0
 10
49.6714914111709
 20
-15.27578088432476
 30
0.0
 10
49.90786690095023
 20
-15.08582172149656
 30
0.0
 10
50.16713357015467
 20
-14.92400056210599
 30
0.0
 10
50.44087712842311
 20
-14.77903440326061
 30
0.0
 10
50.73422383711827
 20
-14.66203410320967
 30
0.0
 10
51.04174235482868
 20
-14.56647037018179
 30
0.0
 10
51.35942391461181
 20
-14.4917080492324
 30
0.0
 10
51.68121042324191
 20
-14.44053335881953
 30
0.0
 10
52.00476283605257
 20
-14.403262792572
 30
0.0
 10
52.2209979530306
 20
-14.40055602981803
 30
0.0
 10
52.32964824120595
 20
-14.39919597989945
 30
0.0
  0
LINE
  5
D8
330
1F
100
AcDbEntity
  8
0
  6
Continuous
 62
     7
370
    25
100
AcDbLine
 10
52.3296482412
 20
-14.3991959799
 30
0.0
 11
53.0460301508
 21
-14.3991959799
 31
0.0
  0
LINE
  5
D9
330
1F
100
AcDbEntity
  8
0
  6
Continuous
 62
     7
370
    25
100
AcDbLine
 10
53.0460301508
 20
-14.3991959799
 30
0.0
 11
53.0460301508
 21
-15.5545728643
 31
0.0
  0
LINE
  5
DA
330
1F
100
AcDbEntity
  8
0
  6
Continuous
 62
     7
370
    25
100
AcDbLine
 10
55.6824120603
 20
-15.0335678392
 30
0.0
 11
55.6824120603
 21
-17.2816080402
 31
0.0
  0
SPLINE
  5
DB
330
1F
100
AcDbEntity
  8
0
  6
Continuous
 62
     7
370
    25
100
AcDbSpline
210
0.0
220
0.0
230
1.0
 70
     8
 71
     3
 72
    17
 73
    13
 74
     0
 42
0.000000001
 43
0.00000001
 40
0.0
 40
0.0
 40
0.0
 40
0.0
 40
0.0896623701392159
 40
0.2129076434732629
 40
0.3539962731404344
 40
0.4989198546100173
 40
0.6410194323051247
 40
0.7754048489650343
 40
0.8378029612188752
 40
0.8946805554487388
 40
0.9479518924762533
 40
0.9999999999999999
 40
0.9999999999999999
 40
0.9999999999999999
 40
0.9999999999999999
 10
55.68241206030142
 20
-17.28160804020095
 30
0.0
 10
55.68380848675727
 20
-17.33548483001711
 30
0.0
 10
55.68712436905589
 20
-17.46341787862881
 30
0.0
 10
55.69858921696451
 20
-17.67591965865191
 30
0.0
 10
55.72099683870626
 20
-17.9210048791323
 30
0.0
 10
55.76061568489471
 20
-18.17543516787887
 30
0.0
 10
55.82003009884078
 20
-18.42224731098782
 30
0.0
 10
55.89573372881162
 20
-18.61218421411983
 30
0.0
 10
55.97168913586098
 20
-18.74527522381806
 30
0.0
 10
56.04101737140989
 20
-18.82289341923498
 30
0.0
 10
56.11587784379575
 20
-18.88701373755689
 30
0.0
 10
56.17446415452805
 20
-18.9119150547358
 30
0.0
 10
56.20341708542706
 20
-18.92422110552759
 30
0.0
  0
LINE
  5
DC
330
1F
100
AcDbEntity
  8
0
  6
Continuous
 62
     7
370
    25
100
AcDbLine
 10
56.2034170854
 20
-18.9242211055
 30
0.0
 11
55.6824120603
 21
-20.0168844221
 31
0.0
  0
SPLINE
  5
DD
330
1F
100
AcDbEntity
  8
0
  6
Continuous
 62
     7
370
    25
100
AcDbSpline
210
0.0
220
0.0
230
1.0
 70
     8
 71
     3
 72
    15
 73
    11
 74
     0
 42
0.000000001
 43
0.00000001
 40
0.0
 40
0.0
 40
0.0
 40
0.0
 40
0.1050132878852376
 40
0.2205453666462219
 40
0.3455379731482382
 40
0.4777870070675466
 40
0.6115124867163678
 40
0.7424739472248688
 40
0.8703596440363436
 40
1.0
 40
1.0
 40
1.0
 40
1.0
 10
55.68241206030142
 20
-20.0168844221105
 30
0.0
 10
55.6095315475315
 20
-20.0117794183912
 30
0.0
 10
55.45647035181145
 20
-20.00105806169743
 30
0.0
 10
55.22741615127961
 20
-19.92341000293878
 30
0.0
 10
54.99705704634535
 20
-19.80515508540206
 30
0.0
 10
54.77529462166423
 20
-19.64735799318922
 30
0.0
 10
54.57531473499571
 20
-19.45733930032985
 30
0.0
 10
54.3994174409035
 20
-19.24875944623204
 30
0.0
 10
54.26041703891185
 20
-19.01589434091314
 30
0.0
 10
54.20030902953486
 20
-18.84742278534577
 30
0.0
 10
54.1700502512562
 20
-18.76261306532658
 30
0.0
  0
SPLINE
  5
DE
330
1F
100
AcDbEntity
  8
0
  6
Continuous
 62
     7
370
    25
100
AcDbSpline
210
0.0
220
0.0
230
1.0
 70
     8
 71
     3
 72
    15
 73
    11
 74
     0
 42
0.000000001
 43
0.00000001
 40
0.0
 40
0.0
 40
0.0
 40
0.0
 40
0.1032605467514027
 40
0.2128766153565167
 40
0.3301820419211779
 40
0.4575061783418523
 40
0.5907128457137566
 40
0.7250604401179799
 40
0.860974457366755
 40
1.0
 40
1.0
 40
1.0
 40
1.0
 10
54.1700502512562
 20
-18.76261306532658
 30
0.0
 10
54.13864626686011
 20
-18.82992892365063
 30
0.0
 10
54.0739054329476
 20
-18.96870382394573
 30
0.0
 10
53.92672226424688
 20
-19.15653708348369
 30
0.0
 10
53.74394042006629
 20
-19.33384104581617
 30
0.0
 10
53.52492483252548
 20
-19.49471771863218
 30
0.0
 10
53.28140601758947
 20
-19.64019658783672
 30
0.0
 10
53.01975554363627
 20
-19.76452126965039
 30
0.0
 10
52.74652452435726
 20
-19.87327968247092
 30
0.0
 10
52.55615930212
 20
-19.92540246345977
 30
0.0
 10
52.45989949748736
 20
-19.95175879396979
 30
0.0
  0
LINE
  5
DF
330
1F
100
AcDbEntity
  8
0
  6
Continuous
 62
     7
370
    25
100
AcDbLine
 10
52.4598994975
 20
-19.951758794
 30
0.0
 11
52.4598994975
 21
-18.7143718593
 31
0.0
  0
SPLINE
  5
E0
330
1F
100
AcDbEntity
  8
0
  6
Continuous
 62
     7
370
    25
100
AcDbSpline
210
0.0
220
0.0
230
1.0
 70
     8
 71
     3
 72
    13
 73
     9
 74
     0
 42
0.000000001
 43
0.00000001
 40
0.0
 40
0.0
 40
0.0
 40
0.0
 40
0.1257168041670443
 40
0.2493849777346118
 40
0.3738823487605937
 40
0.4980086955809528
 40
0.7487357769521717
 40
1.0
 40
1.0
 40
1.0
 40
1.0
 10
52.45989949748736
 20
-18.71437185929643
 30
0.0
 10
52.52387397041662
 20
-18.69898050051243
 30
0.0
 10
52.65078041393271
 20
-18.66844859435171
 30
0.0
 10
52.83295454615005
 20
-18.59624943612667
 30
0.0
 10
53.00714236435201
 20
-18.50840483166997
 30
0.0
 10
53.22242908360959
 20
-18.36018487007689
 30
0.0
 10
53.47387411184619
 20
-18.14717242594285
 30
0.0
 10
53.63401482210859
 20
-17.93844515572673
 30
0.0
 10
53.71417085427128
 20
-17.83396984924618
 30
0.0
  0
LINE
  5
E1
330
1F
100
AcDbEntity
  8
0
  6
Continuous
 62
     7
370
    25
100
AcDbLine
 10
53.7141708543
 20
-17.8339698492
 30
0.0
 11
53.7141708543
 21
-14.3991959799
 31
0.0
  0
SPLINE
  5
E2
330
1F
100
AcDbEntity
  8
0
  6
Continuous
 62
     7
370
    25
100
AcDbSpline
210
0.0
220
0.0
230
1.0
 70
     8
 71
     3
 72
    21
 73
    17
 74
     0
 42
0.000000001
 43
0.00000001
 40
0.0
 40
0.0
 40
0.0
 40
0.0
 40
0.1158058676382557
 40
0.2191586537652565
 40
0.3102402427761859
 40
0.3892002052283334
 40
0.4579197944809544
 40
0.5192613189191785
 40
0.572375676505851
 40
0.6198780216378303
 40
0.6642112805961581
 40
0.7065678719043736
 40
0.7488087170354482
 40
0.7924743427687859
 40
0.8885409844637481
 40
1.0
 40
1.0
 40
1.0
 40
1.0
 10
53.71417085427128
 20
-14.39919597989945
 30
0.0
 10
53.71327163232317
 20
-14.27295559712082
 30
0.0
 10
53.71156988546348
 20
-14.03404997942796
 30
0.0
 10
53.69838007894724
 20
-13.69599634054821
 30
0.0
 10
53.67190709524371
 20
-13.39903269900827
 30
0.0
 10
53.63708315707427
 20
-13.1409828405352
 30
0.0
 10
53.58962091322362
 20
-12.91773475107476
 30
0.0
 10
53.52771667020504
 20
-12.72764224026
 30
0.0
 10
53.45460593015379
 20
-12.56596075285652
 30
0.0
 10
53.36001385565454
 20
-12.43811041420263
 30
0.0
 10
53.25511899934226
 20
-12.33545465447599
 30
0.0
 10
53.1400141973793
 20
-12.25355378387506
 30
0.0
 10
53.01206407713111
 20
-12.1950970210838
 30
0.0
 10
52.81981047872422
 20
-12.14414558275333
 30
0.0
 10
52.54710168948003
 20
-12.11038131586935
 30
0.0
 10
52.32089129915239
 20
-12.10552358795389
 30
0.0
 10
52.19939698492454
 20
-12.10291457286427
 30
0.0
  0
SPLINE
  5
E3
330
1F
100
AcDbEntity
  8
0
  6
Continuous
 62
     7
370
    25
100
AcDbSpline
210
0.0
220
0.0
230
1.0
 70
     8
 71
     3
 72
    15
 73
    11
 74
     0
 42
0.000000001
 43
0.00000001
 40
0.0
 40
0.0
 40
0.0
 40
0.0
 40
0.1571602184970524
 40
0.3073682559306355
 40
0.4503763685698616
 40
0.587182204981118
 40
0.713454453070922
 40
0.8307766656013447
 40
0.9283651334977376
 40
1.0
 40
1.0
 40
1.0
 40
1.0
 10
52.19939698492454
 20
-12.10291457286427
 30
0.0
 10
52.08239649853715
 20
-12.10641532588629
 30
0.0
 10
51.85357119027629
 20
-12.11326197169213
 30
0.0
 10
51.52530220707621
 20
-12.18610155397887
 30
0.0
 10
51.22055181645661
 20
-12.2830036258264
 30
0.0
 10
50.94127674349749
 20
-12.39808048107716
 30
0.0
 10
50.68739214409518
 20
-12.52382654096308
 30
0.0
 10
50.47638419202378
 20
-12.6651531335836
 30
0.0
 10
50.3033994706229
 20
-12.78941991387062
 30
0.0
 10
50.20519118395939
 20
-12.86802976246977
 30
0.0
 10
50.16361809045218
 20
-12.90130653266327
 30
0.0
  0
LINE
  5
E4
330
1F
100
AcDbEntity
  8
0
  6
Continuous
 62
     7
370
    25
100
AcDbLine
 10
50.1636180905
 20
-12.9013065327
 30
0.0
 11
49.4303517588
 21
-11.7772864322
 31
0.0
  0
SPLINE
  5
E5
330
1F
100
AcDbEntity
  8
0
  6
Continuous
 62
     7
370
    25
100
AcDbSpline
210
0.0
220
0.0
230
1.0
 70
     8
 71
     3
 72
    17
 73
    13
 74
     0
 42
0.000000001
 43
0.00000001
 40
0.0
 40
0.0
 40
0.0
 40
0.0
 40
0.037383732546291
 40
0.0799850108645463
 40
0.127104760282072
 40
0.1789628850680337
 40
0.2937066051460327
 40
0.4187060602297505
 40
0.5540688009151771
 40
0.696882623753326
 40
0.8462114225807064
 40
1.0
 40
1.0
 40
1.0
 40
1.0
 10
49.43035175879388
 20
-11.77728643216075
 30
0.0
 10
49.46035355564026
 20
-11.74693490703706
 30
0.0
 10
49.52454441843712
 20
-11.68199577706207
 30
0.0
 10
49.6385746654166
 20
-11.59195539429166
 30
0.0
 10
49.77158103571386
 20
-11.50024000982385
 30
0.0
 10
49.98103756575927
 20
-11.37526319291281
 30
0.0
 10
50.27753344493894
 20
-11.22333143753924
 30
0.0
 10
50.67698938452793
 20
-11.06817647382724
 30
0.0
 10
51.11833188427258
 20
-10.93719167821647
 30
0.0
 10
51.59527863783801
 20
-10.8340851093875
 30
0.0
 10
52.1000352458569
 20
-10.76326598990118
 30
0.0
 10
52.44598677399315
 20
-10.75589866456867
 30
0.0
 10
52.62150753768836
 20
-10.75216080402005
 30
0.0
  0
SPLINE
  5
E6
330
1F
100
AcDbEntity
  8
0
  6
Continuous
 62
     7
370
    25
100
AcDbSpline
210
0.0
220
0.0
230
1.0
 70
     8
 71
     3
 72
    21
 73
    17
 74
     0
 42
0.000000001
 43
0.00000001
 40
0.0
 40
0.0
 40
0.0
 40
0.0
 40
0.1264603184560532
 40
0.2511516963330491
 40
0.3122650301423925
 40
0.3723782720387737
 40
0.4315014874414933
 40
0.4897138055515063
 40
0.5480390543986093
 40
0.6068240335282071
 40
0.666667983768632
 40
0.7281197179240901
 40
0.791526234149504
 40
0.856771001078347
 40
0.9264809639749828
 40
1.0
 40
1.0
 40
1.0
 40
1.0
 10
52.62150753768836
 20
-10.75216080402005
 30
0.0
 10
52.78264126703598
 20
-10.75639256826755
 30
0.0
 10
53.1026547697395
 20
-10.76479690238766
 30
0.0
 10
53.49568722416883
 20
-10.83127606427824
 30
0.0
 10
53.80098474152975
 20
-10.90198001931826
 30
0.0
 10
54.01773269507645
 20
-10.97879974403752
 30
0.0
 10
54.22612217702581
 20
-11.06659239557599
 30
0.0
 10
54.42259870773765
 20
-11.1741951122711
 30
0.0
 10
54.60924359673457
 20
-11.29701071282128
 30
0.0
 10
54.78470480759772
 20
-11.43930441732282
 30
0.0
 10
54.94253644349978
 20
-11.60610250016989
 30
0.0
 10
55.09422297059832
 20
-11.78604462296035
 30
0.0
 10
55.22789080725227
 20
-11.98881284329696
 30
0.0
 10
55.33632769833163
 20
-12.21749991691391
 30
0.0
 10
55.42626515321676
 20
-12.46787347470917
 30
0.0
 10
55.4664225161776
 20
-12.64590391545483
 30
0.0
 10
55.48703517587931
 20
-12.73728643216075
 30
0.0
  0
SPLINE
  5
E7
330
1F
100
AcDbEntity
  8
0
  6
Continuous
 62
     7
370
    25
100
AcDbSpline
210
0.0
220
0.0
230
1.0
 70
     8
 71
     3
 72
    11
 73
     7
 74
     0
 42
0.000000001
 43
0.00000001
 40
0.0
 40
0.0
 40
0.0
 40
0.0
 40
0.2522006042075976
 40
0.5032141405676165
 40
0.75229731243149
 40
1.0
 40
1.0
 40
1.0
 40
1.0
 10
55.48703517587931
 20
-12.73728643216075
 30
0.0
 10
55.52212460856914
 20
-12.92822763613133
 30
0.0
 10
55.59213831360963
 20
-13.30921131440955
 30
0.0
 10
55.6445156637981
 20
-13.88619636357121
 30
0.0
 10
55.67733142261451
 20
-14.46069504777031
 30
0.0
 10
55.68072165470058
 20
-14.84296432938689
 30
0.0
 10
55.68241206030143
 20
-15.03356783919593
 30
0.0
  0
LINE
  5
E8
330
1F
100
AcDbEntity
  8
0
  6
Continuous
 62
     7
370
    25
100
AcDbLine
 10
62.8365829146
 20
-12.1511557789
 30
0.0
 11
61.3700502513
 21
-12.1511557789
 31
0.0
  0
LINE
  5
E9
330
1F
100
AcDbEntity
  8
0
  6
Continuous
 62
     7
370
    25
100
AcDbLine
 10
61.3700502513
 20
-12.1511557789
 30
0.0
 11
61.3700502513
 21
-17.2164824121
 31
0.0
  0
SPLINE
  5
EA
330
1F
100
AcDbEntity
  8
0
  6
Continuous
 62
     7
370
    25
100
AcDbSpline
210
0.0
220
0.0
230
1.0
 70
     8
 71
     3
 72
    19
 73
    15
 74
     0
 42
0.000000001
 43
0.00000001
 40
0.0
 40
0.0
 40
0.0
 40
0.0
 40
0.0908524964108785
 40
0.1720829958009097
 40
0.2436618013726397
 40
0.3075180424996636
 40
0.365492456399604
 40
0.4213118987173259
 40
0.4754082606457373
 40
0.5295503258631518
 40
0.6394056811556084
 40
0.7523817191259433
 40
0.8730172538392851
 40
1.0
 40
1.0
 40
1.0
 40
1.0
 10
61.37005025125622
 20
-17.21648241206025
 30
0.0
 10
61.37194380077967
 20
-17.30337982634568
 30
0.0
 10
61.37553035797474
 20
-17.46797153233426
 30
0.0
 10
61.40076357415523
 20
-17.70006220025299
 30
0.0
 10
61.44562035809493
 20
-17.90286185418277
 30
0.0
 10
61.51041299196539
 20
-18.077009748766
 30
0.0
 10
61.59541701715177
 20
-18.22472896237357
 30
0.0
 10
61.69137030317223
 20
-18.35411673308108
 30
0.0
 10
61.80436673765834
 20
-18.46387254624745
 30
0.0
 10
61.97311714082053
 20
-18.58770505318882
 30
0.0
 10
62.21921333420111
 20
-18.69371746390843
 30
0.0
 10
62.54122751563843
 20
-18.7648821317508
 30
0.0
 10
62.88609033961873
 20
-18.78733555365544
 30
0.0
 10
63.12282147002811
 20
-18.79172094704849
 30
0.0
 10
63.24422110552758
 20
-18.79396984924618
 30
0.0
  0
LINE
  5
EB
330
1F
100
AcDbEntity
  8
0
  6
Continuous
 62
     7
370
    25
100
AcDbLine
 10
63.2442211055
 20
-18.7939698492
 30
0.0
 11
63.2442211055
 21
-20.0
 31
0.0
  0
SPLINE
  5
EC
330
1F
100
AcDbEntity
  8
0
  6
Continuous
 62
     7
370
    25
100
AcDbSpline
210
0.0
220
0.0
230
1.0
 70
     8
 71
     3
 72
     9
 73
     5
 74
     0
 42
0.000000001
 43
0.00000001
 40
0.0
 40
0.0
 40
0.0
 40
0.0
 40
0.5006373496653012
 40
1.0
 40
1.0
 40
1.0
 40
1.0
 10
63.24422110552758
 20
-19.99999999999995
 30
0.0
 10
63.17351254668583
 20
-20.00924211984742
 30
0.0
 10
63.03227546381733
 20
-20.02770282769042
 30
0.0
 10
62.89049724137887
 20
-20.04140090022483
 30
0.0
 10
62.81969849246224
 20
-20.0482412060301
 30
0.0
  0
SPLINE
  5
ED
330
1F
100
AcDbEntity
  8
0
  6
Continuous
 62
     7
370
    25
100
AcDbSpline
210
0.0
220
0.0
230
1.0
 70
     8
 71
     3
 72
    11
 73
     7
 74
     0
 42
0.000000001
 43
0.00000001
 40
0.0
 40
0.0
 40
0.0
 40
0.0
 40
0.2133501179490804
 40
0.4653889597792202
 40
0.7327133725194027
 40
1.0
 40
1.0
 40
1.0
 40
1.0
 10
62.81969849246224
 20
-20.0482412060301
 30
0.0
 10
62.75378603111234
 20
-20.05329041590937
 30
0.0
 10
62.61000860029119
 20
-20.06430445497346
 30
0.0
 10
62.38325760737559
 20
-20.07658635816665
 30
0.0
 10
62.13950439253762
 20
-20.07976308860573
 30
0.0
 10
61.97386774614269
 20
-20.08126109832817
 30
0.0
 10
61.89105527638184
 20
-20.0820100502512
 30
0.0
  0
SPLINE
  5
EE
330
1F
100
AcDbEntity
  8
0
  6
Continuous
 62
     7
370
    25
100
AcDbSpline
210
0.0
220
0.0
230
1.0
 70
     8
 71
     3
 72
    11
 73
     7
 74
     0
 42
0.000000001
 43
0.00000001
 40
0.0
 40
0.0
 40
0.0
 40
0.0
 40
0.26478296895621
 40
0.5350176461018464
 40
0.7852697983362418
 40
1.0
 40
1.0
 40
1.0
 40
1.0
 10
61.89105527638184
 20
-20.0820100502512
 30
0.0
 10
61.80903634218399
 20
-20.0808123160317
 30
0.0
 10
61.64330975756526
 20
-20.07839218702832
 30
0.0
 10
61.40022500219278
 20
-20.06746379684611
 30
0.0
 10
61.17332374407743
 20
-20.04643687812576
 30
0.0
 10
61.03069191402407
 20
-20.0262204344997
 30
0.0
 10
60.96482412060295
 20
-20.0168844221105
 30
0.0
  0
SPLINE
  5
EF
330
1F
100
AcDbEntity
  8
0
  6
Continuous
 62
     7
370
    25
100
AcDbSpline
210
0.0
220
0.0
230
1.0
 70
     8
 71
     3
 72
    21
 73
    17
 74
     0
 42
0.000000001
 43
0.00000001
 40
0.0
 40
0.0
 40
0.0
 40
0.0
 40
0.0755473856582475
 40
0.145275422738854
 40
0.2134214968187225
 40
0.2808328835958389
 40
0.3490417514234824
 40
0.4159330455676809
 40
0.4834813355176336
 40
0.5510529714593285
 40
0.6832906117638399
 40
0.8089977550823079
 40
0.8669205079264679
 40
0.9180496229462697
 40
0.9624011897777083
 40
1.0
 40
1.0
 40
1.0
 40
1.0
 10
60.96482412060295
 20
-20.0168844221105
 30
0.0
 10
60.8762279933224
 20
-19.9974609225144
 30
0.0
 10
60.70586022041321
 20
-19.96011009838852
 30
0.0
 10
60.47118767435388
 20
-19.8548956330111
 30
0.0
 10
60.26476279661573
 20
-19.7183240765245
 30
0.0
 10
60.09630753196728
 20
-19.53944630345966
 30
0.0
 10
59.95511784742716
 20
-19.34195554119297
 30
0.0
 10
59.82785968020868
 20
-19.13506209448501
 30
0.0
 10
59.71850363855012
 20
-18.9187284334024
 30
0.0
 10
59.60620919419498
 20
-18.61841340076126
 30
0.0
 10
59.50380232688209
 20
-18.24137998449459
 30
0.0
 10
59.44451928001217
 20
-17.86687409799794
 30
0.0
 10
59.42393270933417
 20
-17.58641309557119
 30
0.0
 10
59.41138105189253
 20
-17.40311853438934
 30
0.0
 10
59.40355830419105
 20
-17.24388700897313
 30
0.0
 10
59.40235919581556
 20
-17.14573543325561
 30
0.0
 10
59.40180904522607
 20
-17.10070351758789
 30
0.0
  0
LINE
  5
F0
330
1F
100
AcDbEntity
  8
0
  6
Continuous
 62
     7
370
    25
100
AcDbLine
 10
59.4018090452
 20
-17.1007035176
 30
0.0
 11
59.4018090452
 21
-12.1511557789
 31
0.0
  0
LINE
  5
F1
330
1F
100
AcDbEntity
  8
0
  6
Continuous
 62
     7
370
    25
100
AcDbLine
 10
59.4018090452
 20
-12.1511557789
 30
0.0
 11
58.1957788945
 21
-12.1511557789
 31
0.0
  0
LINE
  5
F2
330
1F
100
AcDbEntity
  8
0
  6
Continuous
 62
     7
370
    25
100
AcDbLine
 10
58.1957788945
 20
-12.1511557789
 30
0.0
 11
58.1957788945
 21
-10.8172864322
 31
0.0
  0
LINE
  5
F3
330
1F
100
AcDbEntity
  8
0
  6
Continuous
 62
     7
370
    25
100
AcDbLine
 10
58.1957788945
 20
-10.8172864322
 30
0.0
 11
59.4018090452
 21
-10.8172864322
 31
0.0
  0
LINE
  5
F4
330
1F
100
AcDbEntity
  8
0
  6
Continuous
 62
     7
370
    25
100
AcDbLine
 10
59.4018090452
 20
-10.8172864322
 30
0.0
 11
59.4018090452
 21
-8.2122613065
 31
0.0
  0
LINE
  5
F5
330
1F
100
AcDbEntity
  8
0
  6
Continuous
 62
     7
370
    25
100
AcDbLine
 10
59.4018090452
 20
-8.2122613065
 30
0.0
 11
61.3700502513
 21
-8.2122613065
 31
0.0
  0
LINE
  5
F6
330
1F
100
AcDbEntity
  8
0
  6
Continuous
 62
     7
370
    25
100
AcDbLine
 10
61.3700502513
 20
-8.2122613065
 30
0.0
 11
61.3700502513
 21
-10.8172864322
 31
0.0
  0
LINE
  5
F7
330
1F
100
AcDbEntity
  8
0
  6
Continuous
 62
     7
370
    25
100
AcDbLine
 10
61.3700502513
 20
-10.8172864322
 30
0.0
 11
62.8365829146
 21
-10.8172864322
 31
0.0
  0
LINE
  5
F8
330
1F
100
AcDbEntity
  8
0
  6
Continuous
 62
     7
370
    25
100
AcDbLine
 10
62.8365829146
 20
-10.8172864322
 30
0.0
 11
62.8365829146
 21
-12.1511557789
 31
0.0
  0
SPLINE
  5
F9
330
1F
100
AcDbEntity
  8
0
  6
Continuous
 62
     7
370
    25
100
AcDbSpline
210
0.0
220
0.0
230
1.0
 70
     8
 71
     3
 72
    23
 73
    19
 74
     0
 42
0.000000001
 43
0.00000001
 40
0.0
 40
0.0
 40
0.0
 40
0.0
 40
0.0754048954991015
 40
0.1485929633284206
 40
0.2203584599016626
 40
0.2897098360669968
 40
0.3574945519133861
 40
0.4235846622956506
 40
0.4875609104254047
 40
0.5500732083574971
 40
0.6109446849439168
 40
0.6700250622968198
 40
0.7272550344284475
 40
0.7832409084367736
 40
0.8381702224613656
 40
0.8922206659049551
 40
0.9455963045597605
 40
1.0
 40
1.0
 40
1.0
 40
1.0
 10
76.17286432160805
 20
-15.4412060301507
 30
0.0
 10
76.17175480090296
 20
-15.3422533984934
 30
0.0
 10
76.16956837827946
 20
-15.14725724247751
 30
0.0
 10
76.14382295168986
 20
-14.85908915554431
 30
0.0
 10
76.10632073485783
 20
-14.58033719063324
 30
0.0
 10
76.05268576096073
 20
-14.31142598436365
 30
0.0
 10
75.98640232847559
 20
-14.05295226885878
 30
0.0
 10
75.90147628026652
 20
-13.80743881112649
 30
0.0
 10
75.80344776985118
 20
-13.57427945682695
 30
0.0
 10
75.68660811348389
 20
-13.35765421943845
 30
0.0
 10
75.5591747033367
 20
-13.15492116178156
 30
0.0
 10
75.42082176114509
 20
-12.96747414488784
 30
0.0
 10
75.26389580797203
 20
-12.80430091183038
 30
0.0
 10
75.101118738926
 20
-12.65494810241306
 30
0.0
 10
74.92384597013383
 20
-12.52989458985432
 30
0.0
 10
74.73825679208223
 20
-12.42460543465338
 30
0.0
 10
74.54012308142248
 20
-12.34569094259369
 30
0.0
 10
74.40212134623594
 20
-12.31419143874605
 30
0.0
 10
74.33246231155779
 20
-12.29829145728638
 30
0.0
  0
LINE
  5
FA
330
1F
100
AcDbEntity
  8
0
  6
Continuous
 62
     7
370
    25
100
AcDbLine
 10
74.3324623116
 20
-12.2982914573
 30
0.0
 11
74.3324623116
 21
-10.7690452261
 31
0.0
  0
SPLINE
  5
FB
330
1F
100
AcDbEntity
  8
0
  6
Continuous
 62
     7
370
    25
100
AcDbSpline
210
0.0
220
0.0
230
1.0
 70
     8
 71
     3
 72
    23
 73
    19
 74
     0
 42
0.000000001
 43
0.00000001
 40
0.0
 40
0.0
 40
0.0
 40
0.0
 40
0.065295178616293
 40
0.128348386436654
 40
0.1898477669260968
 40
0.2510066695470248
 40
0.3112890724609558
 40
0.3705264152622856
 40
0.4291175642582097
 40
0.4880283736523769
 40
0.5473451907786075
 40
0.6078079114241494
 40
0.669417955413628
 40
0.7331070707700316
 40
0.7980503039529636
 40
0.8639008161411499
 40
0.9310873842576156
 40
1.0
 40
1.0
 40
1.0
 40
1.0
 10
74.33246231155778
 20
-10.7690452261306
 30
0.0
 10
74.47921309355051
 20
-10.78118809282517
 30
0.0
 10
74.76767583270268
 20
-10.80505688957235
 30
0.0
 10
75.18717214074796
 20
-10.89408892914823
 30
0.0
 10
75.58669653083903
 20
-11.02127290197474
 30
0.0
 10
75.9618242095451
 20
-11.19426952471467
 30
0.0
 10
76.31460651231073
 20
-11.39859725927168
 30
0.0
 10
76.63962731730183
 20
-11.6354622421232
 30
0.0
 10
76.93350116896089
 20
-11.90545482005609
 30
0.0
 10
77.19645689023992
 20
-12.20572817865447
 30
0.0
 10
77.43115439375201
 20
-12.53356908414916
 30
0.0
 10
77.63898073367541
 20
-12.88616345605982
 30
0.0
 10
77.8176668282378
 20
-13.26525138751057
 30
0.0
 10
77.96917736026307
 20
-13.66671448084314
 30
0.0
 10
78.08974041504108
 20
-14.08860791315275
 30
0.0
 10
78.17586783719122
 20
-14.52668666533688
 30
0.0
 10
78.23127859872677
 20
-14.97908019590313
 30
0.0
 10
78.23706839032755
 20
-15.28586716623128
 30
0.0
 10
78.24
 20
-15.4412060301507
 30
0.0
  0
SPLINE
  5
FC
330
1F
100
AcDbEntity
  8
0
  6
Continuous
 62
     7
370
    25
100
AcDbSpline
210
0.0
220
0.0
230
1.0
 70
     8
 71
     3
 72
    23
 73
    19
 74
     0
 42
0.000000001
 43
0.00000001
 40
0.0
 40
0.0
 40
0.0
 40
0.0
 40
0.069173694461937
 40
0.1366080315144223
 40
0.2027703019317125
 40
0.2681550757303621
 40
0.3320051820631585
 40
0.393835775185752
 40
0.4541014280161497
 40
0.5135081028304463
 40
0.5721184423160699
 40
0.6312900803697031
 40
0.6906389023352865
 40
0.751284080399341
 40
0.8123701187506202
 40
0.8738517044113945
 40
0.9361397434237037
 40
1.0
 40
1.0
 40
1.0
 40
1.0
 10
78.24
 20
-15.4412060301507
 30
0.0
 10
78.23702355133965
 20
-15.59573459993108
 30
0.0
 10
78.23114549616913
 20
-15.90090615242133
 30
0.0
 10
78.17636915480239
 20
-16.35115743103393
 30
0.0
 10
78.08768599293133
 20
-16.78704886910567
 30
0.0
 10
77.96222475258142
 20
-17.20559738731503
 30
0.0
 10
77.80568454355834
 20
-17.60302388959457
 30
0.0
 10
77.62217169331579
 20
-17.97604202564694
 30
0.0
 10
77.41202696386148
 20
-18.32333621015291
 30
0.0
 10
77.17268290827948
 20
-18.64229997676035
 30
0.0
 10
76.9052956561618
 20
-18.93485451897138
 30
0.0
 10
76.60862431602065
 20
-19.19766044234911
 30
0.0
 10
76.28247834733634
 20
-19.43050616952158
 30
0.0
 10
75.93168116714969
 20
-19.63312126188247
 30
0.0
 10
75.55680756560196
 20
-19.79872246975447
 30
0.0
 10
75.16497134480827
 20
-19.93057865777292
 30
0.0
 10
74.75461313130891
 20
-20.02024487584462
 30
0.0
 10
74.47434360772074
 20
-20.05004158942604
 30
0.0
 10
74.33246231155778
 20
-20.06512562814065
 30
0.0
  0
LINE
  5
FD
330
1F
100
AcDbEntity
  8
0
  6
Continuous
 62
     7
370
    25
100
AcDbLine
 10
74.3324623116
 20
-20.0651256281
 30
0.0
 11
74.3324623116
 21
-18.5021105528
 31
0.0
  0
SPLINE
  5
FE
330
1F
100
AcDbEntity
  8
0
  6
Continuous
 62
     7
370
    25
100
AcDbSpline
210
0.0
220
0.0
230
1.0
 70
     8
 71
     3
 72
    23
 73
    19
 74
     0
 42
0.000000001
 43
0.00000001
 40
0.0
 40
0.0
 40
0.0
 40
0.0
 40
0.0539353041561728
 40
0.1064971025844457
 40
0.1597261437824981
 40
0.2137486279053014
 40
0.2687708806963229
 40
0.3259084602239465
 40
0.3856661144042938
 40
0.4480186580406826
 40
0.5124923663859168
 40
0.5772240616489922
 40
0.6434085634738813
 40
0.7111913469771523
 40
0.779727839056909
 40
0.8506682687682678
 40
0.9242036085496591
 40
1.0
 40
1.0
 40
1.0
 40
1.0
 10
74.33246231155778
 20
-18.50211055276377
 30
0.0
 10
74.39966452632494
 20
-18.48513354935668
 30
0.0
 10
74.53235759762454
 20
-18.45161187553454
 30
0.0
 10
74.7231534707735
 20
-18.37475073310559
 30
0.0
 10
74.90455336589484
 20
-18.27818842546759
 30
0.0
 10
75.07680350864659
 20
-18.1599243384615
 30
0.0
 10
75.23595654014217
 20
-18.01728399126144
 30
0.0
 10
75.38932951094357
 20
-17.85817228172941
 30
0.0
 10
75.53081274535278
 20
-17.67618777449962
 30
0.0
 10
75.66320519595854
 20
-17.47631475988908
 30
0.0
 10
75.78285108097971
 20
-17.26110228285552
 30
0.0
 10
75.8867227030784
 20
-17.03251962082449
 30
0.0
 10
75.97662669470617
 20
-16.79352617905535
 30
0.0
 10
76.04818472880876
 20
-16.54328795772968
 30
0.0
 10
76.10363146184949
 20
-16.28285742778905
 30
0.0
 10
76.14489409603853
 20
-16.01234635112315
 30
0.0
 10
76.16932631961538
 20
-15.73030549163362
 30
0.0
 10
76.17167314308804
 20
-15.53854036443815
 30
0.0
 10
76.17286432160805
 20
-15.4412060301507
 30
0.0
  0
LINE
  5
FF
330
1F
100
AcDbEntity
  8
0
  6
Continuous
 62
     7
370
    25
100
AcDbLine
 10
73.6667336683
 20
-18.5021105528
 30
0.0
 11
73.6667336683
 21
-20.0651256281
 31
0.0
  0
SPLINE
  5
100
330
1F
100
AcDbEntity
  8
0
  6
Continuous
 62
     7
370
    25
100
AcDbSpline
210
0.0
220
0.0
230
1.0
 70
     8
 71
     3
 72
    23
 73
    19
 74
     0
 42
0.000000001
 43
0.00000001
 40
0.0
 40
0.0
 40
0.0
 40
0.0
 40
0.0655029699227806
 40
0.1287841711071391
 40
0.1904718442365058
 40
0.2510671467810878
 40
0.3110146961390801
 40
0.3698627951365765
 40
0.4286099238040514
 40
0.4876233713768987
 40
0.5472633431788049
 40
0.6080118040728391
 40
0.6697162123032314
 40
0.7337122946692294
 40
0.7989991591165689
 40
0.8648077991039664
 40
0.9316960268533404
 40
1.0
 40
1.0
 40
1.0
 40
1.0
 10
73.6667336683417
 20
-20.06512562814065
 30
0.0
 10
73.52076002863932
 20
-20.05041443618827
 30
0.0
 10
73.23376397006784
 20
-20.02149103525209
 30
0.0
 10
72.8169461029986
 20
-19.92765012934741
 30
0.0
 10
72.42139267542403
 20
-19.79880033113226
 30
0.0
 10
72.050784641823
 20
-19.62605634631009
 30
0.0
 10
71.70714150391309
 20
-19.41744187523012
 30
0.0
 10
71.3852637135621
 20
-19.18335716122014
 30
0.0
 10
71.09307409947981
 20
-18.91610143292683
 30
0.0
 10
70.8260553249875
 20
-18.62135467754227
 30
0.0
 10
70.5900358981807
 20
-18.2957395614698
 30
0.0
 10
70.37936103551566
 20
-17.94626950649542
 30
0.0
 10
70.19992893322642
 20
-17.56876853378576
 30
0.0
 10
70.05210020087932
 20
-17.16724106840983
 30
0.0
 10
69.93307047386932
 20
-16.74653196605838
 30
0.0
 10
69.85314546939418
 20
-16.31029072313703
 30
0.0
 10
69.79977326505053
 20
-15.8630306018711
 30
0.0
 10
69.79364764691198
 20
-15.5603581958437
 30
0.0
 10
69.7905527638191
 20
-15.4074371859296
 30
0.0
  0
SPLINE
  5
101
330
1F
100
AcDbEntity
  8
0
  6
Continuous
 62
     7
370
    25
100
AcDbSpline
210
0.0
220
0.0
230
1.0
 70
     8
 71
     3
 72
    23
 73
    19
 74
     0
 42
0.000000001
 43
0.00000001
 40
0.0
 40
0.0
 40
0.0
 40
0.0
 40
0.0695512592757313
 40
0.1373536673573933
 40
0.2030953252307809
 40
0.2679377997589512
 40
0.3316672435258358
 40
0.3933507086363662
 40
0.4538262386739235
 40
0.5137750707230001
 40
0.5731969470572368
 40
0.6324211125751723
 40
0.6915888261474257
 40
0.751626125872567
 40
0.812205580712611
 40
0.8735716751059447
 40
0.936005840839135
 40
1.0
 40
1.0
 40
1.0
 40
1.0
 10
69.7905527638191
 20
-15.4074371859296
 30
0.0
 10
69.79351304167574
 20
-15.25290756041973
 30
0.0
 10
69.79935916185012
 20
-14.94773392301659
 30
0.0
 10
69.85415800867362
 20
-14.49922425649669
 30
0.0
 10
69.94104516607442
 20
-14.06690531827865
 30
0.0
 10
70.0607739184642
 20
-13.65159821958301
 30
0.0
 10
70.21570179160568
 20
-13.25798481855632
 30
0.0
 10
70.39545056252798
 20
-12.88561762475675
 30
0.0
 10
70.61011758248748
 20
-12.54208401657542
 30
0.0
 10
70.85018187273232
 20
-12.2219511951374
 30
0.0
 10
71.12297074492808
 20
-11.9332105290125
 30
0.0
 10
71.41584553249862
 20
-11.66719151732766
 30
0.0
 10
71.74085325442148
 20
-11.43916300064825
 30
0.0
 10
72.08449257092316
 20
-11.23479432705793
 30
0.0
 10
72.45290409252144
 20
-11.06689115396351
 30
0.0
 10
72.83937553191303
 20
-10.92954161500835
 30
0.0
 10
73.24695824303767
 20
-10.8362735513708
 30
0.0
 10
73.52566222127993
 20
-10.8012469728768
 30
0.0
 10
73.6667336683417
 20
-10.78351758793965
 30
0.0
  0
LINE
  5
102
330
1F
100
AcDbEntity
  8
0
  6
Continuous
 62
     7
370
    25
100
AcDbLine
 10
73.6667336683
 20
-10.7835175879
 30
0.0
 11
73.6667336683
 21
-12.2982914573
 31
0.0
  0
SPLINE
  5
103
330
1F
100
AcDbEntity
  8
0
  6
Continuous
 62
     7
370
    25
100
AcDbSpline
210
0.0
220
0.0
230
1.0
 70
     8
 71
     3
 72
    23
 73
    19
 74
     0
 42
0.000000001
 43
0.00000001
 40
0.0
 40
0.0
 40
0.0
 40
0.0
 40
0.0536670118516931
 40
0.1071450090901392
 40
0.160153139633918
 40
0.2134824213529731
 40
0.2688502160821979
 40
0.3254837441407736
 40
0.3848457118234362
 40
0.4469025530774772
 40
0.5108844108059716
 40
0.5755085115595242
 40
0.6416779684505667
 40
0.7089396351518251
 40
0.7785227495311358
 40
0.8497304595505929
 40
0.9237276041935703
 40
1.0
 40
1.0
 40
1.0
 40
1.0
 10
73.6667336683417
 20
-12.29829145728638
 30
0.0
 10
73.60040196246219
 20
-12.31546454254094
 30
0.0
 10
73.46797217022657
 20
-12.34975022963658
 30
0.0
 10
73.27721128764604
 20
-12.42458027954218
 30
0.0
 10
73.09720874956533
 20
-12.52152502249262
 30
0.0
 10
72.92933050666613
 20
-12.64222763443418
 30
0.0
 10
72.77045573600522
 20
-12.78149716173555
 30
0.0
 10
72.62205749033362
 20
-12.9426562559785
 30
0.0
 10
72.48535199558506
 20
-13.1244096068081
 30
0.0
 10
72.35723224973404
 20
-13.32361282716786
 30
0.0
 10
72.24573475392253
 20
-13.54015503305047
 30
0.0
 10
72.14610105851932
 20
-13.76795762325622
 30
0.0
 10
72.06126524909412
 20
-14.00633204796873
 30
0.0
 10
71.99529434172928
 20
-14.25694017884436
 30
0.0
 10
71.93737275759096
 20
-14.5162715051947
 30
0.0
 10
71.90434175080117
 20
-14.78854760245981
 30
0.0
 10
71.87763245609962
 20
-15.0700267526664
 30
0.0
 10
71.8756029711484
 20
-15.26183815680019
 30
0.0
 10
71.87457286432159
 20
-15.35919597989944
 30
0.0
  0
SPLINE
  5
104
330
1F
100
AcDbEntity
  8
0
  6
Continuous
 62
     7
370
    25
100
AcDbSpline
210
0.0
220
0.0
230
1.0
 70
     8
 71
     3
 72
    21
 73
    17
 74
     0
 42
0.000000001
 43
0.00000001
 40
0.0
 40
0.0
 40
0.0
 40
0.0
 40
0.149773889189189
 40
0.2931527577652336
 40
0.3618214899662116
 40
0.4279956072013552
 40
0.4923412761802627
 40
0.554552813895193
 40
0.6147182833879506
 40
0.6728210521677306
 40
0.7295047760102689
 40
0.7848186760985265
 40
0.8394815788783985
 40
0.8926301154686062
 40
0.945792904817611
 40
1.0
 40
1.0
 40
1.0
 40
1.0
 10
71.8745728643216
 20
-15.35919597989945
 30
0.0
 10
71.88075977149074
 20
-15.5548952363851
 30
0.0
 10
71.89286941829559
 20
-15.93793781504783
 30
0.0
 10
71.9683208235959
 20
-16.40613217840754
 30
0.0
 10
72.05869786809245
 20
-16.75838319225916
 30
0.0
 10
72.1416597789515
 20
-17.00522574701691
 30
0.0
 10
72.23515778825806
 20
-17.23913480588647
 30
0.0
 10
72.34058531938429
 20
-17.45934828798401
 30
0.0
 10
72.46065846197146
 20
-17.6627211941589
 30
0.0
 10
72.5970420198107
 20
-17.84653554882603
 30
0.0
 10
72.74384115070868
 20
-18.01370650756706
 30
0.0
 10
72.90344603212426
 20
-18.16244822721954
 30
0.0
 10
73.07646539971527
 20
-18.28791590524716
 30
0.0
 10
73.2619058593026
 20
-18.38817390906214
 30
0.0
 10
73.45908578234044
 20
-18.46250059376306
 30
0.0
 10
73.59707034909394
 20
-18.48882189727878
 30
0.0
 10
73.6667336683417
 20
-18.50211055276377
 30
0.0
  0
LINE
  5
105
330
1F
100
AcDbEntity
  8
0
  6
Continuous
 62
     7
370
    25
100
AcDbLine
 10
80.7606030151
 20
-10.8172864322
 30
0.0
 11
82.7457286432
 21
-10.8172864322
 31
0.0
  0
LINE
  5
106
330
1F
100
AcDbEntity
  8
0
  6
Continuous
 62
     7
370
    25
100
AcDbLine
 10
82.7457286432
 20
-10.8172864322
 30
0.0
 11
82.7457286432
 21
-15.8150753769
 31
0.0
  0
SPLINE
  5
107
330
1F
100
AcDbEntity
  8
0
  6
Continuous
 62
     7
370
    25
100
AcDbSpline
210
0.0
220
0.0
230
1.0
 70
     8
 71
     3
 72
    21
 73
    17
 74
     0
 42
0.000000001
 43
0.00000001
 40
0.0
 40
0.0
 40
0.0
 40
0.0
 40
0.1503440740512774
 40
0.2917687162229045
 40
0.3582479777600437
 40
0.4209595020495402
 40
0.481091928127554
 40
0.5382679226467751
 40
0.5931082590449357
 40
0.646523406070733
 40
0.6996979890195045
 40
0.7531334730523296
 40
0.808329278082163
 40
0.8669131581335658
 40
0.9300081370771097
 40
1.0
 40
1.0
 40
1.0
 40
1.0
 10
82.74572864321601
 20
-15.81507537688437
 30
0.0
 10
82.74798505327814
 20
-15.99845949611381
 30
0.0
 10
82.75236400782786
 20
-16.35434814274574
 30
0.0
 10
82.78220842111037
 20
-16.79038879138523
 30
0.0
 10
82.82027438958832
 20
-17.11863590492299
 30
0.0
 10
82.87193297940286
 20
-17.34388426280633
 30
0.0
 10
82.92628896489471
 20
-17.556832024236
 30
0.0
 10
83.0021473474242
 20
-17.75301721790554
 30
0.0
 10
83.09236079971005
 20
-17.93413766343364
 30
0.0
 10
83.20800186265372
 20
-18.09441127196916
 30
0.0
 10
83.3410620930695
 20
-18.2378075232914
 30
0.0
 10
83.49435938709969
 20
-18.36326551259013
 30
0.0
 10
83.6730610325859
 20
-18.46420303481569
 30
0.0
 10
83.87872926107842
 20
-18.53215335790137
 30
0.0
 10
84.10900285163754
 20
-18.57732089816329
 30
0.0
 10
84.27151694176514
 20
-18.58177705837605
 30
0.0
 10
84.35698492462305
 20
-18.58412060301502
 30
0.0
  0
SPLINE
  5
108
330
1F
100
AcDbEntity
  8
0
  6
Continuous
 62
     7
370
    25
100
AcDbSpline
210
0.0
220
0.0
230
1.0
 70
     8
 71
     3
 72
    13
 73
     9
 74
     0
 42
0.000000001
 43
0.00000001
 40
0.0
 40
0.0
 40
0.0
 40
0.0
 40
0.0852369675280606
 40
0.1864196606290625
 40
0.3036983962595855
 40
0.4374291533996169
 40
0.7207792912666277
 40
1.0
 40
1.0
 40
1.0
 40
1.0
 10
84.35698492462305
 20
-18.58412060301502
 30
0.0
 10
84.39640405442223
 20
-18.58288816144009
 30
0.0
 10
84.48261665691821
 20
-18.58019271899525
 30
0.0
 10
84.62254889786965
 20
-18.56702095736698
 30
0.0
 10
84.78439604827835
 20
-18.54811700247433
 30
0.0
 10
85.0284722584565
 20
-18.50909468153858
 30
0.0
 10
85.34438197925392
 20
-18.44158754655001
 30
0.0
 10
85.58882592483049
 20
-18.35146445140808
 30
0.0
 10
85.71015075376879
 20
-18.30673366834166
 30
0.0
  0
LINE
  5
109
330
1F
100
AcDbEntity
  8
0
  6
Continuous
 62
     7
370
    25
100
AcDbLine
 10
85.7101507538
 20
-18.3067336683
 30
0.0
 11
85.7101507538
 21
-19.5103517588
 31
0.0
  0
SPLINE
  5
10A
330
1F
100
AcDbEntity
  8
0
  6
Continuous
 62
     7
370
    25
100
AcDbSpline
210
0.0
220
0.0
230
1.0
 70
     8
 71
     3
 72
    13
 73
     9
 74
     0
 42
0.000000001
 43
0.00000001
 40
0.0
 40
0.0
 40
0.0
 40
0.0
 40
0.244344743327998
 40
0.5005565920930257
 40
0.6297133291057104
 40
0.7550056462709747
 40
0.8786297960359222
 40
1.0
 40
1.0
 40
1.0
 40
1.0
 10
85.71015075376879
 20
-19.51035175879392
 30
0.0
 10
85.56416588281749
 20
-19.5844184571685
 30
0.0
 10
85.26510608515115
 20
-19.73614905558859
 30
0.0
 10
84.87065406203175
 20
-19.88729301751226
 30
0.0
 10
84.54381207672522
 20
-19.98877192863005
 30
0.0
 10
84.29584974191226
 20
-20.0407647705921
 30
0.0
 10
84.05015071585142
 20
-20.07758828398378
 30
0.0
 10
83.88596213786663
 20
-20.08054519601657
 30
0.0
 10
83.80462311557784
 20
-20.08201005025121
 30
0.0
  0
SPLINE
  5
10B
330
1F
100
AcDbEntity
  8
0
  6
Continuous
 62
     7
370
    25
100
AcDbSpline
210
0.0
220
0.0
230
1.0
 70
     8
 71
     3
 72
    15
 73
    11
 74
     0
 42
0.000000001
 43
0.00000001
 40
0.0
 40
0.0
 40
0.0
 40
0.0
 40
0.1425967052307285
 40
0.2709044203803488
 40
0.39110549986489
 40
0.509384729761024
 40
0.6281833318297078
 40
0.7478425447410435
 40
0.8705081717007537
 40
0.9999999999999999
 40
0.9999999999999999
 40
0.9999999999999999
 40
0.9999999999999999
 10
83.80462311557783
 20
-20.0820100502512
 30
0.0
 10
83.6806173689954
 20
-20.07824328029867
 30
0.0
 10
83.44503194752737
 20
-20.07108719188102
 30
0.0
 10
83.10783430404521
 20
-20.01909075314627
 30
0.0
 10
82.80194781780418
 20
-19.92401407236666
 30
0.0
 10
82.52329307282416
 20
-19.78459053330001
 30
0.0
 10
82.26037388165767
 20
-19.61943962924584
 30
0.0
 10
82.00830695856136
 20
-19.43178326195412
 30
0.0
 10
81.761719165574
 20
-19.22226110165442
 30
0.0
 10
81.60546711836426
 20
-19.06837349631931
 30
0.0
 10
81.52522613065321
 20
-18.98934673366829
 30
0.0
  0
SPLINE
  5
10C
330
1F
100
AcDbEntity
  8
0
  6
Continuous
 62
     7
370
    25
100
AcDbSpline
210
0.0
220
0.0
230
1.0
 70
     8
 71
     3
 72
    17
 73
    13
 74
     0
 42
0.000000001
 43
0.00000001
 40
0.0
 40
0.0
 40
0.0
 40
0.0
 40
0.0609257255787117
 40
0.1219590484070054
 40
0.1827300625710466
 40
0.2452229234424554
 40
0.3702291853436491
 40
0.4962695041691073
 40
0.6236023470739438
 40
0.7499704225925014
 40
0.8761215958369197
 40
0.9999999999999999
 40
0.9999999999999999
 40
0.9999999999999999
 40
0.9999999999999999
 10
81.52522613065321
 20
-18.98934673366829
 30
0.0
 10
81.47966834485212
 20
-18.94303850870473
 30
0.0
 10
81.38847231639193
 20
-18.85034027661428
 30
0.0
 10
81.27590947220074
 20
-18.6911174134168
 30
0.0
 10
81.16862465019193
 20
-18.52668672047473
 30
0.0
 10
81.052590842932
 20
-18.2886741843401
 30
0.0
 10
80.93633055126301
 20
-17.97505184868132
 30
0.0
 10
80.83982918111396
 20
-17.583096695218
 30
0.0
 10
80.78706266868828
 20
-17.18173605390037
 30
0.0
 10
80.76418454552555
 20
-16.77779249257883
 30
0.0
 10
80.76334490265344
 20
-16.37707965032237
 30
0.0
 10
80.7615114221549
 20
-16.11095049695165
 30
0.0
 10
80.76060301507532
 20
-15.97909547738688
 30
0.0
  0
LINE
  5
10D
330
1F
100
AcDbEntity
  8
0
  6
Continuous
 62
     7
370
    25
100
AcDbLine
 10
80.7606030151
 20
-15.9790954774
 30
0.0
 11
80.7606030151
 21
-10.8172864322
 31
0.0
  0
LINE
  5
10E
330
1F
100
AcDbEntity
  8
0
  6
Continuous
 62
     7
370
    25
100
AcDbLine
 10
86.375879397
 20
-19.0544723618
 30
0.0
 11
86.375879397
 21
-10.8172864322
 31
0.0
  0
LINE
  5
10F
330
1F
100
AcDbEntity
  8
0
  6
Continuous
 62
     7
370
    25
100
AcDbLine
 10
86.375879397
 20
-10.8172864322
 30
0.0
 11
88.3634170854
 21
-10.8172864322
 31
0.0
  0
LINE
  5
110
330
1F
100
AcDbEntity
  8
0
  6
Continuous
 62
     7
370
    25
100
AcDbLine
 10
88.3634170854
 20
-10.8172864322
 30
0.0
 11
88.3634170854
 21
-20.0
 31
0.0
  0
LINE
  5
111
330
1F
100
AcDbEntity
  8
0
  6
Continuous
 62
     7
370
    25
100
AcDbLine
 10
88.3634170854
 20
-20.0
 30
0.0
 11
86.5881407035
 21
-20.0
 31
0.0
  0
LINE
  5
112
330
1F
100
AcDbEntity
  8
0
  6
Continuous
 62
     7
370
    25
100
AcDbLine
 10
86.5881407035
 20
-20.0
 30
0.0
 11
86.375879397
 21
-19.0544723618
 31
0.0
  0
LINE
  5
113
330
1F
100
AcDbEntity
  8
0
  6
Continuous
 62
     7
370
    25
100
AcDbLine
 10
95.2546733668
 20
-12.1511557789
 30
0.0
 11
93.7881407035
 21
-12.1511557789
 31
0.0
  0
LINE
  5
114
330
1F
100
AcDbEntity
  8
0
  6
Continuous
 62
     7
370
    25
100
AcDbLine
 10
93.7881407035
 20
-12.1511557789
 30
0.0
 11
93.7881407035
 21
-17.2164824121
 31
0.0
  0
SPLINE
  5
115
330
1F
100
AcDbEntity
  8
0
  6
Continuous
 62
     7
370
    25
100
AcDbSpline
210
0.0
220
0.0
230
1.0
 70
     8
 71
     3
 72
    19
 73
    15
 74
     0
 42
0.000000001
 43
0.00000001
 40
0.0
 40
0.0
 40
0.0
 40
0.0
 40
0.0908524964108785
 40
0.1720829958009096
 40
0.2436618013726397
 40
0.3075180424996644
 40
0.3654924563996037
 40
0.4213118987173256
 40
0.4754082606457352
 40
0.5295503258631518
 40
0.6394056811556083
 40
0.7523817191259432
 40
0.8730172538392851
 40
1.0
 40
1.0
 40
1.0
 40
1.0
 10
93.78814070351754
 20
-17.21648241206025
 30
0.0
 10
93.79003425304099
 20
-17.30337982634567
 30
0.0
 10
93.79362081023606
 20
-17.46797153233426
 30
0.0
 10
93.81885402641653
 20
-17.70006220025299
 30
0.0
 10
93.86371081035627
 20
-17.90286185418277
 30
0.0
 10
93.92850344422672
 20
-18.077009748766
 30
0.0
 10
94.01350746941307
 20
-18.22472896237358
 30
0.0
 10
94.10946075543359
 20
-18.35411673308108
 30
0.0
 10
94.22245718991965
 20
-18.46387254624745
 30
0.0
 10
94.39120759308187
 20
-18.58770505318882
 30
0.0
 10
94.63730378646243
 20
-18.69371746390843
 30
0.0
 10
94.95931796789975
 20
-18.76488213175079
 30
0.0
 10
95.30418079188003
 20
-18.78733555365544
 30
0.0
 10
95.54091192228944
 20
-18.79172094704849
 30
0.0
 10
95.6623115577889
 20
-18.79396984924618
 30
0.0
  0
LINE
  5
116
330
1F
100
AcDbEntity
  8
0
  6
Continuous
 62
     7
370
    25
100
AcDbLine
 10
95.6623115578
 20
-18.7939698492
 30
0.0
 11
95.6623115578
 21
-20.0
 31
0.0
  0
SPLINE
  5
117
330
1F
100
AcDbEntity
  8
0
  6
Continuous
 62
     7
370
    25
100
AcDbSpline
210
0.0
220
0.0
230
1.0
 70
     8
 71
     3
 72
     9
 73
     5
 74
     0
 42
0.000000001
 43
0.00000001
 40
0.0
 40
0.0
 40
0.0
 40
0.0
 40
0.5006373496653012
 40
1.0
 40
1.0
 40
1.0
 40
1.0
 10
95.6623115577889
 20
-19.99999999999995
 30
0.0
 10
95.59160299894714
 20
-20.00924211984742
 30
0.0
 10
95.45036591607864
 20
-20.02770282769042
 30
0.0
 10
95.30858769364018
 20
-20.04140090022483
 30
0.0
 10
95.23778894472356
 20
-20.0482412060301
 30
0.0
  0
SPLINE
  5
118
330
1F
100
AcDbEntity
  8
0
  6
Continuous
 62
     7
370
    25
100
AcDbSpline
210
0.0
220
0.0
230
1.0
 70
     8
 71
     3
 72
    11
 73
     7
 74
     0
 42
0.000000001
 43
0.00000001
 40
0.0
 40
0.0
 40
0.0
 40
0.0
 40
0.213350117949082
 40
0.4653889597792237
 40
0.7327133725194083
 40
1.0
 40
1.0
 40
1.0
 40
1.0
 10
95.23778894472358
 20
-20.04824120603011
 30
0.0
 10
95.17187648337371
 20
-20.05329041590938
 30
0.0
 10
95.02809905255255
 20
-20.06430445497347
 30
0.0
 10
94.80134805963694
 20
-20.07658635816665
 30
0.0
 10
94.55759484479893
 20
-20.07976308860573
 30
0.0
 10
94.39195819840401
 20
-20.08126109832817
 30
0.0
 10
94.30914572864317
 20
-20.0820100502512
 30
0.0
  0
SPLINE
  5
119
330
1F
100
AcDbEntity
  8
0
  6
Continuous
 62
     7
370
    25
100
AcDbSpline
210
0.0
220
0.0
230
1.0
 70
     8
 71
     3
 72
    11
 73
     7
 74
     0
 42
0.000000001
 43
0.00000001
 40
0.0
 40
0.0
 40
0.0
 40
0.0
 40
0.2647829689562228
 40
0.5350176461018498
 40
0.7852697983362432
 40
0.9999999999999999
 40
0.9999999999999999
 40
0.9999999999999999
 40
0.9999999999999999
 10
94.30914572864317
 20
-20.0820100502512
 30
0.0
 10
94.22712679444531
 20
-20.0808123160317
 30
0.0
 10
94.06140020982659
 20
-20.07839218702831
 30
0.0
 10
93.81831545445411
 20
-20.06746379684611
 30
0.0
 10
93.59141419633873
 20
-20.04643687812576
 30
0.0
 10
93.44878236628539
 20
-20.0262204344997
 30
0.0
 10
93.38291457286427
 20
-20.0168844221105
 30
0.0
  0
SPLINE
  5
11A
330
1F
100
AcDbEntity
  8
0
  6
Continuous
 62
     7
370
    25
100
AcDbSpline
210
0.0
220
0.0
230
1.0
 70
     8
 71
     3
 72
    21
 73
    17
 74
     0
 42
0.000000001
 43
0.00000001
 40
0.0
 40
0.0
 40
0.0
 40
0.0
 40
0.0755473856582475
 40
0.1452754227388523
 40
0.2134214968187224
 40
0.2808328835958389
 40
0.3490417514234824
 40
0.4159330455676809
 40
0.4834813355176328
 40
0.5510529714593277
 40
0.6832906117638395
 40
0.8089977550823076
 40
0.8669205079264676
 40
0.9180496229462694
 40
0.9624011897777082
 40
0.9999999999999999
 40
0.9999999999999999
 40
0.9999999999999999
 40
0.9999999999999999
 10
93.38291457286427
 20
-20.0168844221105
 30
0.0
 10
93.29431844558373
 20
-19.9974609225144
 30
0.0
 10
93.12395067267455
 20
-19.96011009838853
 30
0.0
 10
92.88927812661524
 20
-19.8548956330111
 30
0.0
 10
92.68285324887704
 20
-19.7183240765245
 30
0.0
 10
92.51439798422864
 20
-19.53944630345966
 30
0.0
 10
92.37320829968846
 20
-19.34195554119297
 30
0.0
 10
92.24595013247003
 20
-19.13506209448501
 30
0.0
 10
92.13659409081143
 20
-18.9187284334024
 30
0.0
 10
92.02429964645631
 20
-18.61841340076125
 30
0.0
 10
91.92189277914339
 20
-18.24137998449459
 30
0.0
 10
91.86260973227351
 20
-17.86687409799794
 30
0.0
 10
91.8420231615955
 20
-17.5864130955712
 30
0.0
 10
91.82947150415384
 20
-17.40311853438934
 30
0.0
 10
91.82164875645236
 20
-17.24388700897313
 30
0.0
 10
91.8204496480769
 20
-17.14573543325561
 30
0.0
 10
91.81989949748738
 20
-17.10070351758789
 30
0.0
  0
LINE
  5
11B
330
1F
100
AcDbEntity
  8
0
  6
Continuous
 62
     7
370
    25
100
AcDbLine
 10
91.8198994975
 20
-17.1007035176
 30
0.0
 11
91.8198994975
 21
-12.1511557789
 31
0.0
  0
LINE
  5
11C
330
1F
100
AcDbEntity
  8
0
  6
Continuous
 62
     7
370
    25
100
AcDbLine
 10
91.8198994975
 20
-12.1511557789
 30
0.0
 11
90.6138693467
 21
-12.1511557789
 31
0.0
  0
LINE
  5
11D
330
1F
100
AcDbEntity
  8
0
  6
Continuous
 62
     7
370
    25
100
AcDbLine
 10
90.6138693467
 20
-12.1511557789
 30
0.0
 11
90.6138693467
 21
-10.8172864322
 31
0.0
  0
LINE
  5
11E
330
1F
100
AcDbEntity
  8
0
  6
Continuous
 62
     7
370
    25
100
AcDbLine
 10
90.6138693467
 20
-10.8172864322
 30
0.0
 11
91.8198994975
 21
-10.8172864322
 31
0.0
  0
LINE
  5
11F
330
1F
100
AcDbEntity
  8
0
  6
Continuous
 62
     7
370
    25
100
AcDbLine
 10
91.8198994975
 20
-10.8172864322
 30
0.0
 11
91.8198994975
 21
-8.2122613065
 31
0.0
  0
LINE
  5
120
330
1F
100
AcDbEntity
  8
0
  6
Continuous
 62
     7
370
    25
100
AcDbLine
 10
91.8198994975
 20
-8.2122613065
 30
0.0
 11
93.7881407035
 21
-8.2122613065
 31
0.0
  0
LINE
  5
121
330
1F
100
AcDbEntity
  8
0
  6
Continuous
 62
     7
370
    25
100
AcDbLine
 10
93.7881407035
 20
-8.2122613065
 30
0.0
 11
93.7881407035
 21
-10.8172864322
 31
0.0
  0
LINE
  5
122
330
1F
100
AcDbEntity
  8
0
  6
Continuous
 62
     7
370
    25
100
AcDbLine
 10
93.7881407035
 20
-10.8172864322
 30
0.0
 11
95.2546733668
 21
-10.8172864322
 31
0.0
  0
LINE
  5
123
330
1F
100
AcDbEntity
  8
0
  6
Continuous
 62
     7
370
    25
100
AcDbLine
 10
95.2546733668
 20
-10.8172864322
 30
0.0
 11
95.2546733668
 21
-12.1511557789
 31
0.0
  0
LINE
  5
124
330
1F
100
AcDbEntity
  8
0
  6
Continuous
 62
     7
370
    25
100
AcDbLine
 10
-41.9167839196
 20
-10.8172864322
 30
0.0
 11
-39.9316582915
 21
-10.8172864322
 31
0.0
  0
LINE
  5
125
330
1F
100
AcDbEntity
  8
0
  6
Continuous
 62
     7
370
    25
100
AcDbLine
 10
-39.9316582915
 20
-10.8172864322
 30
0.0
 11
-39.9316582915
 21
-20.0
 31
0.0
  0
LINE
  5
126
330
1F
100
AcDbEntity
  8
0
  6
Continuous
 62
     7
370
    25
100
AcDbLine
 10
-39.9316582915
 20
-20.0
 30
0.0
 11
-41.9167839196
 21
-20.0
 31
0.0
  0
LINE
  5
127
330
1F
100
AcDbEntity
  8
0
  6
Continuous
 62
     7
370
    25
100
AcDbLine
 10
-41.9167839196
 20
-20.0
 30
0.0
 11
-41.9167839196
 21
-10.8172864322
 31
0.0
  0
SPLINE
  5
128
330
1F
100
AcDbEntity
  8
0
  6
Continuous
 62
     7
370
    25
100
AcDbSpline
210
0.0
220
0.0
230
1.0
 70
     8
 71
     3
 72
    13
 73
     9
 74
     0
 42
0.000000001
 43
0.00000001
 40
0.0
 40
0.0
 40
0.0
 40
0.0
 40
0.2464871632780156
 40
0.50304813893628
 40
0.6327293346036407
 40
0.7576259171432852
 40
0.8798363582982869
 40
1.0
 40
1.0
 40
1.0
 40
1.0
 10
-54.08321608040207
 20
-11.27316582914568
 30
0.0
 10
-53.93167996312753
 20
-11.19955590779589
 30
0.0
 10
-53.62241451999935
 20
-11.0493276628447
 30
0.0
 10
-53.21412791494588
 20
-10.90526112186152
 30
0.0
 10
-52.87889378878784
 20
-10.80699610653363
 30
0.0
 10
-52.62617392307418
 20
-10.75722633453508
 30
0.0
 10
-52.37720405288787
 20
-10.72340674829872
 30
0.0
 10
-52.2115665835901
 20
-10.72005411854182
 30
0.0
 10
-52.12944723618097
 20
-10.71839195979894
 30
0.0
  0
SPLINE
  5
129
330
1F
100
AcDbEntity
  8
0
  6
Continuous
 62
     7
370
    25
100
AcDbSpline
210
0.0
220
0.0
230
1.0
 70
     8
 71
     3
 72
    15
 73
    11
 74
     0
 42
0.000000001
 43
0.00000001
 40
0.0
 40
0.0
 40
0.0
 40
0.0
 40
0.1364938567180972
 40
0.263410618340385
 40
0.3838632723935807
 40
0.4986672529411902
 40
0.6154429719606996
 40
0.7367965559496524
 40
0.8652861690047645
 40
1.0
 40
1.0
 40
1.0
 40
1.0
 10
-52.12944723618097
 20
-10.71839195979894
 30
0.0
 10
-52.01181521683656
 20
-10.72198274598586
 30
0.0
 10
-51.78480483192133
 20
-10.72891237075115
 30
0.0
 10
-51.45797736802795
 20
-10.78527373692631
 30
0.0
 10
-51.15849734752464
 20
-10.87706678557733
 30
0.0
 10
-50.88772637469858
 20
-11.01616546752243
 30
0.0
 10
-50.6337334327171
 20
-11.18360714105004
 30
0.0
 10
-50.38119767969125
 20
-11.373446589357
 30
0.0
 10
-50.1282224188977
 20
-11.58763771433187
 30
0.0
 10
-49.96496572431782
 20
-11.74499063965385
 30
0.0
 10
-49.88140703517595
 20
-11.8255276381909
 30
0.0
  0
SPLINE
  5
12A
330
1F
100
AcDbEntity
  8
0
  6
Continuous
 62
     7
370
    25
100
AcDbSpline
210
0.0
220
0.0
230
1.0
 70
     8
 71
     3
 72
    17
 73
    13
 74
     0
 42
0.000000001
 43
0.00000001
 40
0.0
 40
0.0
 40
0.0
 40
0.0
 40
0.0610803829920995
 40
0.1216146378301803
 40
0.182347195882758
 40
0.2442885966869935
 40
0.3689936612362305
 40
0.4958134668952133
 40
0.622728047248259
 40
0.7502300054917461
 40
0.8758955501422467
 40
1.0
 40
1.0
 40
1.0
 40
1.0
 10
-49.88140703517595
 20
-11.8255276381909
 30
0.0
 10
-49.83711506931796
 20
-11.87300983837592
 30
0.0
 10
-49.74892715819593
 20
-11.96754969382553
 30
0.0
 10
-49.63230046631139
 20
-12.12283603435784
 30
0.0
 10
-49.53300629432993
 20
-12.29071449060051
 30
0.0
 10
-49.42214282193456
 20
-12.52931181425431
 30
0.0
 10
-49.30895532272808
 20
-12.84341580962424
 30
0.0
 10
-49.21678093491813
 20
-13.23560324634887
 30
0.0
 10
-49.16067724538429
 20
-13.63717212627487
 30
0.0
 10
-49.13032669275516
 20
-14.04011568407787
 30
0.0
 10
-49.12069523454196
 20
-14.44095256237463
 30
0.0
 10
-49.11808224741011
 20
-14.70633104058611
 30
0.0
 10
-49.11678391959807
 20
-14.83819095477382
 30
0.0
  0
LINE
  5
12B
330
1F
100
AcDbEntity
  8
0
  6
Continuous
 62
     7
370
    25
100
AcDbLine
 10
-49.1167839196
 20
-14.8381909548
 30
0.0
 11
-49.1167839196
 21
-20.0
 31
0.0
  0
LINE
  5
12C
330
1F
100
AcDbEntity
  8
0
  6
Continuous
 62
     7
370
    25
100
AcDbLine
 10
-49.1167839196
 20
-20.0
 30
0.0
 11
-51.104321608
 21
-20.0
 31
0.0
  0
LINE
  5
12D
330
1F
100
AcDbEntity
  8
0
  6
Continuous
 62
     7
370
    25
100
AcDbLine
 10
-51.104321608
 20
-20.0
 30
0.0
 11
-51.104321608
 21
-15.0022110553
 31
0.0
  0
SPLINE
  5
12E
330
1F
100
AcDbEntity
  8
0
  6
Continuous
 62
     7
370
    25
100
AcDbSpline
210
0.0
220
0.0
230
1.0
 70
     8
 71
     3
 72
    21
 73
    17
 74
     0
 42
0.000000001
 43
0.00000001
 40
0.0
 40
0.0
 40
0.0
 40
0.0
 40
0.1473890218742067
 40
0.2878816179190907
 40
0.3552218374688008
 40
0.41893932783396
 40
0.4804755981451084
 40
0.5398227501073384
 40
0.5966483540957604
 40
0.6502462799380011
 40
0.7026260499548601
 40
0.7542802348264817
 40
0.807080012058866
 40
0.8646591500515199
 40
0.928507763797543
 40
1.0
 40
1.0
 40
1.0
 40
1.0
 10
-51.10432160804027
 20
-15.00221105527633
 30
0.0
 10
-51.10656542975609
 20
-14.82123447327476
 30
0.0
 10
-51.11094808334629
 20
-14.46774931834548
 30
0.0
 10
-51.1414410035087
 20
-14.0325958457143
 30
0.0
 10
-51.17859683575268
 20
-13.70089596238195
 30
0.0
 10
-51.23181746371947
 20
-13.47018161543433
 30
0.0
 10
-51.29508905196572
 20
-13.25230028200941
 30
0.0
 10
-51.37789133007269
 20
-13.05014820814938
 30
0.0
 10
-51.47179104717105
 20
-12.8635353661941
 30
0.0
 10
-51.58752800408222
 20
-12.69975775154058
 30
0.0
 10
-51.71798662110711
 20
-12.556146234086
 30
0.0
 10
-51.86694496253782
 20
-12.43293874047156
 30
0.0
 10
-52.04042871066588
 20
-12.33325440580218
 30
0.0
 10
-52.24405799032557
 20
-12.26410368447008
 30
0.0
 10
-52.4784331963567
 20
-12.22404154355996
 30
0.0
 10
-52.64465668121007
 20
-12.21896371248113
 30
0.0
 10
-52.73246231155785
 20
-12.21628140703512
 30
0.0
  0
SPLINE
  5
12F
330
1F
100
AcDbEntity
  8
0
  6
Continuous
 62
     7
370
    25
100
AcDbSpline
210
0.0
220
0.0
230
1.0
 70
     8
 71
     3
 72
    13
 73
     9
 74
     0
 42
0.000000001
 43
0.00000001
 40
0.0
 40
0.0
 40
0.0
 40
0.0
 40
0.088280152896804
 40
0.1908560672703276
 40
0.3094982223174399
 40
0.4414629945420528
 40
0.7195932793798581
 40
1.0
 40
1.0
 40
1.0
 40
1.0
 10
-52.73246231155785
 20
-12.21628140703512
 30
0.0
 10
-52.77350769936299
 20
-12.21730532796578
 30
0.0
 10
-52.8622452132777
 20
-12.21951897979587
 30
0.0
 10
-53.00522698516411
 20
-12.2363906245598
 30
0.0
 10
-53.16827304699871
 20
-12.2561120654453
 30
0.0
 10
-53.40941085916078
 20
-12.30369430544645
 30
0.0
 10
-53.72372982095454
 20
-12.37420387367372
 30
0.0
 10
-53.9630621773615
 20
-12.47622081796139
 30
0.0
 10
-54.08321608040207
 20
-12.5274371859296
 30
0.0
  0
LINE
  5
130
330
1F
100
AcDbEntity
  8
0
  6
Continuous
 62
     7
370
    25
100
AcDbLine
 10
-54.0832160804
 20
-12.5274371859
 30
0.0
 11
-54.0832160804
 21
-11.2731658291
 31
0.0
  0
LINE
  5
131
330
1F
100
AcDbEntity
  8
0
  6
Continuous
 62
     7
370
    25
100
AcDbLine
 10
-56.7195979899
 20
-20.0
 30
0.0
 11
-56.7195979899
 21
-10.8172864322
 31
0.0
  0
LINE
  5
132
330
1F
100
AcDbEntity
  8
0
  6
Continuous
 62
     7
370
    25
100
AcDbLine
 10
-56.7195979899
 20
-10.8172864322
 30
0.0
 11
-54.9612060302
 21
-10.8172864322
 31
0.0
  0
LINE
  5
133
330
1F
100
AcDbEntity
  8
0
  6
Continuous
 62
     7
370
    25
100
AcDbLine
 10
-54.9612060302
 20
-10.8172864322
 30
0.0
 11
-54.7513567839
 21
-11.7459296482
 31
0.0
  0
LINE
  5
134
330
1F
100
AcDbEntity
  8
0
  6
Continuous
 62
     7
370
    25
100
AcDbLine
 10
-54.7513567839
 20
-11.7459296482
 30
0.0
 11
-54.7513567839
 21
-20.0
 31
0.0
  0
LINE
  5
135
330
1F
100
AcDbEntity
  8
0
  6
Continuous
 62
     7
370
    25
100
AcDbLine
 10
-54.7513567839
 20
-20.0
 30
0.0
 11
-56.7195979899
 21
-20.0
 31
0.0
  0
SPLINE
  5
136
330
1F
100
AcDbEntity
  8
0
  6
Continuous
 62
     7
370
    25
100
AcDbSpline
210
0.0
220
0.0
230
1.0
 70
     8
 71
     3
 72
    21
 73
    17
 74
     0
 42
0.000000001
 43
0.00000001
 40
0.0
 40
0.0
 40
0.0
 40
0.0
 40
0.0727049530097974
 40
0.1416540901208187
 40
0.2086829195377611
 40
0.2746180998807877
 40
0.3402663731626476
 40
0.4047217236437852
 40
0.4691662267080703
 40
0.533686623392438
 40
0.6614985001120216
 40
0.7875437039707426
 40
0.848002979001701
 40
0.9034435784998807
 40
0.9538685927462611
 40
1.0
 40
1.0
 40
1.0
 40
1.0
 10
-63.92924623115582
 20
-12.28140703517583
 30
0.0
 10
-64.02575403525258
 20
-12.30362536453739
 30
0.0
 10
-64.21378421219308
 20
-12.34691426164034
 30
0.0
 10
-64.47687287888861
 20
-12.45608985365985
 30
0.0
 10
-64.71693130723372
 20
-12.59185392536414
 30
0.0
 10
-64.92328973085701
 20
-12.7677759910176
 30
0.0
 10
-65.10926400323083
 20
-12.95936825933088
 30
0.0
 10
-65.2699555774826
 20
-13.16997726313263
 30
0.0
 10
-65.41756414100307
 20
-13.38817668875848
 30
0.0
 10
-65.5749077128123
 20
-13.7006833465418
 30
0.0
 10
-65.72794858364537
 20
-14.10683124723949
 30
0.0
 10
-65.83115607900969
 20
-14.52282221168747
 30
0.0
 10
-65.8802620820871
 20
-14.84823890895739
 30
0.0
 10
-65.9104461083812
 20
-15.0724015913787
 30
0.0
 10
-65.9285616711709
 20
-15.27848791881537
 30
0.0
 10
-65.93038510575543
 20
-15.40981781255951
 30
0.0
 10
-65.93125628140707
 20
-15.4725628140703
 30
0.0
  0
SPLINE
  5
137
330
1F
100
AcDbEntity
  8
0
  6
Continuous
 62
     7
370
    25
100
AcDbSpline
210
0.0
220
0.0
230
1.0
 70
     8
 71
     3
 72
    23
 73
    19
 74
     0
 42
0.000000001
 43
0.00000001
 40
0.0
 40
0.0
 40
0.0
 40
0.0
 40
0.0698184896638215
 40
0.1366940555586719
 40
0.2025295296257137
 40
0.2660663063898289
 40
0.3276874685167031
 40
0.3877527858676382
 40
0.4459466911615321
 40
0.5036083163597307
 40
0.5605912797226673
 40
0.6172522097428993
 40
0.6750386383969157
 40
0.7334352157943906
 40
0.7941423742604466
 40
0.8585977375815229
 40
0.9269226555291871
 40
1.0
 40
1.0
 40
1.0
 40
1.0
 10
-65.93125628140707
 20
-15.4725628140703
 30
0.0
 10
-65.9295223395817
 20
-15.57716080179634
 30
0.0
 10
-65.92612754342736
 20
-15.78194786055962
 30
0.0
 10
-65.89584506259644
 20
-16.08408155281361
 30
0.0
 10
-65.84887887008136
 20
-16.37447387027406
 30
0.0
 10
-65.78089903639544
 20
-16.65258815604578
 30
0.0
 10
-65.6958342782285
 20
-16.91710205966502
 30
0.0
 10
-65.58399982852707
 20
-17.16281996039173
 30
0.0
 10
-65.45305576043054
 20
-17.39183135882599
 30
0.0
 10
-65.3018461574546
 20
-17.60279574792776
 30
0.0
 10
-65.12617685317059
 20
-17.79048214795192
 30
0.0
 10
-64.93459662494917
 20
-17.96213993632635
 30
0.0
 10
-64.72177440129006
 20
-18.11039422421607
 30
0.0
 10
-64.4908999143981
 20
-18.24157397400695
 30
0.0
 10
-64.23427198023379
 20
-18.34251176730141
 30
0.0
 10
-63.95376034458714
 20
-18.41754938610022
 30
0.0
 10
-63.64755553867743
 20
-18.46056342679359
 30
0.0
 10
-63.43571257900846
 20
-18.46569149772303
 30
0.0
 10
-63.32623115577893
 20
-18.46834170854266
 30
0.0
  0
SPLINE
  5
138
330
1F
100
AcDbEntity
  8
0
  6
Continuous
 62
     7
370
    25
100
AcDbSpline
210
0.0
220
0.0
230
1.0
 70
     8
 71
     3
 72
    15
 73
    11
 74
     0
 42
0.000000001
 43
0.00000001
 40
0.0
 40
0.0
 40
0.0
 40
0.0
 40
0.0849505410279007
 40
0.1899457224297065
 40
0.3100447761672789
 40
0.4403767808490902
 40
0.5780100150305771
 40
0.7202035658321375
 40
0.8622794675902408
 40
1.0
 40
1.0
 40
1.0
 40
1.0
 10
-63.32623115577894
 20
-18.46834170854266
 30
0.0
 10
-63.25944693193351
 20
-18.46594726530173
 30
0.0
 10
-63.11012030620832
 20
-18.46059339414666
 30
0.0
 10
-62.86761499450802
 20
-18.43173923681397
 30
0.0
 10
-62.59376030896907
 20
-18.37401496042317
 30
0.0
 10
-62.30128226842365
 20
-18.28526819278221
 30
0.0
 10
-62.00222381548885
 20
-18.16348527213392
 30
0.0
 10
-61.70261304123313
 20
-18.02058235941442
 30
0.0
 10
-61.41953563202937
 20
-17.84402095183153
 30
0.0
 10
-61.25705911437171
 20
-17.69503965449083
 30
0.0
 10
-61.17708542713572
 20
-17.62170854271352
 30
0.0
  0
LINE
  5
139
330
1F
100
AcDbEntity
  8
0
  6
Continuous
 62
     7
370
    25
100
AcDbLine
 10
-61.1770854271
 20
-17.6217085427
 30
0.0
 11
-60.4607035176
 21
-18.7143718593
 31
0.0
  0
SPLINE
  5
13A
330
1F
100
AcDbEntity
  8
0
  6
Continuous
 62
     7
370
    25
100
AcDbSpline
210
0.0
220
0.0
230
1.0
 70
     8
 71
     3
 72
    15
 73
    11
 74
     0
 42
0.000000001
 43
0.00000001
 40
0.0
 40
0.0
 40
0.0
 40
0.0
 40
0.1203605859363847
 40
0.2363044409494162
 40
0.3511419854945932
 40
0.4646061833471303
 40
0.5825010751546652
 40
0.7091673142100406
 40
0.8485837240288833
 40
1.0
 40
1.0
 40
1.0
 40
1.0
 10
-60.46070351758799
 20
-18.71437185929643
 30
0.0
 10
-60.55149975143697
 20
-18.82126093009705
 30
0.0
 10
-60.7297603764836
 20
-19.03111668912843
 30
0.0
 10
-61.03709533094948
 20
-19.30229302869576
 30
0.0
 10
-61.36171691065204
 20
-19.53825788865075
 30
0.0
 10
-61.71590453402516
 20
-19.73277437261017
 30
0.0
 10
-62.10537762991076
 20
-19.88457617296059
 30
0.0
 10
-62.54103122321146
 20
-19.98862732008013
 30
0.0
 10
-63.02353908311316
 20
-20.05412032961078
 30
0.0
 10
-63.36218379972824
 20
-20.06135765701256
 30
0.0
 10
-63.53849246231159
 20
-20.06512562814065
 30
0.0
  0
SPLINE
  5
13B
330
1F
100
AcDbEntity
  8
0
  6
Continuous
 62
     7
370
    25
100
AcDbSpline
210
0.0
220
0.0
230
1.0
 70
     8
 71
     3
 72
    23
 73
    19
 74
     0
 42
0.000000001
 43
0.00000001
 40
0.0
 40
0.0
 40
0.0
 40
0.0
 40
0.063131657143844
 40
0.1245204224978669
 40
0.1857010487224302
 40
0.2469165754781976
 40
0.3077860952785801
 40
0.3675936844127315
 40
0.4270470732377797
 40
0.4869745739807923
 40
0.5472810416828934
 40
0.6080481326342452
 40
0.6703168243492714
 40
0.7340470942587041
 40
0.7989699114782857
 40
0.8646540622597968
 40
0.9313955350801839
 40
1.0
 40
1.0
 40
1.0
 40
1.0
 10
-63.53849246231159
 20
-20.06512562814065
 30
0.0
 10
-63.68587136522189
 20
-20.06020304659236
 30
0.0
 10
-63.97656044401237
 20
-20.05049378246236
 30
0.0
 10
-64.40584040563606
 20
-19.98175092501711
 30
0.0
 10
-64.81933711544718
 20
-19.86466341153334
 30
0.0
 10
-65.21743793246999
 20
-19.70597470201329
 30
0.0
 10
-65.59291073814207
 20
-19.50591131660769
 30
0.0
 10
-65.94158886638908
 20
-19.26993345860632
 30
0.0
 10
-66.26584809753223
 20
-19.00443434828651
 30
0.0
 10
-66.55645669381344
 20
-18.70092270246847
 30
0.0
 10
-66.82078168423324
 20
-18.37049620191809
 30
0.0
 10
-67.05166823058073
 20
-18.00953868010678
 30
0.0
 10
-67.26104706143411
 20
-17.62662723084838
 30
0.0
 10
-67.43573057864712
 20
-17.21601780307418
 30
0.0
 10
-67.57972073639887
 20
-16.78513465468174
 30
0.0
 10
-67.67885946136468
 20
-16.33473907454701
 30
0.0
 10
-67.74551264182558
 20
-15.86932812524192
 30
0.0
 10
-67.75165859450394
 20
-15.5532030435829
 30
0.0
 10
-67.75477386934676
 20
-15.39296482412055
 30
0.0
  0
SPLINE
  5
13C
330
1F
100
AcDbEntity
  8
0
  6
Continuous
 62
     7
370
    25
100
AcDbSpline
210
0.0
220
0.0
230
1.0
 70
     8
 71
     3
 72
    23
 73
    19
 74
     0
 42
0.000000001
 43
0.00000001
 40
0.0
 40
0.0
 40
0.0
 40
0.0
 40
0.0691752597020422
 40
0.1369885733497548
 40
0.2036288029206371
 40
0.2703563410717532
 40
0.3359468634901319
 40
0.4000436677007549
 40
0.4623153847093302
 40
0.5238636273542359
 40
0.5846449679912203
 40
0.6448883907278958
 40
0.7043280527553384
 40
0.7639777122801262
 40
0.823193226495176
 40
0.8819927710854187
 40
0.9406672880077404
 40
1.0
 40
1.0
 40
1.0
 40
1.0
 10
-67.75477386934676
 20
-15.39296482412055
 30
0.0
 10
-67.75091611256194
 20
-15.24004004527764
 30
0.0
 10
-67.74327655182068
 20
-14.93720132268012
 30
0.0
 10
-67.6868991123482
 20
-14.48985686081079
 30
0.0
 10
-67.59252876677304
 20
-14.05472733392332
 30
0.0
 10
-67.45952646656231
 20
-13.63496476881959
 30
0.0
 10
-67.29612112711945
 20
-13.2322828576691
 30
0.0
 10
-67.10383136699022
 20
-12.85342422259311
 30
0.0
 10
-66.8825189685601
 20
-12.50128932053239
 30
0.0
 10
-66.63632859891342
 20
-12.17530800473284
 30
0.0
 10
-66.36600553895516
 20
-11.87492703434364
 30
0.0
 10
-66.07157401375231
 20
-11.60491987647065
 30
0.0
 10
-65.75574133967811
 20
-11.36454847421906
 30
0.0
 10
-65.42160093799225
 20
-11.15451337688279
 30
0.0
 10
-65.06907422006583
 20
-10.97963915138217
 30
0.0
 10
-64.70110484705648
 20
-10.84676268515979
 30
0.0
 10
-64.31996929176093
 20
-10.75464105418382
 30
0.0
 10
-64.0599706393465
 20
-10.73051983728734
 30
0.0
 10
-63.92924623115582
 20
-10.71839195979894
 30
0.0
  0
LINE
  5
13D
330
1F
100
AcDbEntity
  8
0
  6
Continuous
 62
     7
370
    25
100
AcDbLine
 10
-63.9292462312
 20
-10.7183919598
 30
0.0
 11
-63.9292462312
 21
-12.2814070352
 31
0.0
  0
SPLINE
  5
13E
330
1F
100
AcDbEntity
  8
0
  6
Continuous
 62
     7
370
    25
100
AcDbSpline
210
0.0
220
0.0
230
1.0
 70
     8
 71
     3
 72
    21
 73
    17
 74
     0
 42
0.000000001
 43
0.00000001
 40
0.0
 40
0.0
 40
0.0
 40
0.0
 40
0.0625463382734164
 40
0.1240113418592022
 40
0.1851608685787766
 40
0.246726483341304
 40
0.3086054536693614
 40
0.3699528690017566
 40
0.4321519086881316
 40
0.4952074298611182
 40
0.6212120942528176
 40
0.7468909290150295
 40
0.8096019715585182
 40
0.8717512387325067
 40
0.9351818995283528
 40
1.0
 40
1.0
 40
1.0
 40
1.0
 10
-61.29045226130657
 20
-14.64281407035171
 30
0.0
 10
-61.29279570675313
 20
-14.57283021279442
 30
0.0
 10
-61.29744208290276
 20
-14.43407241619531
 30
0.0
 10
-61.31974556503985
 20
-14.22749428442033
 30
0.0
 10
-61.3684568794998
 20
-14.02677676620282
 30
0.0
 10
-61.42759699266437
 20
-13.8286884813101
 30
0.0
 10
-61.50398390239178
 20
-13.63595486262071
 30
0.0
 10
-61.60052838868592
 20
-13.4520157468426
 30
0.0
 10
-61.70701524906159
 20
-13.27185781247194
 30
0.0
 10
-61.8798823928437
 20
-13.04954065132553
 30
0.0
 10
-62.11762710885118
 20
-12.78741141019903
 30
0.0
 10
-62.40277600287551
 20
-12.5776387958672
 30
0.0
 10
-62.64566530480484
 20
-12.43645949861222
 30
0.0
 10
-62.84155198742318
 20
-12.35702012596954
 30
0.0
 10
-63.0469856103303
 20
-12.29801288711297
 30
0.0
 10
-63.1892193106664
 20
-12.27736852391438
 30
0.0
 10
-63.26110552763822
 20
-12.26693467336678
 30
0.0
  0
LINE
  5
13F
330
1F
100
AcDbEntity
  8
0
  6
Continuous
 62
     7
370
    25
100
AcDbLine
 10
-63.2611055276
 20
-12.2669346734
 30
0.0
 11
-63.2611055276
 21
-10.7352763819
 31
0.0
  0
SPLINE
  5
140
330
1F
100
AcDbEntity
  8
0
  6
Continuous
 62
     7
370
    25
100
AcDbSpline
210
0.0
220
0.0
230
1.0
 70
     8
 71
     3
 72
    23
 73
    19
 74
     0
 42
0.000000001
 43
0.00000001
 40
0.0
 40
0.0
 40
0.0
 40
0.0
 40
0.0660411444309897
 40
0.129934851589676
 40
0.1923396829998482
 40
0.2539619538466112
 40
0.3151478405558107
 40
0.3754772236757126
 40
0.4352874945623146
 40
0.4959148574869199
 40
0.5566134289372101
 40
0.6177993156464097
 40
0.6794215864931726
 40
0.7428094006329284
 40
0.8067537936253208
 40
0.8705237852872189
 40
0.9349173149700586
 40
1.0
 40
1.0
 40
1.0
 40
1.0
 10
-63.26110552763822
 20
-10.7352763819095
 30
0.0
 10
-63.11748904238303
 20
-10.75240445782773
 30
0.0
 10
-62.83492599993053
 20
-10.78610366188648
 30
0.0
 10
-62.42526499712644
 20
-10.88708512493361
 30
0.0
 10
-62.03679863750865
 20
-11.024149700054
 30
0.0
 10
-61.67168479738974
 20
-11.20194137291374
 30
0.0
 10
-61.32929142583761
 20
-11.41138200998512
 30
0.0
 10
-61.01245768604667
 20
-11.6512852595669
 30
0.0
 10
-60.7200303749569
 20
-11.91856161305143
 30
0.0
 10
-60.45553392301312
 20
-12.21478142549004
 30
0.0
 10
-60.2195456218976
 20
-12.53751972599668
 30
0.0
 10
-60.00743960033738
 20
-12.87925520002071
 30
0.0
 10
-59.83210011749895
 20
-13.24778884537205
 30
0.0
 10
-59.68295927151135
 20
-13.63383032384892
 30
0.0
 10
-59.56510255992296
 20
-14.03564303138515
 30
0.0
 10
-59.48057744062935
 20
-14.44783414804838
 30
0.0
 10
-59.42831374204169
 20
-14.86819811905678
 30
0.0
 10
-59.42191158436633
 20
-15.15161010748005
 30
0.0
 10
-59.41869346733672
 20
-15.29407035175874
 30
0.0
  0
SPLINE
  5
141
330
1F
100
AcDbEntity
  8
0
  6
Continuous
 62
     7
370
    25
100
AcDbSpline
210
0.0
220
0.0
230
1.0
 70
     8
 71
     3
 72
     9
 73
     5
 74
     0
 42
0.000000001
 43
0.00000001
 40
0.0
 40
0.0
 40
0.0
 40
0.0
 40
0.4990519136149747
 40
1.0
 40
1.0
 40
1.0
 40
1.0
 10
-59.41869346733672
 20
-15.29407035175874
 30
0.0
 10
-59.42071871991777
 20
-15.42444463005455
 30
0.0
 10
-59.42477692012866
 20
-15.68568855025399
 30
0.0
 10
-59.45286433608969
 20
-15.94545059181282
 30
0.0
 10
-59.46693467336687
 20
-16.07557788944718
 30
0.0
  0
LINE
  5
142
330
1F
100
AcDbEntity
  8
0
  6
Continuous
 62
     7
370
    25
100
AcDbLine
 10
-59.4669346734
 20
-16.0755778894
 30
0.0
 11
-65.0508542714
 21
-16.0755778894
 31
0.0
  0
LINE
  5
143
330
1F
100
AcDbEntity
  8
0
  6
Continuous
 62
     7
370
    25
100
AcDbLine
 10
-65.0508542714
 20
-16.0755778894
 30
0.0
 11
-65.0508542714
 21
-14.6428140704
 31
0.0
  0
LINE
  5
144
330
1F
100
AcDbEntity
  8
0
  6
Continuous
 62
     7
370
    25
100
AcDbLine
 10
-65.0508542714
 20
-14.6428140704
 30
0.0
 11
-61.2904522613
 21
-14.6428140704
 31
0.0
  0
SPLINE
  5
145
330
1F
100
AcDbEntity
  8
0
  6
Continuous
 62
     7
370
    25
100
AcDbSpline
210
0.0
220
0.0
230
1.0
 70
     8
 71
     3
 72
    13
 73
     9
 74
     0
 42
0.000000001
 43
0.00000001
 40
0.0
 40
0.0
 40
0.0
 40
0.0
 40
0.2464871632780156
 40
0.5030481389362831
 40
0.6327293346036406
 40
0.7576259171432819
 40
0.8798363582982903
 40
1.0
 40
1.0
 40
1.0
 40
1.0
 10
-74.76904522613067
 20
-11.27316582914568
 30
0.0
 10
-74.61750910885613
 20
-11.19955590779589
 30
0.0
 10
-74.30824366572793
 20
-11.04932766284469
 30
0.0
 10
-73.89995706067445
 20
-10.90526112186152
 30
0.0
 10
-73.56472293451645
 20
-10.80699610653363
 30
0.0
 10
-73.31200306880278
 20
-10.75722633453508
 30
0.0
 10
-73.06303319861648
 20
-10.72340674829872
 30
0.0
 10
-72.89739572931869
 20
-10.72005411854182
 30
0.0
 10
-72.81527638190957
 20
-10.71839195979894
 30
0.0
  0
SPLINE
  5
146
330
1F
100
AcDbEntity
  8
0
  6
Continuous
 62
     7
370
    25
100
AcDbSpline
210
0.0
220
0.0
230
1.0
 70
     8
 71
     3
 72
    15
 73
    11
 74
     0
 42
0.000000001
 43
0.00000001
 40
0.0
 40
0.0
 40
0.0
 40
0.0
 40
0.1364938567180999
 40
0.2634106183403849
 40
0.3838632723935806
 40
0.4986672529411925
 40
0.6154429719606996
 40
0.7367965559496524
 40
0.8652861690047664
 40
1.0
 40
1.0
 40
1.0
 40
1.0
 10
-72.81527638190957
 20
-10.71839195979894
 30
0.0
 10
-72.69764436256516
 20
-10.72198274598586
 30
0.0
 10
-72.47063397764991
 20
-10.72891237075115
 30
0.0
 10
-72.14380651375657
 20
-10.78527373692631
 30
0.0
 10
-71.84432649325325
 20
-10.87706678557733
 30
0.0
 10
-71.57355552042718
 20
-11.01616546752242
 30
0.0
 10
-71.3195625784457
 20
-11.18360714105004
 30
0.0
 10
-71.06702682541986
 20
-11.373446589357
 30
0.0
 10
-70.8140515646263
 20
-11.58763771433187
 30
0.0
 10
-70.65079487004641
 20
-11.74499063965385
 30
0.0
 10
-70.56723618090454
 20
-11.8255276381909
 30
0.0
  0
SPLINE
  5
147
330
1F
100
AcDbEntity
  8
0
  6
Continuous
 62
     7
370
    25
100
AcDbSpline
210
0.0
220
0.0
230
1.0
 70
     8
 71
     3
 72
    17
 73
    13
 74
     0
 42
0.000000001
 43
0.00000001
 40
0.0
 40
0.0
 40
0.0
 40
0.0
 40
0.0610803829920995
 40
0.1216146378301802
 40
0.1823471958827591
 40
0.2442885966869936
 40
0.3689936612362313
 40
0.4958134668952135
 40
0.6227280472482589
 40
0.7502300054917461
 40
0.8758955501422466
 40
0.9999999999999999
 40
0.9999999999999999
 40
0.9999999999999999
 40
0.9999999999999999
 10
-70.56723618090454
 20
-11.8255276381909
 30
0.0
 10
-70.52294421504654
 20
-11.87300983837591
 30
0.0
 10
-70.43475630392452
 20
-11.96754969382553
 30
0.0
 10
-70.31812961204
 20
-12.12283603435785
 30
0.0
 10
-70.21883544005854
 20
-12.29071449060051
 30
0.0
 10
-70.10797196766316
 20
-12.52931181425431
 30
0.0
 10
-69.99478446845669
 20
-12.84341580962424
 30
0.0
 10
-69.90261008064674
 20
-13.23560324634887
 30
0.0
 10
-69.8465063911129
 20
-13.63717212627487
 30
0.0
 10
-69.81615583848377
 20
-14.04011568407787
 30
0.0
 10
-69.80652438027055
 20
-14.44095256237463
 30
0.0
 10
-69.80391139313872
 20
-14.70633104058611
 30
0.0
 10
-69.80261306532667
 20
-14.83819095477382
 30
0.0
  0
LINE
  5
148
330
1F
100
AcDbEntity
  8
0
  6
Continuous
 62
     7
370
    25
100
AcDbLine
 10
-69.8026130653
 20
-14.8381909548
 30
0.0
 11
-69.8026130653
 21
-20.0
 31
0.0
  0
LINE
  5
149
330
1F
100
AcDbEntity
  8
0
  6
Continuous
 62
     7
370
    25
100
AcDbLine
 10
-69.8026130653
 20
-20.0
 30
0.0
 11
-71.7901507538
 21
-20.0
 31
0.0
  0
LINE
  5
14A
330
1F
100
AcDbEntity
  8
0
  6
Continuous
 62
     7
370
    25
100
AcDbLine
 10
-71.7901507538
 20
-20.0
 30
0.0
 11
-71.7901507538
 21
-15.0022110553
 31
0.0
  0
SPLINE
  5
14B
330
1F
100
AcDbEntity
  8
0
  6
Continuous
 62
     7
370
    25
100
AcDbSpline
210
0.0
220
0.0
230
1.0
 70
     8
 71
     3
 72
    21
 73
    17
 74
     0
 42
0.000000001
 43
0.00000001
 40
0.0
 40
0.0
 40
0.0
 40
0.0
 40
0.1473890218742067
 40
0.2878816179190907
 40
0.3552218374688006
 40
0.4189393278339602
 40
0.4804755981451086
 40
0.5398227501073385
 40
0.5966483540957596
 40
0.6502462799380013
 40
0.7026260499548616
 40
0.7542802348264831
 40
0.8070800120588658
 40
0.864659150051518
 40
0.9285077637975447
 40
1.0
 40
1.0
 40
1.0
 40
1.0
 10
-71.79015075376887
 20
-15.00221105527633
 30
0.0
 10
-71.79239457548468
 20
-14.82123447327476
 30
0.0
 10
-71.79677722907488
 20
-14.46774931834548
 30
0.0
 10
-71.82727014923734
 20
-14.0325958457143
 30
0.0
 10
-71.86442598148126
 20
-13.70089596238195
 30
0.0
 10
-71.91764660944806
 20
-13.47018161543433
 30
0.0
 10
-71.98091819769431
 20
-13.25230028200942
 30
0.0
 10
-72.06372047580132
 20
-13.05014820814939
 30
0.0
 10
-72.15762019289961
 20
-12.86353536619409
 30
0.0
 10
-72.2733571498108
 20
-12.69975775154058
 30
0.0
 10
-72.40381576683572
 20
-12.556146234086
 30
0.0
 10
-72.55277410826642
 20
-12.43293874047156
 30
0.0
 10
-72.72625785639451
 20
-12.33325440580218
 30
0.0
 10
-72.92988713605413
 20
-12.26410368447008
 30
0.0
 10
-73.16426234208531
 20
-12.22404154355997
 30
0.0
 10
-73.33048582693868
 20
-12.21896371248113
 30
0.0
 10
-73.41829145728646
 20
-12.21628140703512
 30
0.0
  0
SPLINE
  5
14C
330
1F
100
AcDbEntity
  8
0
  6
Continuous
 62
     7
370
    25
100
AcDbSpline
210
0.0
220
0.0
230
1.0
 70
     8
 71
     3
 72
    13
 73
     9
 74
     0
 42
0.000000001
 43
0.00000001
 40
0.0
 40
0.0
 40
0.0
 40
0.0
 40
0.088280152896809
 40
0.1908560672703326
 40
0.3094982223174399
 40
0.4414629945420528
 40
0.7195932793798581
 40
1.0
 40
1.0
 40
1.0
 40
1.0
 10
-73.41829145728647
 20
-12.21628140703513
 30
0.0
 10
-73.4593368450916
 20
-12.21730532796578
 30
0.0
 10
-73.54807435900632
 20
-12.21951897979587
 30
0.0
 10
-73.69105613089269
 20
-12.2363906245598
 30
0.0
 10
-73.85410219272734
 20
-12.25611206544531
 30
0.0
 10
-74.09524000488936
 20
-12.30369430544645
 30
0.0
 10
-74.40955896668314
 20
-12.37420387367372
 30
0.0
 10
-74.6488913230901
 20
-12.47622081796139
 30
0.0
 10
-74.76904522613067
 20
-12.5274371859296
 30
0.0
  0
LINE
  5
14D
330
1F
100
AcDbEntity
  8
0
  6
Continuous
 62
     7
370
    25
100
AcDbLine
 10
-74.7690452261
 20
-12.5274371859
 30
0.0
 11
-74.7690452261
 21
-11.2731658291
 31
0.0
  0
LINE
  5
14E
330
1F
100
AcDbEntity
  8
0
  6
Continuous
 62
     7
370
    25
100
AcDbLine
 10
-75.4371859296
 20
-20.0
 30
0.0
 11
-77.4054271357
 21
-20.0
 31
0.0
  0
LINE
  5
14F
330
1F
100
AcDbEntity
  8
0
  6
Continuous
 62
     7
370
    25
100
AcDbLine
 10
-77.4054271357
 20
-20.0
 30
0.0
 11
-77.4054271357
 21
-7.3487437186
 31
0.0
  0
LINE
  5
150
330
1F
100
AcDbEntity
  8
0
  6
Continuous
 62
     7
370
    25
100
AcDbLine
 10
-77.4054271357
 20
-7.3487437186
 30
0.0
 11
-75.4371859296
 21
-7.3487437186
 31
0.0
  0
LINE
  5
151
330
1F
100
AcDbEntity
  8
0
  6
Continuous
 62
     7
370
    25
100
AcDbLine
 10
-75.4371859296
 20
-7.3487437186
 30
0.0
 11
-75.4371859296
 21
-20.0
 31
0.0
  0
LINE
  5
152
330
1F
100
AcDbEntity
  8
0
  6
Continuous
 62
     7
370
    25
100
AcDbLine
 10
-86.5471356784
 20
-8.0
 30
0.0
 11
-84.4293467337
 21
-18.3549748744
 31
0.0
  0
LINE
  5
153
330
1F
100
AcDbEntity
  8
0
  6
Continuous
 62
     7
370
    25
100
AcDbLine
 10
-84.4293467337
 20
-18.3549748744
 30
0.0
 11
-82.1330653266
 21
-8.0
 31
0.0
  0
LINE
  5
154
330
1F
100
AcDbEntity
  8
0
  6
Continuous
 62
     7
370
    25
100
AcDbLine
 10
-82.1330653266
 20
-8.0
 30
0.0
 11
-79.9187939698
 21
-8.0
 31
0.0
  0
LINE
  5
155
330
1F
100
AcDbEntity
  8
0
  6
Continuous
 62
     7
370
    25
100
AcDbLine
 10
-79.9187939698
 20
-8.0
 30
0.0
 11
-83.1606030151
 21
-20.0651256281
 31
0.0
  0
LINE
  5
156
330
1F
100
AcDbEntity
  8
0
  6
Continuous
 62
     7
370
    25
100
AcDbLine
 10
-83.1606030151
 20
-20.0651256281
 30
0.0
 11
-85.7005025126
 21
-20.0651256281
 31
0.0
  0
LINE
  5
157
330
1F
100
AcDbEntity
  8
0
  6
Continuous
 62
     7
370
    25
100
AcDbLine
 10
-85.7005025126
 20
-20.0651256281
 30
0.0
 11
-87.3286432161
 21
-12.6576884422
 31
0.0
  0
LINE
  5
158
330
1F
100
AcDbEntity
  8
0
  6
Continuous
 62
     7
370
    25
100
AcDbLine
 10
-87.3286432161
 20
-12.6576884422
 30
0.0
 11
-87.3286432161
 21
-8.0
 31
0.0
  0
LINE
  5
159
330
1F
100
AcDbEntity
  8
0
  6
Continuous
 62
     7
370
    25
100
AcDbLine
 10
-87.3286432161
 20
-8.0
 30
0.0
 11
-86.5471356784
 21
-8.0
 31
0.0
  0
SPLINE
  5
15A
330
1F
100
AcDbEntity
  8
0
  6
Continuous
 62
     7
370
    25
100
AcDbSpline
210
0.0
220
0.0
230
1.0
 70
     8
 71
     3
 72
    15
 73
    11
 74
     0
 42
0.000000001
 43
0.00000001
 40
0.0
 40
0.0
 40
0.0
 40
0.0
 40
0.1209146713719165
 40
0.2420240795189851
 40
0.3640492491908033
 40
0.4883375747324539
 40
0.6130012712932497
 40
0.738379937565338
 40
0.8667781261236561
 40
1.0
 40
1.0
 40
1.0
 40
1.0
 10
-19.28442211055282
 20
-20.0820100502512
 30
0.0
 10
-19.39234388607798
 20
-20.07950146602874
 30
0.0
 10
-19.60836124844745
 20
-20.07448025743223
 30
0.0
 10
-19.9299815577616
 20
-20.02506411377314
 30
0.0
 10
-20.25013430618022
 20
-19.95399563291753
 30
0.0
 10
-20.56523363259543
 20
-19.85102431069812
 30
0.0
 10
-20.87050829933864
 20
-19.7139402388365
 30
0.0
 10
-21.1597019092432
 20
-19.53844468706681
 30
0.0
 10
-21.43278388975866
 20
-19.32541461807595
 30
0.0
 10
-21.59472331679237
 20
-19.15707731567335
 30
0.0
 10
-21.67718592964829
 20
-19.07135678391954
 30
0.0
  0
SPLINE
  5
15B
330
1F
100
AcDbEntity
  8
0
  6
Continuous
 62
     7
370
    25
100
AcDbSpline
210
0.0
220
0.0
230
1.0
 70
     8
 71
     3
 72
    15
 73
    11
 74
     0
 42
0.000000001
 43
0.00000001
 40
0.0
 40
0.0
 40
0.0
 40
0.0
 40
0.1159417685665496
 40
0.2341861388412251
 40
0.3572075487313063
 40
0.4856605393500161
 40
0.6165867912839837
 40
0.7456615155935764
 40
0.8734179954020197
 40
1.0
 40
1.0
 40
1.0
 40
1.0
 10
-21.67718592964829
 20
-19.07135678391954
 30
0.0
 10
-21.77715992355081
 20
-18.95001944348318
 30
0.0
 10
-21.9790933933092
 20
-18.70493500492949
 30
0.0
 10
-22.22192080596503
 20
-18.28477200342092
 30
0.0
 10
-22.4349101749821
 20
-17.83104827780115
 30
0.0
 10
-22.59631243212776
 20
-17.33797073461587
 30
0.0
 10
-22.7216538793813
 20
-16.82693697378861
 30
0.0
 10
-22.81461462244767
 20
-16.30985239928092
 30
0.0
 10
-22.8681831886452
 20
-15.79289384972779
 30
0.0
 10
-22.87661004736496
 20
-15.44855854990642
 30
0.0
 10
-22.88080402010056
 20
-15.27718592964819
 30
0.0
  0
SPLINE
  5
15C
330
1F
100
AcDbEntity
  8
0
  6
Continuous
 62
     7
370
    25
100
AcDbSpline
210
0.0
220
0.0
230
1.0
 70
     8
 71
     3
 72
    23
 73
    19
 74
     0
 42
0.000000001
 43
0.00000001
 40
0.0
 40
0.0
 40
0.0
 40
0.0
 40
0.0915869939911083
 40
0.1757259579499936
 40
0.2538534660011451
 40
0.3259275644723072
 40
0.3939229991703992
 40
0.4577770725317029
 40
0.518926696327813
 40
0.5773082752988237
 40
0.6342117146774158
 40
0.6895159935246554
 40
0.7432782562145639
 40
0.796960122137219
 40
0.8495980880300884
 40
0.9011202476208008
 40
0.9507507280079528
 40
1.0
 40
1.0
 40
1.0
 40
1.0
 10
-22.88080402010056
 20
-15.27718592964819
 30
0.0
 10
-22.87697018576245
 20
-15.07358786879153
 30
0.0
 10
-22.86961429184862
 20
-14.68294873192598
 30
0.0
 10
-22.80470655679051
 20
-14.12151929934092
 30
0.0
 10
-22.6953737547575
 20
-13.61143398853853
 30
0.0
 10
-22.54237984197526
 20
-13.15016029763011
 30
0.0
 10
-22.35284992524115
 20
-12.73768321230859
 30
0.0
 10
-22.13997469045498
 20
-12.36467272552171
 30
0.0
 10
-21.90206702041967
 20
-12.03257043023238
 30
0.0
 10
-21.63585836947911
 20
-11.74355188919462
 30
0.0
 10
-21.35144629787315
 20
-11.49179930895133
 30
0.0
 10
-21.04909288905495
 20
-11.27927930628428
 30
0.0
 10
-20.73247204851546
 20
-11.10285756955846
 30
0.0
 10
-20.40277319202614
 20
-10.96726391803019
 30
0.0
 10
-20.06703540928299
 20
-10.86430734940157
 30
0.0
 10
-19.73329862564877
 20
-10.78920125411777
 30
0.0
 10
-19.40145755122571
 20
-10.74376631813253
 30
0.0
 10
-19.18164390591771
 20
-10.73809907773173
 30
0.0
 10
-19.07216080402015
 20
-10.7352763819095
 30
0.0
  0
SPLINE
  5
15D
330
1F
100
AcDbEntity
  8
0
  6
Continuous
 62
     7
370
    25
100
AcDbSpline
210
0.0
220
0.0
230
1.0
 70
     8
 71
     3
 72
    11
 73
     7
 74
     0
 42
0.000000001
 43
0.00000001
 40
0.0
 40
0.0
 40
0.0
 40
0.0
 40
0.2667146844299615
 40
0.5242400661150782
 40
0.7694242836866368
 40
1.0
 40
1.0
 40
1.0
 40
1.0
 10
-19.07216080402015
 20
-10.7352763819095
 30
0.0
 10
-18.90767100446963
 20
-10.74044452700381
 30
0.0
 10
-18.58435868450525
 20
-10.75060275556825
 30
0.0
 10
-18.11782489092376
 20
-10.84172173361584
 30
0.0
 10
-17.68331367325045
 20
-10.97231694564626
 30
0.0
 10
-17.4230301169527
 20
-11.10834549986638
 30
0.0
 10
-17.2968844221106
 20
-11.17427135678387
 30
0.0
  0
LINE
  5
15E
330
1F
100
AcDbEntity
  8
0
  6
Continuous
 62
     7
370
    25
100
AcDbLine
 10
-17.2968844221
 20
-11.1742713568
 30
0.0
 11
-17.2968844221
 21
-12.9013065327
 31
0.0
  0
SPLINE
  5
15F
330
1F
100
AcDbEntity
  8
0
  6
Continuous
 62
     7
370
    25
100
AcDbSpline
210
0.0
220
0.0
230
1.0
 70
     8
 71
     3
 72
    13
 73
     9
 74
     0
 42
0.000000001
 43
0.00000001
 40
0.0
 40
0.0
 40
0.0
 40
0.0
 40
0.2516073208155544
 40
0.4967777839291231
 40
0.6188620050609943
 40
0.7423980689266806
 40
0.8680524517257744
 40
1.0
 40
1.0
 40
1.0
 40
1.0
 10
-17.2968844221106
 20
-12.90130653266327
 30
0.0
 10
-17.39210970946329
 20
-12.80950526556495
 30
0.0
 10
-17.58012414033017
 20
-12.62825127866519
 30
0.0
 10
-17.85608620554014
 20
-12.45139192479489
 30
0.0
 10
-18.09236495471511
 20
-12.34809617786493
 30
0.0
 10
-18.27843756387411
 20
-12.28803496429334
 30
0.0
 10
-18.47702752321584
 20
-12.25805322543182
 30
0.0
 10
-18.61217994863025
 20
-12.25276100528712
 30
0.0
 10
-18.68140703517593
 20
-12.25005025125623
 30
0.0
  0
SPLINE
  5
160
330
1F
100
AcDbEntity
  8
0
  6
Continuous
 62
     7
370
    25
100
AcDbSpline
210
0.0
220
0.0
230
1.0
 70
     8
 71
     3
 72
    23
 73
    19
 74
     0
 42
0.000000001
 43
0.00000001
 40
0.0
 40
0.0
 40
0.0
 40
0.0
 40
0.0582559108408844
 40
0.1134585443350009
 40
0.1680787897923421
 40
0.2226484870925931
 40
0.2776950433718843
 40
0.3333195243948536
 40
0.3906739734466407
 40
0.4505703652120351
 40
0.5117803717837047
 40
0.57501747864038
 40
0.6406405840720328
 40
0.7089710000899202
 40
0.7789330596893074
 40
0.8504123931559834
 40
0.9241828443809975
 40
1.0
 40
1.0
 40
1.0
 40
1.0
 10
-18.68140703517593
 20
-12.25005025125623
 30
0.0
 10
-18.76362712333853
 20
-12.25351290625462
 30
0.0
 10
-18.92375802479339
 20
-12.26025673344709
 30
0.0
 10
-19.15743708058739
 20
-12.30675164145482
 30
0.0
 10
-19.37613360749251
 20
-12.38689183464463
 30
0.0
 10
-19.57939963285798
 20
-12.49968770664794
 30
0.0
 10
-19.76853146568306
 20
-12.63723832596589
 30
0.0
 10
-19.93969144469838
 20
-12.8019416759569
 30
0.0
 10
-20.10158357309544
 20
-12.98507269165165
 30
0.0
 10
-20.24117120288312
 20
-13.19542159183406
 30
0.0
 10
-20.36695399622101
 20
-13.42331207149033
 30
0.0
 10
-20.47797101940883
 20
-13.66778633286196
 30
0.0
 10
-20.57402363001728
 20
-13.92912204331075
 30
0.0
 10
-20.65651380649508
 20
-14.20506691121749
 30
0.0
 10
-20.7178033969567
 20
-14.49490239633788
 30
0.0
 10
-20.76459881702035
 20
-14.79511684972347
 30
0.0
 10
-20.790686161612
 20
-15.10627053481243
 30
0.0
 10
-20.79473287745899
 20
-15.31734193533846
 30
0.0
 10
-20.79678391959804
 20
-15.42432160804015
 30
0.0
  0
SPLINE
  5
161
330
1F
100
AcDbEntity
  8
0
  6
Continuous
 62
     7
370
    25
100
AcDbSpline
210
0.0
220
0.0
230
1.0
 70
     8
 71
     3
 72
    23
 73
    19
 74
     0
 42
0.000000001
 43
0.00000001
 40
0.0
 40
0.0
 40
0.0
 40
0.0
 40
0.0767098424040548
 40
0.1508820973650284
 40
0.2228182871929354
 40
0.2934301559815395
 40
0.3619785230450572
 40
0.427924755401273
 40
0.490835168642309
 40
0.5523350468900002
 40
0.6117178667781495
 40
0.6688413443802053
 40
0.725191580923756
 40
0.7806859953237588
 40
0.8358650894674261
 40
0.890389791060645
 40
0.9445475247045898
 40
1.0
 40
1.0
 40
1.0
 40
1.0
 10
-20.79678391959804
 20
-15.42432160804015
 30
0.0
 10
-20.79521498710714
 20
-15.53134060755804
 30
0.0
 10
-20.79212902294097
 20
-15.74183838201718
 30
0.0
 10
-20.75933985375807
 20
-16.05125002535371
 30
0.0
 10
-20.70884641486865
 20
-16.34939811638163
 30
0.0
 10
-20.63982124520088
 20
-16.63592918983838
 30
0.0
 10
-20.55002472350874
 20
-16.90779162245457
 30
0.0
 10
-20.44689860307611
 20
-17.16328767340223
 30
0.0
 10
-20.32996097544326
 20
-17.40183410317315
 30
0.0
 10
-20.20167378785435
 20
-17.62412095705837
 30
0.0
 10
-20.05458272565128
 20
-17.82483991007059
 30
0.0
 10
-19.89078438173303
 20
-18.00224258983857
 30
0.0
 10
-19.71530841436287
 20
-18.16017668315365
 30
0.0
 10
-19.52383286619066
 20
-18.29399258724282
 30
0.0
 10
-19.31861457151523
 20
-18.40024803982146
 30
0.0
 10
-19.10311434429149
 20
-18.4779594126969
 30
0.0
 10
-18.87809688670353
 20
-18.52599318472554
 30
0.0
 10
-18.72506032419993
 20
-18.53095641043303
 30
0.0
 10
-18.64763819095483
 20
-18.53346733668337
 30
0.0
  0
SPLINE
  5
162
330
1F
100
AcDbEntity
  8
0
  6
Continuous
 62
     7
370
    25
100
AcDbSpline
210
0.0
220
0.0
230
1.0
 70
     8
 71
     3
 72
    15
 73
    11
 74
     0
 42
0.000000001
 43
0.00000001
 40
0.0
 40
0.0
 40
0.0
 40
0.0
 40
0.1269136286305661
 40
0.2504141077284946
 40
0.3707915537900869
 40
0.4922626263003733
 40
0.6134106905672743
 40
0.7384189512840813
 40
0.8660637439216294
 40
1.0
 40
1.0
 40
1.0
 40
1.0
 10
-18.64763819095483
 20
-18.53346733668337
 30
0.0
 10
-18.58242395935909
 20
-18.53158902624192
 30
0.0
 10
-18.45374933400593
 20
-18.52788291966922
 30
0.0
 10
-18.26475137789241
 20
-18.49925995561154
 30
0.0
 10
-18.08414197268701
 20
-18.44684596226131
 30
0.0
 10
-17.910423886455
 20
-18.37791657630075
 30
0.0
 10
-17.74470846539024
 20
-18.28644372421588
 30
0.0
 10
-17.58555871277913
 20
-18.17851951197782
 30
0.0
 10
-17.43385522280019
 20
-18.04941288643878
 30
0.0
 10
-17.34326761701522
 20
-17.94999830957089
 30
0.0
 10
-17.2968844221106
 20
-17.89909547738688
 30
0.0
  0
LINE
  5
163
330
1F
100
AcDbEntity
  8
0
  6
Continuous
 62
     7
370
    25
100
AcDbLine
 10
-17.2968844221
 20
-17.8990954774
 30
0.0
 11
-17.2968844221
 21
-19.592361809
 31
0.0
  0
SPLINE
  5
164
330
1F
100
AcDbEntity
  8
0
  6
Continuous
 62
     7
370
    25
100
AcDbSpline
210
0.0
220
0.0
230
1.0
 70
     8
 71
     3
 72
    15
 73
    11
 74
     0
 42
0.000000001
 43
0.00000001
 40
0.0
 40
0.0
 40
0.0
 40
0.0
 40
0.1095804339436245
 40
0.224645509866786
 40
0.344968066512853
 40
0.4704743307740687
 40
0.5998215199223371
 40
0.7298772360294677
 40
0.8634039177826165
 40
1.0
 40
1.0
 40
1.0
 40
1.0
 10
-17.2968844221106
 20
-19.59236180904517
 30
0.0
 10
-17.36393685348229
 20
-19.62716627157835
 30
0.0
 10
-17.50139777685343
 20
-19.69851720486109
 30
0.0
 10
-17.72187940283516
 20
-19.78803367286169
 30
0.0
 10
-17.95559274309219
 20
-19.87306735158779
 30
0.0
 10
-18.20319939311056
 20
-19.94810579897532
 30
0.0
 10
-18.46185398826666
 20
-20.00756057997432
 30
0.0
 10
-18.72913733394993
 20
-20.05224986394616
 30
0.0
 10
-19.00421963915456
 20
-20.07522708941758
 30
0.0
 10
-19.19031641523191
 20
-20.07973200023117
 30
0.0
 10
-19.28442211055282
 20
-20.0820100502512
 30
0.0
  0
SPLINE
  5
165
330
1F
100
AcDbEntity
  8
0
  6
Continuous
 62
     7
370
    25
100
AcDbSpline
210
0.0
220
0.0
230
1.0
 70
     8
 71
     3
 72
    23
 73
    19
 74
     0
 42
0.000000001
 43
0.00000001
 40
0.0
 40
0.0
 40
0.0
 40
0.0
 40
0.0754048954991016
 40
0.1485929633284206
 40
0.2203584599016628
 40
0.2897098360669969
 40
0.3574945519133861
 40
0.4235846622956508
 40
0.4875609104254054
 40
0.5500732083574972
 40
0.6109446849439182
 40
0.6700250622968209
 40
0.7272550344284489
 40
0.7832409084367727
 40
0.838170222461366
 40
0.892220665904957
 40
0.9455963045597611
 40
1.0
 40
1.0
 40
1.0
 40
1.0
 10
-5.644221105527684
 20
-15.4412060301507
 30
0.0
 10
-5.645330626232756
 20
-15.34225339849339
 30
0.0
 10
-5.647517048856245
 20
-15.14725724247751
 30
0.0
 10
-5.673262475445865
 20
-14.85908915554431
 30
0.0
 10
-5.710764692277875
 20
-14.58033719063325
 30
0.0
 10
-5.764399666174989
 20
-14.31142598436365
 30
0.0
 10
-5.830683098660136
 20
-14.05295226885879
 30
0.0
 10
-5.915609146869167
 20
-13.80743881112649
 30
0.0
 10
-6.013637657284562
 20
-13.57427945682695
 30
0.0
 10
-6.130477313651816
 20
-13.35765421943844
 30
0.0
 10
-6.257910723799037
 20
-13.15492116178157
 30
0.0
 10
-6.39626366599062
 20
-12.96747414488784
 30
0.0
 10
-6.553189619163685
 20
-12.80430091183038
 30
0.0
 10
-6.715966688209726
 20
-12.65494810241306
 30
0.0
 10
-6.893239457001905
 20
-12.52989458985432
 30
0.0
 10
-7.078828635053489
 20
-12.42460543465339
 30
0.0
 10
-7.276962345713264
 20
-12.34569094259369
 30
0.0
 10
-7.414964080899801
 20
-12.31419143874604
 30
0.0
 10
-7.484623115577936
 20
-12.29829145728638
 30
0.0
  0
LINE
  5
166
330
1F
100
AcDbEntity
  8
0
  6
Continuous
 62
     7
370
    25
100
AcDbLine
 10
-7.4846231156
 20
-12.2982914573
 30
0.0
 11
-7.4846231156
 21
-10.7690452261
 31
0.0
  0
SPLINE
  5
167
330
1F
100
AcDbEntity
  8
0
  6
Continuous
 62
     7
370
    25
100
AcDbSpline
210
0.0
220
0.0
230
1.0
 70
     8
 71
     3
 72
    23
 73
    19
 74
     0
 42
0.000000001
 43
0.00000001
 40
0.0
 40
0.0
 40
0.0
 40
0.0
 40
0.0652951786162927
 40
0.1283483864366529
 40
0.1898477669260963
 40
0.2510066695470243
 40
0.3112890724609548
 40
0.3705264152622852
 40
0.4291175642582091
 40
0.4880283736523771
 40
0.5473451907786078
 40
0.6078079114241496
 40
0.6694179554136278
 40
0.7331070707700312
 40
0.7980503039529638
 40
0.8639008161411497
 40
0.9310873842576156
 40
1.0
 40
1.0
 40
1.0
 40
1.0
 10
-7.484623115577936
 20
-10.7690452261306
 30
0.0
 10
-7.3378723335852
 20
-10.78118809282517
 30
0.0
 10
-7.049409594433048
 20
-10.80505688957235
 30
0.0
 10
-6.629913286387761
 20
-10.89408892914823
 30
0.0
 10
-6.230388896296688
 20
-11.02127290197474
 30
0.0
 10
-5.855261217590606
 20
-11.19426952471467
 30
0.0
 10
-5.502478914825017
 20
-11.39859725927169
 30
0.0
 10
-5.177458109833882
 20
-11.6354622421232
 30
0.0
 10
-4.883584258174865
 20
-11.9054548200561
 30
0.0
 10
-4.620628536895783
 20
-12.20572817865447
 30
0.0
 10
-4.38593103338371
 20
-12.53356908414916
 30
0.0
 10
-4.178104693460305
 20
-12.88616345605982
 30
0.0
 10
-3.999418598897917
 20
-13.26525138751057
 30
0.0
 10
-3.847908066872657
 20
-13.66671448084314
 30
0.0
 10
-3.727345012094624
 20
-14.08860791315274
 30
0.0
 10
-3.641217589944538
 20
-14.52668666533688
 30
0.0
 10
-3.585806828408918
 20
-14.97908019590313
 30
0.0
 10
-3.580017036808161
 20
-15.28586716623128
 30
0.0
 10
-3.577085427135725
 20
-15.4412060301507
 30
0.0
  0
SPLINE
  5
168
330
1F
100
AcDbEntity
  8
0
  6
Continuous
 62
     7
370
    25
100
AcDbSpline
210
0.0
220
0.0
230
1.0
 70
     8
 71
     3
 72
    23
 73
    19
 74
     0
 42
0.000000001
 43
0.00000001
 40
0.0
 40
0.0
 40
0.0
 40
0.0
 40
0.069173694461937
 40
0.1366080315144226
 40
0.2027703019317124
 40
0.2681550757303625
 40
0.3320051820631582
 40
0.3938357751857521
 40
0.4541014280161497
 40
0.5135081028304466
 40
0.5721184423160696
 40
0.6312900803697044
 40
0.6906389023352865
 40
0.7512840803993424
 40
0.8123701187506214
 40
0.8738517044113941
 40
0.9361397434237042
 40
1.0
 40
1.0
 40
1.0
 40
1.0
 10
-3.577085427135725
 20
-15.4412060301507
 30
0.0
 10
-3.580061875796076
 20
-15.59573459993108
 30
0.0
 10
-3.58593993096657
 20
-15.90090615242134
 30
0.0
 10
-3.640716272333344
 20
-16.35115743103392
 30
0.0
 10
-3.7293994342044
 20
-16.78704886910567
 30
0.0
 10
-3.854860674554291
 20
-17.20559738731503
 30
0.0
 10
-4.011400883577368
 20
-17.60302388959458
 30
0.0
 10
-4.194913733819962
 20
-17.97604202564693
 30
0.0
 10
-4.405058463274221
 20
-18.32333621015291
 30
0.0
 10
-4.644402518856234
 20
-18.64229997676035
 30
0.0
 10
-4.911789770973916
 20
-18.93485451897139
 30
0.0
 10
-5.20846111111507
 20
-19.1976604423491
 30
0.0
 10
-5.53460707979938
 20
-19.43050616952157
 30
0.0
 10
-5.885404259986042
 20
-19.63312126188247
 30
0.0
 10
-6.260277861533788
 20
-19.79872246975447
 30
0.0
 10
-6.65211408232745
 20
-19.93057865777292
 30
0.0
 10
-7.062472295826775
 20
-20.02024487584463
 30
0.0
 10
-7.342741819414981
 20
-20.05004158942605
 30
0.0
 10
-7.484623115577936
 20
-20.06512562814065
 30
0.0
  0
LINE
  5
169
330
1F
100
AcDbEntity
  8
0
  6
Continuous
 62
     7
370
    25
100
AcDbLine
 10
-7.4846231156
 20
-20.0651256281
 30
0.0
 11
-7.4846231156
 21
-18.5021105528
 31
0.0
  0
SPLINE
  5
16A
330
1F
100
AcDbEntity
  8
0
  6
Continuous
 62
     7
370
    25
100
AcDbSpline
210
0.0
220
0.0
230
1.0
 70
     8
 71
     3
 72
    23
 73
    19
 74
     0
 42
0.000000001
 43
0.00000001
 40
0.0
 40
0.0
 40
0.0
 40
0.0
 40
0.0539353041561718
 40
0.1064971025844463
 40
0.159726143782497
 40
0.2137486279053013
 40
0.2687708806963231
 40
0.3259084602239468
 40
0.3856661144042938
 40
0.4480186580406822
 40
0.5124923663859157
 40
0.5772240616489918
 40
0.6434085634738812
 40
0.7111913469771521
 40
0.7797278390569087
 40
0.850668268768268
 40
0.9242036085496591
 40
1.0
 40
1.0
 40
1.0
 40
1.0
 10
-7.484623115577936
 20
-18.50211055276377
 30
0.0
 10
-7.41742090081077
 20
-18.48513354935668
 30
0.0
 10
-7.284727829511167
 20
-18.45161187553454
 30
0.0
 10
-7.09393195636226
 20
-18.37475073310559
 30
0.0
 10
-6.912532061240856
 20
-18.27818842546759
 30
0.0
 10
-6.74028191848912
 20
-18.1599243384615
 30
0.0
 10
-6.58112888699355
 20
-18.01728399126143
 30
0.0
 10
-6.427755916192128
 20
-17.85817228172941
 30
0.0
 10
-6.286272681782936
 20
-17.67618777449963
 30
0.0
 10
-6.153880231177174
 20
-17.47631475988908
 30
0.0
 10
-6.034234346156034
 20
-17.26110228285552
 30
0.0
 10
-5.930362724057301
 20
-17.0325196208245
 30
0.0
 10
-5.840458732429544
 20
-16.79352617905536
 30
0.0
 10
-5.768900698326961
 20
-16.54328795772967
 30
0.0
 10
-5.713453965286222
 20
-16.28285742778905
 30
0.0
 10
-5.672191331097182
 20
-16.01234635112316
 30
0.0
 10
-5.647759107520328
 20
-15.73030549163362
 30
0.0
 10
-5.645412284047683
 20
-15.53854036443815
 30
0.0
 10
-5.644221105527684
 20
-15.4412060301507
 30
0.0
  0
LINE
  5
16B
330
1F
100
AcDbEntity
  8
0
  6
Continuous
 62
     7
370
    25
100
AcDbLine
 10
-8.1503517588
 20
-18.5021105528
 30
0.0
 11
-8.1503517588
 21
-20.0651256281
 31
0.0
  0
SPLINE
  5
16C
330
1F
100
AcDbEntity
  8
0
  6
Continuous
 62
     7
370
    25
100
AcDbSpline
210
0.0
220
0.0
230
1.0
 70
     8
 71
     3
 72
    23
 73
    19
 74
     0
 42
0.000000001
 43
0.00000001
 40
0.0
 40
0.0
 40
0.0
 40
0.0
 40
0.0655029699227824
 40
0.1287841711071398
 40
0.190471844236507
 40
0.2510671467810886
 40
0.3110146961390802
 40
0.3698627951365769
 40
0.4286099238040516
 40
0.4876233713768997
 40
0.5472633431788047
 40
0.6080118040728396
 40
0.6697162123032314
 40
0.7337122946692294
 40
0.7989991591165692
 40
0.8648077991039667
 40
0.9316960268533405
 40
1.0
 40
1.0
 40
1.0
 40
1.0
 10
-8.150351758794015
 20
-20.06512562814065
 30
0.0
 10
-8.296325398496407
 20
-20.05041443618827
 30
0.0
 10
-8.583321457067884
 20
-20.0214910352521
 30
0.0
 10
-9.000139324137141
 20
-19.92765012934741
 30
0.0
 10
-9.395692751711675
 20
-19.79880033113226
 30
0.0
 10
-9.766300785312737
 20
-19.62605634631009
 30
0.0
 10
-10.10994392322259
 20
-19.41744187523012
 30
0.0
 10
-10.43182171357363
 20
-19.18335716122013
 30
0.0
 10
-10.72401132765591
 20
-18.91610143292683
 30
0.0
 10
-10.99103010214825
 20
-18.62135467754228
 30
0.0
 10
-11.22704952895502
 20
-18.29573956146979
 30
0.0
 10
-11.43772439162008
 20
-17.94626950649542
 30
0.0
 10
-11.6171564939093
 20
-17.56876853378576
 30
0.0
 10
-11.76498522625639
 20
-17.16724106840982
 30
0.0
 10
-11.88401495326641
 20
-16.74653196605838
 30
0.0
 10
-11.96393995774155
 20
-16.31029072313703
 30
0.0
 10
-12.01731216208519
 20
-15.8630306018711
 30
0.0
 10
-12.02343778022375
 20
-15.5603581958437
 30
0.0
 10
-12.02653266331663
 20
-15.4074371859296
 30
0.0
  0
SPLINE
  5
16D
330
1F
100
AcDbEntity
  8
0
  6
Continuous
 62
     7
370
    25
100
AcDbSpline
210
0.0
220
0.0
230
1.0
 70
     8
 71
     3
 72
    23
 73
    19
 74
     0
 42
0.000000001
 43
0.00000001
 40
0.0
 40
0.0
 40
0.0
 40
0.0
 40
0.0695512592757312
 40
0.1373536673573931
 40
0.2030953252307807
 40
0.2679377997589513
 40
0.3316672435258359
 40
0.3933507086363658
 40
0.4538262386739229
 40
0.5137750707229998
 40
0.5731969470572372
 40
0.6324211125751724
 40
0.6915888261474247
 40
0.751626125872567
 40
0.8122055807126108
 40
0.8735716751059446
 40
0.9360058408391337
 40
1.0
 40
1.0
 40
1.0
 40
1.0
 10
-12.02653266331663
 20
-15.4074371859296
 30
0.0
 10
-12.02357238545999
 20
-15.25290756041973
 30
0.0
 10
-12.01772626528558
 20
-14.94773392301659
 30
0.0
 10
-11.96292741846209
 20
-14.4992242564967
 30
0.0
 10
-11.87604026106131
 20
-14.06690531827865
 30
0.0
 10
-11.75631150867152
 20
-13.65159821958301
 30
0.0
 10
-11.60138363553002
 20
-13.25798481855633
 30
0.0
 10
-11.42163486460775
 20
-12.88561762475675
 30
0.0
 10
-11.20696784464824
 20
-12.54208401657542
 30
0.0
 10
-10.96690355440343
 20
-12.22195119513739
 30
0.0
 10
-10.69411468220765
 20
-11.93321052901251
 30
0.0
 10
-10.4012398946371
 20
-11.66719151732766
 30
0.0
 10
-10.07623217271425
 20
-11.43916300064825
 30
0.0
 10
-9.732592856212568
 20
-11.23479432705794
 30
0.0
 10
-9.364181334614285
 20
-11.06689115396351
 30
0.0
 10
-8.977709895222697
 20
-10.92954161500836
 30
0.0
 10
-8.570127184098013
 20
-10.8362735513708
 30
0.0
 10
-8.291423205855784
 20
-10.8012469728768
 30
0.0
 10
-8.150351758794015
 20
-10.78351758793965
 30
0.0
  0
LINE
  5
16E
330
1F
100
AcDbEntity
  8
0
  6
Continuous
 62
     7
370
    25
100
AcDbLine
 10
-8.1503517588
 20
-10.7835175879
 30
0.0
 11
-8.1503517588
 21
-12.2982914573
 31
0.0
  0
SPLINE
  5
16F
330
1F
100
AcDbEntity
  8
0
  6
Continuous
 62
     7
370
    25
100
AcDbSpline
210
0.0
220
0.0
230
1.0
 70
     8
 71
     3
 72
    23
 73
    19
 74
     0
 42
0.000000001
 43
0.00000001
 40
0.0
 40
0.0
 40
0.0
 40
0.0
 40
0.0536670118516952
 40
0.1071450090901395
 40
0.1601531396339199
 40
0.2134824213529752
 40
0.2688502160821977
 40
0.3254837441407757
 40
0.3848457118234377
 40
0.4469025530774781
 40
0.5108844108059716
 40
0.5755085115595245
 40
0.6416779684505672
 40
0.7089396351518255
 40
0.7785227495311356
 40
0.849730459550593
 40
0.9237276041935704
 40
1.0
 40
1.0
 40
1.0
 40
1.0
 10
-8.150351758794015
 20
-12.29829145728638
 30
0.0
 10
-8.21668346467354
 20
-12.31546454254094
 30
0.0
 10
-8.34911325690915
 20
-12.34975022963657
 30
0.0
 10
-8.539874139489658
 20
-12.42458027954219
 30
0.0
 10
-8.719876677570415
 20
-12.52152502249261
 30
0.0
 10
-8.88775492046957
 20
-12.64222763443418
 30
0.0
 10
-9.046629691130486
 20
-12.78149716173556
 30
0.0
 10
-9.195027936802118
 20
-12.94265625597849
 30
0.0
 10
-9.331733431550692
 20
-13.12440960680809
 30
0.0
 10
-9.459853177401689
 20
-13.32361282716786
 30
0.0
 10
-9.571350673213162
 20
-13.54015503305047
 30
0.0
 10
-9.670984368616413
 20
-13.76795762325622
 30
0.0
 10
-9.755820178041597
 20
-14.00633204796873
 30
0.0
 10
-9.821791085406447
 20
-14.25694017884436
 30
0.0
 10
-9.879712669544757
 20
-14.5162715051947
 30
0.0
 10
-9.912743676334548
 20
-14.78854760245981
 30
0.0
 10
-9.939452971036117
 20
-15.0700267526664
 30
0.0
 10
-9.941482455987298
 20
-15.26183815680019
 30
0.0
 10
-9.942512562814116
 20
-15.35919597989944
 30
0.0
  0
SPLINE
  5
170
330
1F
100
AcDbEntity
  8
0
  6
Continuous
 62
     7
370
    25
100
AcDbSpline
210
0.0
220
0.0
230
1.0
 70
     8
 71
     3
 72
    21
 73
    17
 74
     0
 42
0.000000001
 43
0.00000001
 40
0.0
 40
0.0
 40
0.0
 40
0.0
 40
0.1497738891891886
 40
0.2931527577652332
 40
0.3618214899662111
 40
0.4279956072013545
 40
0.4923412761802624
 40
0.5545528138951918
 40
0.6147182833879506
 40
0.6728210521677298
 40
0.7295047760102681
 40
0.7848186760985261
 40
0.8394815788783958
 40
0.8926301154686049
 40
0.9457929048176085
 40
1.0
 40
1.0
 40
1.0
 40
1.0
 10
-9.942512562814116
 20
-15.35919597989944
 30
0.0
 10
-9.936325655644984
 20
-15.5548952363851
 30
0.0
 10
-9.924216008840148
 20
-15.93793781504783
 30
0.0
 10
-9.848764603539811
 20
-16.40613217840754
 30
0.0
 10
-9.758387559043287
 20
-16.75838319225916
 30
0.0
 10
-9.675425648184218
 20
-17.00522574701691
 30
0.0
 10
-9.581927638877657
 20
-17.23913480588648
 30
0.0
 10
-9.476500107751434
 20
-17.45934828798401
 30
0.0
 10
-9.356426965164228
 20
-17.6627211941589
 30
0.0
 10
-9.220043407325022
 20
-17.84653554882604
 30
0.0
 10
-9.073244276427067
 20
-18.01370650756707
 30
0.0
 10
-8.913639395011451
 20
-18.16244822721953
 30
0.0
 10
-8.74062002742045
 20
-18.28791590524716
 30
0.0
 10
-8.555179567833095
 20
-18.38817390906214
 30
0.0
 10
-8.357999644795312
 20
-18.46250059376305
 30
0.0
 10
-8.220015078041804
 20
-18.48882189727878
 30
0.0
 10
-8.150351758794017
 20
-18.50211055276377
 30
0.0
  0
LINE
  5
171
330
1F
100
AcDbEntity
  8
0
  6
Continuous
 62
     7
370
    25
100
AcDbLine
 10
-1.0564824121
 20
-10.8172864322
 30
0.0
 11
0.9286432161
 21
-10.8172864322
 31
0.0
  0
LINE
  5
172
330
1F
100
AcDbEntity
  8
0
  6
Continuous
 62
     7
370
    25
100
AcDbLine
 10
0.9286432161
 20
-10.8172864322
 30
0.0
 11
0.9286432161
 21
-15.8150753769
 31
0.0
  0
SPLINE
  5
173
330
1F
100
AcDbEntity
  8
0
  6
Continuous
 62
     7
370
    25
100
AcDbSpline
210
0.0
220
0.0
230
1.0
 70
     8
 71
     3
 72
    21
 73
    17
 74
     0
 42
0.000000001
 43
0.00000001
 40
0.0
 40
0.0
 40
0.0
 40
0.0
 40
0.1503440740512775
 40
0.2917687162229046
 40
0.3582479777600441
 40
0.4209595020495404
 40
0.4810919281275539
 40
0.5382679226467751
 40
0.593108259044936
 40
0.6465234060707323
 40
0.699697989019506
 40
0.7531334730523312
 40
0.8083292780821625
 40
0.8669131581335678
 40
0.930008137077112
 40
1.0
 40
1.0
 40
1.0
 40
1.0
 10
0.9286432160803526
 20
-15.81507537688437
 30
0.0
 10
0.930899626142468
 20
-15.9984594961138
 30
0.0
 10
0.9352785806922256
 20
-16.35434814274573
 30
0.0
 10
0.9651229939746834
 20
-16.79038879138523
 30
0.0
 10
1.003188962452668
 20
-17.11863590492299
 30
0.0
 10
1.054847552267183
 20
-17.34388426280633
 30
0.0
 10
1.109203537759039
 20
-17.55683202423599
 30
0.0
 10
1.18506192028851
 20
-17.75301721790553
 30
0.0
 10
1.275275372574395
 20
-17.93413766343364
 30
0.0
 10
1.390916435518035
 20
-18.09441127196917
 30
0.0
 10
1.52397666593383
 20
-18.23780752329139
 30
0.0
 10
1.677273959964022
 20
-18.36326551259013
 30
0.0
 10
1.855975605450213
 20
-18.46420303481569
 30
0.0
 10
2.06164383394276
 20
-18.53215335790137
 30
0.0
 10
2.291917424501882
 20
-18.57732089816329
 30
0.0
 10
2.454431514629502
 20
-18.58177705837605
 30
0.0
 10
2.539899497487387
 20
-18.58412060301502
 30
0.0
  0
SPLINE
  5
174
330
1F
100
AcDbEntity
  8
0
  6
Continuous
 62
     7
370
    25
100
AcDbSpline
210
0.0
220
0.0
230
1.0
 70
     8
 71
     3
 72
    13
 73
     9
 74
     0
 42
0.000000001
 43
0.00000001
 40
0.0
 40
0.0
 40
0.0
 40
0.0
 40
0.0852369675280667
 40
0.1864196606290674
 40
0.3036983962595916
 40
0.4374291533996173
 40
0.720779291266629
 40
1.0
 40
1.0
 40
1.0
 40
1.0
 10
2.539899497487387
 20
-18.58412060301502
 30
0.0
 10
2.579318627286587
 20
-18.58288816144009
 30
0.0
 10
2.665531229782569
 20
-18.58019271899526
 30
0.0
 10
2.805463470733983
 20
-18.56702095736697
 30
0.0
 10
2.967310621142677
 20
-18.54811700247433
 30
0.0
 10
3.211386831320872
 20
-18.50909468153858
 30
0.0
 10
3.52729655211824
 20
-18.44158754655
 30
0.0
 10
3.771740497694807
 20
-18.35146445140807
 30
0.0
 10
3.893065326633116
 20
-18.30673366834166
 30
0.0
  0
LINE
  5
175
330
1F
100
AcDbEntity
  8
0
  6
Continuous
 62
     7
370
    25
100
AcDbLine
 10
3.8930653266
 20
-18.3067336683
 30
0.0
 11
3.8930653266
 21
-19.5103517588
 31
0.0
  0
SPLINE
  5
176
330
1F
100
AcDbEntity
  8
0
  6
Continuous
 62
     7
370
    25
100
AcDbSpline
210
0.0
220
0.0
230
1.0
 70
     8
 71
     3
 72
    13
 73
     9
 74
     0
 42
0.000000001
 43
0.00000001
 40
0.0
 40
0.0
 40
0.0
 40
0.0
 40
0.2443447433279982
 40
0.5005565920930295
 40
0.6297133291057102
 40
0.7550056462709769
 40
0.8786297960359265
 40
1.0
 40
1.0
 40
1.0
 40
1.0
 10
3.893065326633116
 20
-19.51035175879392
 30
0.0
 10
3.747080455681845
 20
-19.5844184571685
 30
0.0
 10
3.448020658015487
 20
-19.7361490555886
 30
0.0
 10
3.053568634896045
 20
-19.88729301751223
 30
0.0
 10
2.726726649589597
 20
-19.98877192863006
 30
0.0
 10
2.478764314776537
 20
-20.04076477059209
 30
0.0
 10
2.233065288715788
 20
-20.07758828398378
 30
0.0
 10
2.068876710730946
 20
-20.08054519601656
 30
0.0
 10
1.987537688442161
 20
-20.0820100502512
 30
0.0
  0
SPLINE
  5
177
330
1F
100
AcDbEntity
  8
0
  6
Continuous
 62
     7
370
    25
100
AcDbSpline
210
0.0
220
0.0
230
1.0
 70
     8
 71
     3
 72
    15
 73
    11
 74
     0
 42
0.000000001
 43
0.00000001
 40
0.0
 40
0.0
 40
0.0
 40
0.0
 40
0.1425967052307332
 40
0.2709044203803501
 40
0.391105499864891
 40
0.5093847297610233
 40
0.6281833318297091
 40
0.7478425447410462
 40
0.870508171700753
 40
1.0
 40
1.0
 40
1.0
 40
1.0
 10
1.987537688442161
 20
-20.0820100502512
 30
0.0
 10
1.863531941859759
 20
-20.07824328029867
 30
0.0
 10
1.627946520391704
 20
-20.07108719188102
 30
0.0
 10
1.290748876909531
 20
-20.01909075314626
 30
0.0
 10
0.9848623906685062
 20
-19.92401407236668
 30
0.0
 10
0.7062076456885178
 20
-19.7845905333
 30
0.0
 10
0.4432884545219949
 20
-19.61943962924584
 30
0.0
 10
0.191221531425695
 20
-19.43178326195412
 30
0.0
 10
-0.0553662615616743
 20
-19.22226110165441
 30
0.0
 10
-0.2116183087713965
 20
-19.06837349631931
 30
0.0
 10
-0.2918592964824616
 20
-18.98934673366829
 30
0.0
  0
SPLINE
  5
178
330
1F
100
AcDbEntity
  8
0
  6
Continuous
 62
     7
370
    25
100
AcDbSpline
210
0.0
220
0.0
230
1.0
 70
     8
 71
     3
 72
    17
 73
    13
 74
     0
 42
0.000000001
 43
0.00000001
 40
0.0
 40
0.0
 40
0.0
 40
0.0
 40
0.060925725578711
 40
0.1219590484070062
 40
0.182730062571046
 40
0.2452229234424551
 40
0.3702291853436487
 40
0.4962695041691073
 40
0.6236023470739437
 40
0.7499704225925014
 40
0.8761215958369197
 40
1.0
 40
1.0
 40
1.0
 40
1.0
 10
-0.2918592964824616
 20
-18.98934673366829
 30
0.0
 10
-0.3374170822835729
 20
-18.94303850870472
 30
0.0
 10
-0.4286131107437614
 20
-18.85034027661427
 30
0.0
 10
-0.5411759549348966
 20
-18.6911174134168
 30
0.0
 10
-0.648460776943713
 20
-18.52668672047473
 30
0.0
 10
-0.7644945842036911
 20
-18.2886741843401
 30
0.0
 10
-0.88075487587262
 20
-17.97505184868133
 30
0.0
 10
-0.9772562460217149
 20
-17.583096695218
 30
0.0
 10
-1.030022758447363
 20
-17.18173605390036
 30
0.0
 10
-1.052900881610104
 20
-16.77779249257883
 30
0.0
 10
-1.053740524482231
 20
-16.37707965032237
 30
0.0
 10
-1.055574004980766
 20
-16.11095049695165
 30
0.0
 10
-1.056482412060351
 20
-15.97909547738688
 30
0.0
  0
LINE
  5
179
330
1F
100
AcDbEntity
  8
0
  6
Continuous
 62
     7
370
    25
100
AcDbLine
 10
-1.0564824121
 20
-15.9790954774
 30
0.0
 11
-1.0564824121
 21
-10.8172864322
 31
0.0
  0
LINE
  5
17A
330
1F
100
AcDbEntity
  8
0
  6
Continuous
 62
     7
370
    25
100
AcDbLine
 10
-16.6287437186
 20
-18.9097487437
 30
0.0
 11
-16.6287437186
 21
-7.3487437186
 31
0.0
  0
LINE
  5
17B
330
1F
100
AcDbEntity
  8
0
  6
Continuous
 62
     7
370
    25
100
AcDbLine
 10
-16.6287437186
 20
-7.3487437186
 30
0.0
 11
-14.6436180905
 21
-7.3487437186
 31
0.0
  0
LINE
  5
17C
330
1F
100
AcDbEntity
  8
0
  6
Continuous
 62
     7
370
    25
100
AcDbLine
 10
-14.6436180905
 20
-7.3487437186
 30
0.0
 11
-14.6436180905
 21
-20.0
 31
0.0
  0
LINE
  5
17D
330
1F
100
AcDbEntity
  8
0
  6
Continuous
 62
     7
370
    25
100
AcDbLine
 10
-14.6436180905
 20
-20.0
 30
0.0
 11
-16.5153768844
 21
-20.0
 31
0.0
  0
LINE
  5
17E
330
1F
100
AcDbEntity
  8
0
  6
Continuous
 62
     7
370
    25
100
AcDbLine
 10
-16.5153768844
 20
-20.0
 30
0.0
 11
-16.6287437186
 21
-18.9097487437
 31
0.0
  0
SPLINE
  5
17F
330
1F
100
AcDbEntity
  8
0
  6
Continuous
 62
     7
370
    25
100
AcDbSpline
210
0.0
220
0.0
230
1.0
 70
     8
 71
     3
 72
    13
 73
     9
 74
     0
 42
0.000000001
 43
0.00000001
 40
0.0
 40
0.0
 40
0.0
 40
0.0
 40
0.2464871632780156
 40
0.50304813893628
 40
0.6327293346036407
 40
0.7576259171432852
 40
0.8798363582982869
 40
1.0
 40
1.0
 40
1.0
 40
1.0
 10
-34.47798994974878
 20
-11.27316582914568
 30
0.0
 10
-34.32645383247424
 20
-11.19955590779589
 30
0.0
 10
-34.01718838934604
 20
-11.0493276628447
 30
0.0
 10
-33.60890178429258
 20
-10.90526112186152
 30
0.0
 10
-33.27366765813455
 20
-10.80699610653363
 30
0.0
 10
-33.02094779242089
 20
-10.75722633453508
 30
0.0
 10
-32.77197792223458
 20
-10.72340674829872
 30
0.0
 10
-32.6063404529368
 20
-10.72005411854182
 30
0.0
 10
-32.52422110552767
 20
-10.71839195979894
 30
0.0
  0
SPLINE
  5
180
330
1F
100
AcDbEntity
  8
0
  6
Continuous
 62
     7
370
    25
100
AcDbSpline
210
0.0
220
0.0
230
1.0
 70
     8
 71
     3
 72
    15
 73
    11
 74
     0
 42
0.000000001
 43
0.00000001
 40
0.0
 40
0.0
 40
0.0
 40
0.0
 40
0.1364938567180972
 40
0.263410618340385
 40
0.3838632723935807
 40
0.4986672529411902
 40
0.6154429719606996
 40
0.7367965559496534
 40
0.8652861690047645
 40
1.0
 40
1.0
 40
1.0
 40
1.0
 10
-32.52422110552767
 20
-10.71839195979894
 30
0.0
 10
-32.40658908618327
 20
-10.72198274598586
 30
0.0
 10
-32.17957870126803
 20
-10.72891237075115
 30
0.0
 10
-31.85275123737466
 20
-10.78527373692631
 30
0.0
 10
-31.55327121687134
 20
-10.87706678557733
 30
0.0
 10
-31.28250024404527
 20
-11.01616546752243
 30
0.0
 10
-31.0285073020638
 20
-11.18360714105004
 30
0.0
 10
-30.77597154903796
 20
-11.37344658935699
 30
0.0
 10
-30.5229962882444
 20
-11.58763771433187
 30
0.0
 10
-30.35973959366452
 20
-11.74499063965385
 30
0.0
 10
-30.27618090452265
 20
-11.8255276381909
 30
0.0
  0
SPLINE
  5
181
330
1F
100
AcDbEntity
  8
0
  6
Continuous
 62
     7
370
    25
100
AcDbSpline
210
0.0
220
0.0
230
1.0
 70
     8
 71
     3
 72
    17
 73
    13
 74
     0
 42
0.000000001
 43
0.00000001
 40
0.0
 40
0.0
 40
0.0
 40
0.0
 40
0.0610803829920988
 40
0.1216146378301809
 40
0.1823471958827581
 40
0.2442885966869932
 40
0.3689936612362305
 40
0.4958134668952131
 40
0.6227280472482589
 40
0.7502300054917461
 40
0.8758955501422467
 40
1.0
 40
1.0
 40
1.0
 40
1.0
 10
-30.27618090452265
 20
-11.8255276381909
 30
0.0
 10
-30.23188893866466
 20
-11.87300983837592
 30
0.0
 10
-30.14370102754264
 20
-11.96754969382554
 30
0.0
 10
-30.02707433565809
 20
-12.12283603435784
 30
0.0
 10
-29.92778016367665
 20
-12.29071449060051
 30
0.0
 10
-29.81691669128127
 20
-12.52931181425431
 30
0.0
 10
-29.70372919207478
 20
-12.84341580962424
 30
0.0
 10
-29.61155480426485
 20
-13.23560324634888
 30
0.0
 10
-29.55545111473097
 20
-13.63717212627486
 30
0.0
 10
-29.52510056210186
 20
-14.04011568407788
 30
0.0
 10
-29.51546910388868
 20
-14.44095256237463
 30
0.0
 10
-29.51285611675681
 20
-14.70633104058611
 30
0.0
 10
-29.51155778894476
 20
-14.83819095477382
 30
0.0
  0
LINE
  5
182
330
1F
100
AcDbEntity
  8
0
  6
Continuous
 62
     7
370
    25
100
AcDbLine
 10
-29.5115577889
 20
-14.8381909548
 30
0.0
 11
-29.5115577889
 21
-20.0
 31
0.0
  0
LINE
  5
183
330
1F
100
AcDbEntity
  8
0
  6
Continuous
 62
     7
370
    25
100
AcDbLine
 10
-29.5115577889
 20
-20.0
 30
0.0
 11
-31.4990954774
 21
-20.0
 31
0.0
  0
LINE
  5
184
330
1F
100
AcDbEntity
  8
0
  6
Continuous
 62
     7
370
    25
100
AcDbLine
 10
-31.4990954774
 20
-20.0
 30
0.0
 11
-31.4990954774
 21
-15.0022110553
 31
0.0
  0
SPLINE
  5
185
330
1F
100
AcDbEntity
  8
0
  6
Continuous
 62
     7
370
    25
100
AcDbSpline
210
0.0
220
0.0
230
1.0
 70
     8
 71
     3
 72
    21
 73
    17
 74
     0
 42
0.000000001
 43
0.00000001
 40
0.0
 40
0.0
 40
0.0
 40
0.0
 40
0.1473890218742067
 40
0.2878816179190907
 40
0.3552218374688008
 40
0.41893932783396
 40
0.4804755981451084
 40
0.5398227501073384
 40
0.5966483540957604
 40
0.6502462799380011
 40
0.7026260499548601
 40
0.7542802348264817
 40
0.807080012058866
 40
0.8646591500515199
 40
0.928507763797543
 40
1.0
 40
1.0
 40
1.0
 40
1.0
 10
-31.49909547738698
 20
-15.00221105527633
 30
0.0
 10
-31.5013392991028
 20
-14.82123447327476
 30
0.0
 10
-31.505721952693
 20
-14.46774931834548
 30
0.0
 10
-31.5362148728554
 20
-14.0325958457143
 30
0.0
 10
-31.57337070509938
 20
-13.70089596238195
 30
0.0
 10
-31.62659133306617
 20
-13.47018161543433
 30
0.0
 10
-31.68986292131241
 20
-13.25230028200941
 30
0.0
 10
-31.7726651994194
 20
-13.05014820814938
 30
0.0
 10
-31.86656491651775
 20
-12.8635353661941
 30
0.0
 10
-31.98230187342892
 20
-12.69975775154058
 30
0.0
 10
-32.11276049045382
 20
-12.556146234086
 30
0.0
 10
-32.26171883188452
 20
-12.43293874047156
 30
0.0
 10
-32.43520258001259
 20
-12.33325440580218
 30
0.0
 10
-32.63883185967229
 20
-12.26410368447008
 30
0.0
 10
-32.87320706570341
 20
-12.22404154355996
 30
0.0
 10
-33.03943055055677
 20
-12.21896371248113
 30
0.0
 10
-33.12723618090456
 20
-12.21628140703512
 30
0.0
  0
SPLINE
  5
186
330
1F
100
AcDbEntity
  8
0
  6
Continuous
 62
     7
370
    25
100
AcDbSpline
210
0.0
220
0.0
230
1.0
 70
     8
 71
     3
 72
    13
 73
     9
 74
     0
 42
0.000000001
 43
0.00000001
 40
0.0
 40
0.0
 40
0.0
 40
0.0
 40
0.088280152896804
 40
0.1908560672703276
 40
0.3094982223174399
 40
0.4414629945420528
 40
0.7195932793798581
 40
1.0
 40
1.0
 40
1.0
 40
1.0
 10
-33.12723618090456
 20
-12.21628140703512
 30
0.0
 10
-33.16828156870969
 20
-12.21730532796578
 30
0.0
 10
-33.25701908262441
 20
-12.21951897979587
 30
0.0
 10
-33.40000085451081
 20
-12.2363906245598
 30
0.0
 10
-33.56304691634541
 20
-12.2561120654453
 30
0.0
 10
-33.80418472850747
 20
-12.30369430544645
 30
0.0
 10
-34.11850369030125
 20
-12.37420387367372
 30
0.0
 10
-34.35783604670821
 20
-12.47622081796139
 30
0.0
 10
-34.47798994974878
 20
-12.5274371859296
 30
0.0
  0
LINE
  5
187
330
1F
100
AcDbEntity
  8
0
  6
Continuous
 62
     7
370
    25
100
AcDbLine
 10
-34.4779899497
 20
-12.5274371859
 30
0.0
 11
-34.4779899497
 21
-11.2731658291
 31
0.0
  0
LINE
  5
188
330
1F
100
AcDbEntity
  8
0
  6
Continuous
 62
     7
370
    25
100
AcDbLine
 10
-37.1143718593
 20
-20.0
 30
0.0
 11
-37.1143718593
 21
-10.8172864322
 31
0.0
  0
LINE
  5
189
330
1F
100
AcDbEntity
  8
0
  6
Continuous
 62
     7
370
    25
100
AcDbLine
 10
-37.1143718593
 20
-10.8172864322
 30
0.0
 11
-35.3559798995
 21
-10.8172864322
 31
0.0
  0
LINE
  5
18A
330
1F
100
AcDbEntity
  8
0
  6
Continuous
 62
     7
370
    25
100
AcDbLine
 10
-35.3559798995
 20
-10.8172864322
 30
0.0
 11
-35.1461306533
 21
-11.7459296482
 31
0.0
  0
LINE
  5
18B
330
1F
100
AcDbEntity
  8
0
  6
Continuous
 62
     7
370
    25
100
AcDbLine
 10
-35.1461306533
 20
-11.7459296482
 30
0.0
 11
-35.1461306533
 21
-20.0
 31
0.0
  0
LINE
  5
18C
330
1F
100
AcDbEntity
  8
0
  6
Continuous
 62
     7
370
    25
100
AcDbLine
 10
-35.1461306533
 20
-20.0
 30
0.0
 11
-37.1143718593
 21
-20.0
 31
0.0
  0
SPLINE
  5
18D
330
1F
100
AcDbEntity
  8
0
  6
Continuous
 62
     7
370
    25
100
AcDbSpline
210
0.0
220
0.0
230
1.0
 70
     8
 71
     3
 72
    15
 73
    11
 74
     0
 42
0.000000001
 43
0.00000001
 40
0.0
 40
0.0
 40
0.0
 40
0.0
 40
0.1297840590780882
 40
0.2537000341887417
 40
0.3764243123499963
 40
0.5037392895243978
 40
0.631054266698797
 40
0.7544075599371611
 40
0.8741551743728451
 40
0.9999999999999999
 40
0.9999999999999999
 40
0.9999999999999999
 40
0.9999999999999999
 10
-42.08080402010055
 20
-7.886633165829094
 30
0.0
 10
-42.0769499776946
 20
-7.80732461434741
 30
0.0
 10
-42.06941615037328
 20
-7.652293385047845
 30
0.0
 10
-42.00071140312963
 20
-7.431020178958986
 30
0.0
 10
-41.89326995279757
 20
-7.228294153048764
 30
0.0
 10
-41.74256736421481
 20
-7.052505595846916
 30
0.0
 10
-41.56622423498639
 20
-6.902424459229849
 30
0.0
 10
-41.36719305737812
 20
-6.792497769135985
 30
0.0
 10
-41.14982054140076
 20
-6.726427743973654
 30
0.0
 10
-40.99985791523048
 20
-6.718456454045339
 30
0.0
 10
-40.92301507537693
 20
-6.714371859296431
 30
0.0
  0
SPLINE
  5
18E
330
1F
100
AcDbEntity
  8
0
  6
Continuous
 62
     7
370
    25
100
AcDbSpline
210
0.0
220
0.0
230
1.0
 70
     8
 71
     3
 72
    15
 73
    11
 74
     0
 42
0.000000001
 43
0.00000001
 40
0.0
 40
0.0
 40
0.0
 40
0.0
 40
0.1274901972755575
 40
0.2500906275045902
 40
0.3725023178996008
 40
0.4998513783521795
 40
0.6261945116352563
 40
0.7486062020302677
 40
0.871206632259299
 40
1.0
 40
1.0
 40
1.0
 40
1.0
 10
-40.92301507537693
 20
-6.714371859296431
 30
0.0
 10
-40.8446375163605
 20
-6.718624264682629
 30
0.0
 10
-40.69088849615675
 20
-6.726965978431327
 30
0.0
 10
-40.4685488637676
 20
-6.790695766423223
 30
0.0
 10
-40.2676806475918
 20
-6.90335916355304
 30
0.0
 10
-40.08878280122085
 20
-7.051454190721675
 30
0.0
 10
-39.93907811499128
 20
-7.229166719628899
 30
0.0
 10
-39.82717430955855
 20
-7.429823772542275
 30
0.0
 10
-39.76309058911096
 20
-7.65285494828253
 30
0.0
 10
-39.75493302783212
 20
-7.807437741422863
 30
0.0
 10
-39.75075376884427
 20
-7.886633165829094
 30
0.0
  0
SPLINE
  5
18F
330
1F
100
AcDbEntity
  8
0
  6
Continuous
 62
     7
370
    25
100
AcDbSpline
210
0.0
220
0.0
230
1.0
 70
     8
 71
     3
 72
    15
 73
    11
 74
     0
 42
0.000000001
 43
0.00000001
 40
0.0
 40
0.0
 40
0.0
 40
0.0
 40
0.128317751823493
 40
0.2504490853668016
 40
0.3736553650970848
 40
0.4998117781901715
 40
0.6263252643619035
 40
0.7482860034787324
 40
0.8716822481765081
 40
1.0
 40
1.0
 40
1.0
 40
1.0
 10
-39.75075376884427
 20
-7.886633165829094
 30
0.0
 10
-39.75489572997838
 20
-7.965047478000838
 30
0.0
 10
-39.76297996121622
 20
-8.118095614240746
 30
0.0
 10
-39.82779931572723
 20
-8.33919885503135
 30
0.0
 10
-39.9384560880619
 20
-8.53894234315625
 30
0.0
 10
-40.08833814801462
 20
-8.714547928378778
 30
0.0
 10
-40.26788100225752
 20
-8.858433930152245
 30
0.0
 10
-40.46981602436232
 20
-8.96481403557015
 30
0.0
 10
-40.69074953106701
 20
-9.029700907011337
 30
0.0
 10
-40.84459059478624
 20
-9.037853866999958
 30
0.0
 10
-40.92301507537693
 20
-9.042010050251205
 30
0.0
  0
SPLINE
  5
190
330
1F
100
AcDbEntity
  8
0
  6
Continuous
 62
     7
370
    25
100
AcDbSpline
210
0.0
220
0.0
230
1.0
 70
     8
 71
     3
 72
    15
 73
    11
 74
     0
 42
0.000000001
 43
0.00000001
 40
0.0
 40
0.0
 40
0.0
 40
0.0
 40
0.1292165459493157
 40
0.2534771123664679
 40
0.3757465263663713
 40
0.5038004758944797
 40
0.6301670656121825
 40
0.7529820715341983
 40
0.8734247351970389
 40
1.0
 40
1.0
 40
1.0
 40
1.0
 10
-40.92301507537693
 20
-9.042010050251205
 30
0.0
 10
-41.00140920155114
 20
-9.037785094862699
 30
0.0
 10
-41.15519072065259
 20
-9.029497228290442
 30
0.0
 10
-41.37623507152727
 20
-8.965681333525552
 30
0.0
 10
-41.57664341103084
 20
-8.855681217567925
 30
0.0
 10
-41.75230964586029
 20
-8.707706400425604
 30
0.0
 10
-41.89804734518026
 20
-8.52946788677912
 30
0.0
 10
-42.00187649902961
 20
-8.32960448102313
 30
0.0
 10
-42.06901744273198
 20
-8.11356264128506
 30
0.0
 10
-42.0768106680309
 20
-7.963518020705912
 30
0.0
 10
-42.08080402010055
 20
-7.886633165829094
 30
0.0
  0
LINE
  5
191
330
1F
100
AcDbEntity
  8
0
  6
Continuous
 62
     7
370
    25
100
AcDbLine
 10
-95.3704522613
 20
-8.0
 30
0.0
 11
-93.1561809045
 21
-8.0
 31
0.0
  0
LINE
  5
192
330
1F
100
AcDbEntity
  8
0
  6
Continuous
 62
     7
370
    25
100
AcDbLine
 10
-93.1561809045
 20
-8.0
 30
0.0
 11
-91.0408040201
 21
-18.3549748744
 31
0.0
  0
LINE
  5
193
330
1F
100
AcDbEntity
  8
0
  6
Continuous
 62
     7
370
    25
100
AcDbLine
 10
-91.0408040201
 20
-18.3549748744
 30
0.0
 11
-88.7614070352
 21
-8.0
 31
0.0
  0
LINE
  5
194
330
1F
100
AcDbEntity
  8
0
  6
Continuous
 62
     7
370
    25
100
AcDbLine
 10
-88.7614070352
 20
-8.0
 30
0.0
 11
-87.9943718593
 21
-8.0
 31
0.0
  0
LINE
  5
195
330
1F
100
AcDbEntity
  8
0
  6
Continuous
 62
     7
370
    25
100
AcDbLine
 10
-87.9943718593
 20
-8.0
 30
0.0
 11
-87.9943718593
 21
-12.3465326633
 31
0.0
  0
LINE
  5
196
330
1F
100
AcDbEntity
  8
0
  6
Continuous
 62
     7
370
    25
100
AcDbLine
 10
-87.9943718593
 20
-12.3465326633
 30
0.0
 11
-89.7696482412
 21
-20.0651256281
 31
0.0
  0
LINE
  5
197
330
1F
100
AcDbEntity
  8
0
  6
Continuous
 62
     7
370
    25
100
AcDbLine
 10
-89.7696482412
 20
-20.0651256281
 30
0.0
 11
-92.3264321608
 21
-20.0651256281
 31
0.0
  0
LINE
  5
198
330
1F
100
AcDbEntity
  8
0
  6
Continuous
 62
     7
370
    25
100
AcDbLine
 10
-92.3264321608
 20
-20.0651256281
 30
0.0
 11
-95.3704522613
 21
-8.0
 31
0.0
  0
ENDSEC
  0
SECTION
  2
OBJECTS
  0
DICTIONARY
  5
C
330
0
100
AcDbDictionary
281
     1
  3
ACAD_GROUP
350
D
  3
ACAD_LAYOUT
350
1A
  3
ACAD_MLINESTYLE
350
17
  3
ACAD_PLOTSETTINGS
350
19
  3
ACAD_PLOTSTYLENAME
350
E
  3
ACAD_SCALELIST
350
47
  0
DICTIONARY
  5
D
102
{ACAD_REACTORS
330
C
102
}
330
C
100
AcDbDictionary
281
     1
  0
DICTIONARY
  5
1A
102
{ACAD_REACTORS
330
C
102
}
330
C
100
AcDbDictionary
281
     1
  3
Layout1
350
1E
  3
Layout2
350
26
  3
Model
350
22
  0
DICTIONARY
  5
17
102
{ACAD_REACTORS
330
C
102
}
330
C
100
AcDbDictionary
281
     1
  3
Standard
350
18
  0
DICTIONARY
  5
19
102
{ACAD_REACTORS
330
C
102
}
330
C
100
AcDbDictionary
281
     1
  0
ACDBDICTIONARYWDFLT
  5
E
102
{ACAD_REACTORS
330
C
102
}
330
C
100
AcDbDictionary
281
     1
  3
Normal
350
F
100
AcDbDictionaryWithDefault
340
F
  0
DICTIONARY
  5
47
102
{ACAD_REACTORS
330
C
102
}
330
C
100
AcDbDictionary
281
     1
  3
A0
350
48
  3
A1
350
49
  3
A2
350
4A
  3
A3
350
4B
  3
A4
350
4C
  3
A5
350
4D
  3
A6
350
4E
  3
A7
350
4F
  3
A8
350
50
  3
A9
350
51
  3
B0
350
52
  3
B1
350
53
  3
B2
350
54
  3
B3
350
55
  3
B4
350
56
  3
B5
350
57
  3
B6
350
58
  3
B7
350
59
  3
B8
350
5A
  3
B9
350
5B
  3
C0
350
5C
  3
C1
350
5D
  3
C2
350
5E
  3
C3
350
5F
  3
C4
350
60
  3
C5
350
61
  3
C6
350
62
  3
C7
350
63
  3
C8
350
64
  3
C9
350
65
  3
D0
350
66
  3
D1
350
67
  3
D2
350
68
  0
LAYOUT
  5
1E
102
{ACAD_REACTORS
330
1A
102
}
330
1A
100
AcDbPlotSettings
  1

  2
none_device
  4

  6

 40
0.0
 41
0.0
 42
0.0
 43
0.0
 44
0.0
 45
0.0
 46
0.0
 47
0.0
 48
0.0
 49
0.0
140
0.0
141
0.0
142
1.0
143
1.0
 70
   688
 72
     1
 73
     0
 74
     5
  7

 75
    16
147
1.0
148
0.0
149
0.0
100
AcDbLayout
  1
Layout1
 70
     1
 71
     1
 10
0.0
 20
0.0
 11
420.0
 21
297.0
 12
0.0
 22
0.0
 32
0.0
 14
1.0000000000E+20
 24
1.0000000000E+20
 34
1.0000000000E+20
 15
-1.0000000000E+20
 25
-1.0000000000E+20
 35
-1.0000000000E+20
146
0.0
 13
0.0
 23
0.0
 33
0.0
 16
1.0
 26
0.0
 36
0.0
 17
0.0
 27
1.0
 37
0.0
 76
     0
330
1B
  0
LAYOUT
  5
26
102
{ACAD_REACTORS
330
1A
102
}
330
1A
100
AcDbPlotSettings
  1

  2
none_device
  4

  6

 40
0.0
 41
0.0
 42
0.0
 43
0.0
 44
0.0
 45
0.0
 46
0.0
 47
0.0
 48
0.0
 49
0.0
140
0.0
141
0.0
142
1.0
143
1.0
 70
   688
 72
     1
 73
     0
 74
     5
  7

 75
    16
147
1.0
148
0.0
149
0.0
100
AcDbLayout
  1
Layout2
 70
     1
 71
     2
 10
0.0
 20
0.0
 11
0.0
 21
0.0
 12
0.0
 22
0.0
 32
0.0
 14
0.0
 24
0.0
 34
0.0
 15
0.0
 25
0.0
 35
0.0
146
0.0
 13
0.0
 23
0.0
 33
0.0
 16
1.0
 26
0.0
 36
0.0
 17
0.0
 27
1.0
 37
0.0
 76
     0
330
23
  0
LAYOUT
  5
22
102
{ACAD_REACTORS
330
1A
102
}
330
1A
100
AcDbPlotSettings
  1

  2
none_device
  4
ANSI_A_(11.00_x_8.50_Inches)
  6

 40
6.35
 41
19.05
 42
6.35000508
 43
19.05000254
 44
279.4
 45
215.9
 46
133.34999746
 47
88.89999873
 48
0.0
 49
0.0
140
0.0
141
0.0
142
0.027361809
143
1.0
 70
  1696
 72
     0
 73
     0
 74
     0
  7

 75
     0
147
0.0179189148
148
-1300.4909072572
149
0.0
100
AcDbLayout
  1
Model
 70
     1
 71
     0
 10
0.0
 20
0.0
 11
420.0
 21
297.0
 12
0.0
 22
0.0
 32
0.0
 14
-199.0
 24
-25.0
 34
0.0
 15
199.0
 25
25.0
 35
0.0
146
0.0
 13
0.0
 23
0.0
 33
0.0
 16
1.0
 26
0.0
 36
0.0
 17
0.0
 27
1.0
 37
0.0
 76
     0
330
1F
331
29
  0
MLINESTYLE
  5
18
102
{ACAD_REACTORS
330
17
102
}
330
17
100
AcDbMlineStyle
  2
Standard
 70
     0
  3

 62
   256
 51
90.0
 52
90.0
 71
     2
 49
0.5
 62
   256
  6
BYLAYER
 49
-0.5
 62
   256
  6
BYLAYER
  0
ACDBPLACEHOLDER
  5
F
102
{ACAD_REACTORS
330
E
102
}
330
E
  0
SCALE
  5
48
102
{ACAD_REACTORS
330
47
102
}
330
47
100
AcDbScale
 70
     0
300
1:1
140
1.0
141
1.0
290
     1
  0
SCALE
  5
49
102
{ACAD_REACTORS
330
47
102
}
330
47
100
AcDbScale
 70
     0
300
1:2
140
1.0
141
2.0
290
     0
  0
SCALE
  5
4A
102
{ACAD_REACTORS
330
47
102
}
330
47
100
AcDbScale
 70
     0
300
1:4
140
1.0
141
4.0
290
     0
  0
SCALE
  5
4B
102
{ACAD_REACTORS
330
47
102
}
330
47
100
AcDbScale
 70
     0
300
1:5
140
1.0
141
5.0
290
     0
  0
SCALE
  5
4C
102
{ACAD_REACTORS
330
47
102
}
330
47
100
AcDbScale
 70
     0
300
1:8
140
1.0
141
8.0
290
     0
  0
SCALE
  5
4D
102
{ACAD_REACTORS
330
47
102
}
330
47
100
AcDbScale
 70
     0
300
1:10
140
1.0
141
10.0
290
     0
  0
SCALE
  5
4E
102
{ACAD_REACTORS
330
47
102
}
330
47
100
AcDbScale
 70
     0
300
1:16
140
1.0
141
16.0
290
     0
  0
SCALE
  5
4F
102
{ACAD_REACTORS
330
47
102
}
330
47
100
AcDbScale
 70
     0
300
1:20
140
1.0
141
20.0
290
     0
  0
SCALE
  5
50
102
{ACAD_REACTORS
330
47
102
}
330
47
100
AcDbScale
 70
     0
300
1:30
140
1.0
141
30.0
290
     0
  0
SCALE
  5
51
102
{ACAD_REACTORS
330
47
102
}
330
47
100
AcDbScale
 70
     0
300
1:40
140
1.0
141
40.0
290
     0
  0
SCALE
  5
52
102
{ACAD_REACTORS
330
47
102
}
330
47
100
AcDbScale
 70
     0
300
1:50
140
1.0
141
50.0
290
     0
  0
SCALE
  5
53
102
{ACAD_REACTORS
330
47
102
}
330
47
100
AcDbScale
 70
     0
300
1:100
140
1.0
141
100.0
290
     0
  0
SCALE
  5
54
102
{ACAD_REACTORS
330
47
102
}
330
47
100
AcDbScale
 70
     0
300
2:1
140
2.0
141
1.0
290
     0
  0
SCALE
  5
55
102
{ACAD_REACTORS
330
47
102
}
330
47
100
AcDbScale
 70
     0
300
4:1
140
4.0
141
1.0
290
     0
  0
SCALE
  5
56
102
{ACAD_REACTORS
330
47
102
}
330
47
100
AcDbScale
 70
     0
300
8:1
140
8.0
141
1.0
290
     0
  0
SCALE
  5
57
102
{ACAD_REACTORS
330
47
102
}
330
47
100
AcDbScale
 70
     0
300
10:1
140
10.0
141
1.0
290
     0
  0
SCALE
  5
58
102
{ACAD_REACTORS
330
47
102
}
330
47
100
AcDbScale
 70
     0
300
100:1
140
100.0
141
1.0
290
     0
  0
SCALE
  5
59
102
{ACAD_REACTORS
330
47
102
}
330
47
100
AcDbScale
 70
     0
300
1/128" = 1'-0"
140
0.0078125
141
12.0
290
     0
  0
SCALE
  5
5A
102
{ACAD_REACTORS
330
47
102
}
330
47
100
AcDbScale
 70
     0
300
1/64" = 1'-0"
140
0.015625
141
12.0
290
     0
  0
SCALE
  5
5B
102
{ACAD_REACTORS
330
47
102
}
330
47
100
AcDbScale
 70
     0
300
1/32" = 1'-0"
140
0.03125
141
12.0
290
     0
  0
SCALE
  5
5C
102
{ACAD_REACTORS
330
47
102
}
330
47
100
AcDbScale
 70
     0
300
1/16" = 1'-0"
140
0.0625
141
12.0
290
     0
  0
SCALE
  5
5D
102
{ACAD_REACTORS
330
47
102
}
330
47
100
AcDbScale
 70
     0
300
3/32" = 1'-0"
140
0.09375
141
12.0
290
     0
  0
SCALE
  5
5E
102
{ACAD_REACTORS
330
47
102
}
330
47
100
AcDbScale
 70
     0
300
1/8" = 1'-0"
140
0.125
141
12.0
290
     0
  0
SCALE
  5
5F
102
{ACAD_REACTORS
330
47
102
}
330
47
100
AcDbScale
 70
     0
300
3/16" = 1'-0"
140
0.1875
141
12.0
290
     0
  0
SCALE
  5
60
102
{ACAD_REACTORS
330
47
102
}
330
47
100
AcDbScale
 70
     0
300
1/4" = 1'-0"
140
0.25
141
12.0
290
     0
  0
SCALE
  5
61
102
{ACAD_REACTORS
330
47
102
}
330
47
100
AcDbScale
 70
     0
300
3/8" = 1'-0"
140
0.375
141
12.0
290
     0
  0
SCALE
  5
62
102
{ACAD_REACTORS
330
47
102
}
330
47
100
AcDbScale
 70
     0
300
1/2" = 1'-0"
140
0.5
141
12.0
290
     0
  0
SCALE
  5
63
102
{ACAD_REACTORS
330
47
102
}
330
47
100
AcDbScale
 70
     0
300
3/4" = 1'-0"
140
0.75
141
12.0
290
     0
  0
SCALE
  5
64
102
{ACAD_REACTORS
330
47
102
}
330
47
100
AcDbScale
 70
     0
300
1" = 1'-0"
140
1.0
141
12.0
290
     0
  0
SCALE
  5
65
102
{ACAD_REACTORS
330
47
102
}
330
47
100
AcDbScale
 70
     0
300
1-1/2" = 1'-0"
140
1.5
141
12.0
290
     0
  0
SCALE
  5
66
102
{ACAD_REACTORS
330
47
102
}
330
47
100
AcDbScale
 70
     0
300
3" = 1'-0"
140
3.0
141
12.0
290
     0
  0
SCALE
  5
67
102
{ACAD_REACTORS
330
47
102
}
330
47
100
AcDbScale
 70
     0
300
6" = 1'-0"
140
6.0
141
12.0
290
     0
  0
SCALE
  5
68
102
{ACAD_REACTORS
330
47
102
}
330
47
100
AcDbScale
 70
     0
300
1'-0" = 1'-0"
140
12.0
141
12.0
290
     0
  0
ENDSEC
  0
EOF
